<svg id="visual" viewBox="0 0 900 600" width="900" height="600" xmlns="http://www.w3.org/2000/svg" xmlns:xlink="http://www.w3.org/1999/xlink" version="1.1"><g transform="translate(887.421391380558 29.6762427225881)"><path id="blob1" d="M124 -234.5C147.9 -200.9 145.8 -141.9 159.7 -98.6C173.5 -55.3 203.3 -27.7 207.6 2.5C211.9 32.7 190.8 65.3 169.7 95.9C148.5 126.5 127.2 155.1 99 163.7C70.7 172.4 35.3 161.2 -6.2 171.9C-47.7 182.6 -95.3 215.1 -125.8 207.7C-156.2 200.3 -169.5 152.9 -171.8 111.6C-174.2 70.3 -165.6 35.2 -169.6 -2.3C-173.7 -39.8 -190.3 -79.7 -179.3 -105.9C-168.3 -132.2 -129.7 -144.9 -95.2 -172.5C-60.7 -200.1 -30.3 -242.5 9.8 -259.6C50 -276.6 100 -268.2 124 -234.5" fill="#f1a1e7"></path></g></svg>