<svg xmlns="http://www.w3.org/2000/svg" xmlns:xlink="http://www.w3.org/1999/xlink" width="500" zoomAndPan="magnify" viewBox="0 0 375 299.999988" height="400" preserveAspectRatio="xMidYMid meet" version="1.0"><defs><clipPath id="696cf702db"><path d="M 7 9.132812 L 210 9.132812 L 210 191 L 7 191 Z M 7 9.132812 " clip-rule="nonzero"/></clipPath></defs><path fill="#5f00f8" d="M 54.078125 194.589844 C 62.460938 173.851562 83.195312 160.597656 104.347656 153.277344 C 125.476562 145.960938 147.988281 143.210938 169.117188 135.890625 C 190.246094 128.570312 210.980469 115.339844 219.386719 94.605469 C 226.105469 78 224.492188 57.84375 235.710938 43.894531 C 242.5 35.445312 252.914062 30.828125 263.144531 27.246094 C 280.347656 21.199219 298.242188 17.15625 316.371094 15.21875 C 328.445312 13.925781 341.585938 13.832031 351.582031 20.734375 C 363.867188 29.210938 367.609375 45.351562 370.425781 59.992188 C 372.734375 72 374.976562 84.675781 370.820312 96.175781 C 366.824219 107.1875 357.519531 115.363281 348.027344 122.222656 C 321.011719 141.710938 287.921875 156.257812 272.152344 185.582031 C 259.519531 209.066406 260.1875 238.691406 244.28125 260.097656 C 225.945312 284.761719 190.753906 290.71875 160.480469 285.3125 C 131.664062 280.1875 100.214844 268.804688 73.265625 257.628906 C 51.398438 248.597656 45.972656 214.609375 54.078125 194.589844 Z M 54.078125 194.589844 " fill-opacity="1" fill-rule="nonzero"/><g clip-path="url(#696cf702db)"><path fill="#f1a1e7" d="M 51.605469 140.855469 C 63.429688 131.597656 78.785156 128.226562 93.726562 126.746094 C 108.664062 125.269531 123.859375 125.386719 138.453125 121.945312 C 174.914062 113.332031 204.539062 80.542969 208.8125 43.320312 C 209.757812 35.074219 209.390625 26.09375 204.46875 19.398438 C 199.484375 12.5625 190.546875 9.445312 182.070312 9.605469 C 171.3125 9.835938 161.058594 14.730469 152.722656 21.519531 C 144.363281 28.308594 137.714844 36.898438 131.363281 45.582031 C 124.550781 54.886719 117.761719 64.65625 107.996094 70.796875 C 91.648438 81.050781 70.496094 79.085938 52.507812 86.039062 C 35.074219 92.757812 21.566406 107.835938 14.613281 125.152344 C 11.058594 133.996094 0 191.054688 17.410156 190.109375 C 26.808594 189.601562 30.664062 174.984375 32.996094 168.265625 C 36.691406 157.6875 42.71875 147.828125 51.605469 140.855469 Z M 51.605469 140.855469 " fill-opacity="1" fill-rule="nonzero"/></g></svg>