<svg id="visual" viewBox="0 0 900 600" width="900" height="600" xmlns="http://www.w3.org/2000/svg" xmlns:xlink="http://www.w3.org/1999/xlink" version="1.1"><g transform="translate(931.0189822801102 13.721261796946635)"><path d="M125.9 -216.6C161.9 -197.4 188.8 -160.9 200.3 -122C211.8 -83 207.9 -41.5 200.4 -4.3C192.9 32.8 181.7 65.7 171.3 106.5C160.9 147.4 151.2 196.2 122.8 209.1C94.3 222.1 47.2 199 9.9 181.9C-27.3 164.7 -54.7 153.4 -76.3 136.5C-98 119.7 -113.9 97.3 -150.3 73.7C-186.6 50 -243.3 25 -262.1 -10.8C-280.8 -46.7 -261.7 -93.3 -235.1 -133.9C-208.5 -174.5 -174.5 -208.9 -134.1 -225.6C-93.7 -242.2 -46.8 -241.1 -0.9 -239.5C45 -237.9 90 -235.9 125.9 -216.6" fill="#f1a1e7"></path></g></svg>