<svg xmlns="http://www.w3.org/2000/svg" xmlns:xlink="http://www.w3.org/1999/xlink" width="400" zoomAndPan="magnify" viewBox="0 0 300 225" height="300" preserveAspectRatio="xMidYMid meet" version="1.0"><path fill="#5f00f8" d="M 43.726562 148.304688 C 50.417969 131.75 66.976562 121.164062 83.867188 115.320312 C 100.738281 109.472656 118.71875 107.28125 135.589844 101.433594 C 152.460938 95.589844 169.019531 85.023438 175.730469 68.464844 C 181.097656 55.207031 179.804688 39.109375 188.765625 27.972656 C 194.1875 21.226562 202.503906 17.539062 210.671875 14.679688 C 224.410156 9.847656 238.699219 6.621094 253.175781 5.074219 C 262.816406 4.039062 273.308594 3.964844 281.292969 9.480469 C 291.101562 16.246094 294.089844 29.136719 296.339844 40.824219 C 298.183594 50.414062 299.972656 60.535156 296.652344 69.71875 C 293.464844 78.515625 286.03125 85.042969 278.453125 90.519531 C 256.878906 106.082031 230.457031 117.699219 217.863281 141.117188 C 207.777344 159.867188 208.3125 183.523438 195.609375 200.617188 C 180.96875 220.3125 152.867188 225.066406 128.691406 220.753906 C 105.679688 216.660156 80.566406 207.570312 59.046875 198.644531 C 41.585938 191.433594 37.253906 164.292969 43.726562 148.304688 Z M 43.726562 148.304688 " fill-opacity="1" fill-rule="nonzero"/><path fill="#ffffff" d="M 41.753906 105.398438 C 51.195312 98.003906 63.457031 95.3125 75.386719 94.132812 C 87.316406 92.953125 99.449219 93.046875 111.101562 90.296875 C 140.21875 83.417969 163.875 57.238281 167.285156 27.511719 C 168.042969 20.929688 167.746094 13.757812 163.820312 8.410156 C 159.835938 2.953125 152.699219 0.460938 145.933594 0.59375 C 137.339844 0.777344 129.152344 4.683594 122.496094 10.105469 C 115.824219 15.527344 110.511719 22.386719 105.441406 29.320312 C 100 36.75 94.582031 44.550781 86.78125 49.457031 C 73.726562 57.640625 56.835938 56.074219 42.472656 61.625 C 28.550781 66.992188 17.765625 79.03125 12.214844 92.859375 C 9.375 99.921875 0.542969 145.484375 14.445312 144.730469 C 21.949219 144.324219 25.027344 132.652344 26.890625 127.285156 C 29.839844 118.839844 34.652344 110.96875 41.753906 105.398438 Z M 41.753906 105.398438 " fill-opacity="1" fill-rule="nonzero"/></svg>