<svg xmlns="http://www.w3.org/2000/svg" xmlns:xlink="http://www.w3.org/1999/xlink" width="250" zoomAndPan="magnify" viewBox="0 0 187.5 67.499998" height="90" preserveAspectRatio="xMidYMid meet" version="1.0"><defs><g/></defs><g fill="#ff00ff" fill-opacity="1"><g transform="translate(1.90167, 43.55726)"><g><path d="M 8.625 -16.109375 L 7.578125 -10.875 L 16.765625 -10.875 L 16 -7.203125 L 6.875 -7.203125 L 5.421875 0 L 0.8125 0 L 4.78125 -19.78125 L 19.734375 -19.78125 L 18.96875 -16.109375 Z M 8.625 -16.109375 "/></g></g></g><g fill="#ff00ff" fill-opacity="1"><g transform="translate(19.252463, 43.55726)"><g><path d="M 10.140625 0.34375 C 7.660156 0.34375 5.710938 -0.269531 4.296875 -1.5 C 2.878906 -2.738281 2.171875 -4.429688 2.171875 -6.578125 C 2.171875 -7.203125 2.25 -7.910156 2.40625 -8.703125 L 4.609375 -19.78125 L 9.21875 -19.78125 L 7.015625 -8.796875 C 6.898438 -8.171875 6.84375 -7.613281 6.84375 -7.125 C 6.84375 -5.9375 7.164062 -5.046875 7.8125 -4.453125 C 8.46875 -3.859375 9.414062 -3.5625 10.65625 -3.5625 C 12.050781 -3.5625 13.160156 -3.972656 13.984375 -4.796875 C 14.816406 -5.628906 15.421875 -6.960938 15.796875 -8.796875 L 18 -19.78125 L 22.5 -19.78125 L 20.265625 -8.515625 C 19.054688 -2.609375 15.679688 0.34375 10.140625 0.34375 Z M 10.140625 0.34375 "/></g></g></g><g fill="#ff00ff" fill-opacity="1"><g transform="translate(40.813799, 43.55726)"><g><path d="M 5.0625 0.34375 C 3.550781 0.34375 2.25 0.0859375 1.15625 -0.421875 C 0.0625 -0.929688 -0.785156 -1.664062 -1.390625 -2.625 L 1.640625 -5.515625 C 2.503906 -4.117188 3.660156 -3.421875 5.109375 -3.421875 C 6.878906 -3.421875 7.972656 -4.445312 8.390625 -6.5 L 10.28125 -16.109375 L 3.359375 -16.109375 L 4.09375 -19.78125 L 15.578125 -19.78125 L 12.953125 -6.734375 C 12.453125 -4.203125 11.5625 -2.390625 10.28125 -1.296875 C 9 -0.203125 7.257812 0.34375 5.0625 0.34375 Z M 5.0625 0.34375 "/></g></g></g><g fill="#ff00ff" fill-opacity="1"><g transform="translate(55.395237, 43.55726)"><g><path d="M 4.78125 -19.78125 L 9.390625 -19.78125 L 5.421875 0 L 0.8125 0 Z M 4.78125 -19.78125 "/></g></g></g><g fill="#ff00ff" fill-opacity="1"><g transform="translate(63.957576, 43.55726)"><g/></g></g><g fill="#ff00ff" fill-opacity="1"><g transform="translate(71.248271, 43.55726)"><g><path d="M 4.78125 -19.78125 L 13.0625 -19.78125 C 15.070312 -19.78125 16.804688 -19.445312 18.265625 -18.78125 C 19.734375 -18.113281 20.859375 -17.15625 21.640625 -15.90625 C 22.421875 -14.664062 22.8125 -13.207031 22.8125 -11.53125 C 22.8125 -9.226562 22.289062 -7.207031 21.25 -5.46875 C 20.21875 -3.726562 18.773438 -2.378906 16.921875 -1.421875 C 15.066406 -0.472656 12.921875 0 10.484375 0 L 0.8125 0 Z M 10.625 -3.765625 C 12.175781 -3.765625 13.519531 -4.085938 14.65625 -4.734375 C 15.789062 -5.378906 16.660156 -6.269531 17.265625 -7.40625 C 17.867188 -8.550781 18.171875 -9.84375 18.171875 -11.28125 C 18.171875 -12.769531 17.691406 -13.929688 16.734375 -14.765625 C 15.773438 -15.609375 14.378906 -16.03125 12.546875 -16.03125 L 8.625 -16.03125 L 6.15625 -3.765625 Z M 10.625 -3.765625 "/></g></g></g><g fill="#ff00ff" fill-opacity="1"><g transform="translate(93.883439, 43.55726)"><g><path d="M 4.78125 -19.78125 L 9.390625 -19.78125 L 5.421875 0 L 0.8125 0 Z M 4.78125 -19.78125 "/></g></g></g><g fill="#ff00ff" fill-opacity="1"><g transform="translate(102.445778, 43.55726)"><g><path d="M 16.25 -10.203125 L 20.4375 -10.203125 L 18.796875 -2.0625 C 17.796875 -1.289062 16.632812 -0.695312 15.3125 -0.28125 C 14 0.132812 12.632812 0.34375 11.21875 0.34375 C 9.238281 0.34375 7.515625 -0.015625 6.046875 -0.734375 C 4.578125 -1.453125 3.441406 -2.457031 2.640625 -3.75 C 1.835938 -5.050781 1.4375 -6.550781 1.4375 -8.25 C 1.4375 -10.5 1.953125 -12.523438 2.984375 -14.328125 C 4.023438 -16.140625 5.488281 -17.554688 7.375 -18.578125 C 9.257812 -19.609375 11.425781 -20.125 13.875 -20.125 C 15.757812 -20.125 17.394531 -19.832031 18.78125 -19.25 C 20.164062 -18.664062 21.28125 -17.804688 22.125 -16.671875 L 18.859375 -14.015625 C 18.191406 -14.785156 17.441406 -15.34375 16.609375 -15.6875 C 15.785156 -16.039062 14.8125 -16.21875 13.6875 -16.21875 C 12.175781 -16.21875 10.84375 -15.882812 9.6875 -15.21875 C 8.539062 -14.550781 7.648438 -13.632812 7.015625 -12.46875 C 6.390625 -11.300781 6.078125 -9.988281 6.078125 -8.53125 C 6.078125 -7.007812 6.570312 -5.800781 7.5625 -4.90625 C 8.550781 -4.007812 9.96875 -3.5625 11.8125 -3.5625 C 12.976562 -3.5625 14.070312 -3.796875 15.09375 -4.265625 Z M 16.25 -10.203125 "/></g></g></g><g fill="#ff00ff" fill-opacity="1"><g transform="translate(123.526717, 43.55726)"><g><path d="M 4.78125 -19.78125 L 9.390625 -19.78125 L 5.421875 0 L 0.8125 0 Z M 4.78125 -19.78125 "/></g></g></g><g fill="#ff00ff" fill-opacity="1"><g transform="translate(132.089063, 43.55726)"><g><path d="M 8.109375 -16.0625 L 1.78125 -16.0625 L 2.546875 -19.78125 L 19.78125 -19.78125 L 19.015625 -16.0625 L 12.71875 -16.0625 L 9.5 0 L 4.921875 0 Z M 8.109375 -16.0625 "/></g></g></g><g fill="#ff00ff" fill-opacity="1"><g transform="translate(148.846424, 43.55726)"><g><path d="M 14.890625 -4.234375 L 5.6875 -4.234375 L 3.109375 0 L -1.78125 0 L 11.03125 -19.78125 L 15.546875 -19.78125 L 20.40625 0 L 15.828125 0 Z M 14.140625 -7.71875 L 12.46875 -15.34375 L 7.796875 -7.71875 Z M 14.140625 -7.71875 "/></g></g></g><g fill="#ff00ff" fill-opacity="1"><g transform="translate(169.786075, 43.55726)"><g><path d="M 4.78125 -19.78125 L 9.390625 -19.78125 L 6.15625 -3.734375 L 16.078125 -3.734375 L 15.3125 0 L 0.8125 0 Z M 4.78125 -19.78125 "/></g></g></g><g fill="#00ffff" fill-opacity="1"><g transform="translate(0.841902, 43.55726)"><g><path d="M 8.625 -16.109375 L 7.578125 -10.875 L 16.765625 -10.875 L 16 -7.203125 L 6.875 -7.203125 L 5.421875 0 L 0.8125 0 L 4.78125 -19.78125 L 19.734375 -19.78125 L 18.96875 -16.109375 Z M 8.625 -16.109375 "/></g></g></g><g fill="#00ffff" fill-opacity="1"><g transform="translate(18.192695, 43.55726)"><g><path d="M 10.140625 0.34375 C 7.660156 0.34375 5.710938 -0.269531 4.296875 -1.5 C 2.878906 -2.738281 2.171875 -4.429688 2.171875 -6.578125 C 2.171875 -7.203125 2.25 -7.910156 2.40625 -8.703125 L 4.609375 -19.78125 L 9.21875 -19.78125 L 7.015625 -8.796875 C 6.898438 -8.171875 6.84375 -7.613281 6.84375 -7.125 C 6.84375 -5.9375 7.164062 -5.046875 7.8125 -4.453125 C 8.46875 -3.859375 9.414062 -3.5625 10.65625 -3.5625 C 12.050781 -3.5625 13.160156 -3.972656 13.984375 -4.796875 C 14.816406 -5.628906 15.421875 -6.960938 15.796875 -8.796875 L 18 -19.78125 L 22.5 -19.78125 L 20.265625 -8.515625 C 19.054688 -2.609375 15.679688 0.34375 10.140625 0.34375 Z M 10.140625 0.34375 "/></g></g></g><g fill="#00ffff" fill-opacity="1"><g transform="translate(39.754031, 43.55726)"><g><path d="M 5.0625 0.34375 C 3.550781 0.34375 2.25 0.0859375 1.15625 -0.421875 C 0.0625 -0.929688 -0.785156 -1.664062 -1.390625 -2.625 L 1.640625 -5.515625 C 2.503906 -4.117188 3.660156 -3.421875 5.109375 -3.421875 C 6.878906 -3.421875 7.972656 -4.445312 8.390625 -6.5 L 10.28125 -16.109375 L 3.359375 -16.109375 L 4.09375 -19.78125 L 15.578125 -19.78125 L 12.953125 -6.734375 C 12.453125 -4.203125 11.5625 -2.390625 10.28125 -1.296875 C 9 -0.203125 7.257812 0.34375 5.0625 0.34375 Z M 5.0625 0.34375 "/></g></g></g><g fill="#00ffff" fill-opacity="1"><g transform="translate(54.335469, 43.55726)"><g><path d="M 4.78125 -19.78125 L 9.390625 -19.78125 L 5.421875 0 L 0.8125 0 Z M 4.78125 -19.78125 "/></g></g></g><g fill="#00ffff" fill-opacity="1"><g transform="translate(62.897808, 43.55726)"><g/></g></g><g fill="#00ffff" fill-opacity="1"><g transform="translate(70.188503, 43.55726)"><g><path d="M 4.78125 -19.78125 L 13.0625 -19.78125 C 15.070312 -19.78125 16.804688 -19.445312 18.265625 -18.78125 C 19.734375 -18.113281 20.859375 -17.15625 21.640625 -15.90625 C 22.421875 -14.664062 22.8125 -13.207031 22.8125 -11.53125 C 22.8125 -9.226562 22.289062 -7.207031 21.25 -5.46875 C 20.21875 -3.726562 18.773438 -2.378906 16.921875 -1.421875 C 15.066406 -0.472656 12.921875 0 10.484375 0 L 0.8125 0 Z M 10.625 -3.765625 C 12.175781 -3.765625 13.519531 -4.085938 14.65625 -4.734375 C 15.789062 -5.378906 16.660156 -6.269531 17.265625 -7.40625 C 17.867188 -8.550781 18.171875 -9.84375 18.171875 -11.28125 C 18.171875 -12.769531 17.691406 -13.929688 16.734375 -14.765625 C 15.773438 -15.609375 14.378906 -16.03125 12.546875 -16.03125 L 8.625 -16.03125 L 6.15625 -3.765625 Z M 10.625 -3.765625 "/></g></g></g><g fill="#00ffff" fill-opacity="1"><g transform="translate(92.823671, 43.55726)"><g><path d="M 4.78125 -19.78125 L 9.390625 -19.78125 L 5.421875 0 L 0.8125 0 Z M 4.78125 -19.78125 "/></g></g></g><g fill="#00ffff" fill-opacity="1"><g transform="translate(101.38601, 43.55726)"><g><path d="M 16.25 -10.203125 L 20.4375 -10.203125 L 18.796875 -2.0625 C 17.796875 -1.289062 16.632812 -0.695312 15.3125 -0.28125 C 14 0.132812 12.632812 0.34375 11.21875 0.34375 C 9.238281 0.34375 7.515625 -0.015625 6.046875 -0.734375 C 4.578125 -1.453125 3.441406 -2.457031 2.640625 -3.75 C 1.835938 -5.050781 1.4375 -6.550781 1.4375 -8.25 C 1.4375 -10.5 1.953125 -12.523438 2.984375 -14.328125 C 4.023438 -16.140625 5.488281 -17.554688 7.375 -18.578125 C 9.257812 -19.609375 11.425781 -20.125 13.875 -20.125 C 15.757812 -20.125 17.394531 -19.832031 18.78125 -19.25 C 20.164062 -18.664062 21.28125 -17.804688 22.125 -16.671875 L 18.859375 -14.015625 C 18.191406 -14.785156 17.441406 -15.34375 16.609375 -15.6875 C 15.785156 -16.039062 14.8125 -16.21875 13.6875 -16.21875 C 12.175781 -16.21875 10.84375 -15.882812 9.6875 -15.21875 C 8.539062 -14.550781 7.648438 -13.632812 7.015625 -12.46875 C 6.390625 -11.300781 6.078125 -9.988281 6.078125 -8.53125 C 6.078125 -7.007812 6.570312 -5.800781 7.5625 -4.90625 C 8.550781 -4.007812 9.96875 -3.5625 11.8125 -3.5625 C 12.976562 -3.5625 14.070312 -3.796875 15.09375 -4.265625 Z M 16.25 -10.203125 "/></g></g></g><g fill="#00ffff" fill-opacity="1"><g transform="translate(122.466949, 43.55726)"><g><path d="M 4.78125 -19.78125 L 9.390625 -19.78125 L 5.421875 0 L 0.8125 0 Z M 4.78125 -19.78125 "/></g></g></g><g fill="#00ffff" fill-opacity="1"><g transform="translate(131.029295, 43.55726)"><g><path d="M 8.109375 -16.0625 L 1.78125 -16.0625 L 2.546875 -19.78125 L 19.78125 -19.78125 L 19.015625 -16.0625 L 12.71875 -16.0625 L 9.5 0 L 4.921875 0 Z M 8.109375 -16.0625 "/></g></g></g><g fill="#00ffff" fill-opacity="1"><g transform="translate(147.786656, 43.55726)"><g><path d="M 14.890625 -4.234375 L 5.6875 -4.234375 L 3.109375 0 L -1.78125 0 L 11.03125 -19.78125 L 15.546875 -19.78125 L 20.40625 0 L 15.828125 0 Z M 14.140625 -7.71875 L 12.46875 -15.34375 L 7.796875 -7.71875 Z M 14.140625 -7.71875 "/></g></g></g><g fill="#00ffff" fill-opacity="1"><g transform="translate(168.726307, 43.55726)"><g><path d="M 4.78125 -19.78125 L 9.390625 -19.78125 L 6.15625 -3.734375 L 16.078125 -3.734375 L 15.3125 0 L 0.8125 0 Z M 4.78125 -19.78125 "/></g></g></g><g fill="#ffffff" fill-opacity="1"><g transform="translate(1.371786, 43.55726)"><g><path d="M 8.625 -16.109375 L 7.578125 -10.875 L 16.765625 -10.875 L 16 -7.203125 L 6.875 -7.203125 L 5.421875 0 L 0.8125 0 L 4.78125 -19.78125 L 19.734375 -19.78125 L 18.96875 -16.109375 Z M 8.625 -16.109375 "/></g></g></g><g fill="#ffffff" fill-opacity="1"><g transform="translate(18.722579, 43.55726)"><g><path d="M 10.140625 0.34375 C 7.660156 0.34375 5.710938 -0.269531 4.296875 -1.5 C 2.878906 -2.738281 2.171875 -4.429688 2.171875 -6.578125 C 2.171875 -7.203125 2.25 -7.910156 2.40625 -8.703125 L 4.609375 -19.78125 L 9.21875 -19.78125 L 7.015625 -8.796875 C 6.898438 -8.171875 6.84375 -7.613281 6.84375 -7.125 C 6.84375 -5.9375 7.164062 -5.046875 7.8125 -4.453125 C 8.46875 -3.859375 9.414062 -3.5625 10.65625 -3.5625 C 12.050781 -3.5625 13.160156 -3.972656 13.984375 -4.796875 C 14.816406 -5.628906 15.421875 -6.960938 15.796875 -8.796875 L 18 -19.78125 L 22.5 -19.78125 L 20.265625 -8.515625 C 19.054688 -2.609375 15.679688 0.34375 10.140625 0.34375 Z M 10.140625 0.34375 "/></g></g></g><g fill="#ffffff" fill-opacity="1"><g transform="translate(40.283915, 43.55726)"><g><path d="M 5.0625 0.34375 C 3.550781 0.34375 2.25 0.0859375 1.15625 -0.421875 C 0.0625 -0.929688 -0.785156 -1.664062 -1.390625 -2.625 L 1.640625 -5.515625 C 2.503906 -4.117188 3.660156 -3.421875 5.109375 -3.421875 C 6.878906 -3.421875 7.972656 -4.445312 8.390625 -6.5 L 10.28125 -16.109375 L 3.359375 -16.109375 L 4.09375 -19.78125 L 15.578125 -19.78125 L 12.953125 -6.734375 C 12.453125 -4.203125 11.5625 -2.390625 10.28125 -1.296875 C 9 -0.203125 7.257812 0.34375 5.0625 0.34375 Z M 5.0625 0.34375 "/></g></g></g><g fill="#ffffff" fill-opacity="1"><g transform="translate(54.865353, 43.55726)"><g><path d="M 4.78125 -19.78125 L 9.390625 -19.78125 L 5.421875 0 L 0.8125 0 Z M 4.78125 -19.78125 "/></g></g></g><g fill="#ffffff" fill-opacity="1"><g transform="translate(63.427692, 43.55726)"><g/></g></g><g fill="#ffffff" fill-opacity="1"><g transform="translate(70.718387, 43.55726)"><g><path d="M 4.78125 -19.78125 L 13.0625 -19.78125 C 15.070312 -19.78125 16.804688 -19.445312 18.265625 -18.78125 C 19.734375 -18.113281 20.859375 -17.15625 21.640625 -15.90625 C 22.421875 -14.664062 22.8125 -13.207031 22.8125 -11.53125 C 22.8125 -9.226562 22.289062 -7.207031 21.25 -5.46875 C 20.21875 -3.726562 18.773438 -2.378906 16.921875 -1.421875 C 15.066406 -0.472656 12.921875 0 10.484375 0 L 0.8125 0 Z M 10.625 -3.765625 C 12.175781 -3.765625 13.519531 -4.085938 14.65625 -4.734375 C 15.789062 -5.378906 16.660156 -6.269531 17.265625 -7.40625 C 17.867188 -8.550781 18.171875 -9.84375 18.171875 -11.28125 C 18.171875 -12.769531 17.691406 -13.929688 16.734375 -14.765625 C 15.773438 -15.609375 14.378906 -16.03125 12.546875 -16.03125 L 8.625 -16.03125 L 6.15625 -3.765625 Z M 10.625 -3.765625 "/></g></g></g><g fill="#ffffff" fill-opacity="1"><g transform="translate(93.353555, 43.55726)"><g><path d="M 4.78125 -19.78125 L 9.390625 -19.78125 L 5.421875 0 L 0.8125 0 Z M 4.78125 -19.78125 "/></g></g></g><g fill="#ffffff" fill-opacity="1"><g transform="translate(101.915894, 43.55726)"><g><path d="M 16.25 -10.203125 L 20.4375 -10.203125 L 18.796875 -2.0625 C 17.796875 -1.289062 16.632812 -0.695312 15.3125 -0.28125 C 14 0.132812 12.632812 0.34375 11.21875 0.34375 C 9.238281 0.34375 7.515625 -0.015625 6.046875 -0.734375 C 4.578125 -1.453125 3.441406 -2.457031 2.640625 -3.75 C 1.835938 -5.050781 1.4375 -6.550781 1.4375 -8.25 C 1.4375 -10.5 1.953125 -12.523438 2.984375 -14.328125 C 4.023438 -16.140625 5.488281 -17.554688 7.375 -18.578125 C 9.257812 -19.609375 11.425781 -20.125 13.875 -20.125 C 15.757812 -20.125 17.394531 -19.832031 18.78125 -19.25 C 20.164062 -18.664062 21.28125 -17.804688 22.125 -16.671875 L 18.859375 -14.015625 C 18.191406 -14.785156 17.441406 -15.34375 16.609375 -15.6875 C 15.785156 -16.039062 14.8125 -16.21875 13.6875 -16.21875 C 12.175781 -16.21875 10.84375 -15.882812 9.6875 -15.21875 C 8.539062 -14.550781 7.648438 -13.632812 7.015625 -12.46875 C 6.390625 -11.300781 6.078125 -9.988281 6.078125 -8.53125 C 6.078125 -7.007812 6.570312 -5.800781 7.5625 -4.90625 C 8.550781 -4.007812 9.96875 -3.5625 11.8125 -3.5625 C 12.976562 -3.5625 14.070312 -3.796875 15.09375 -4.265625 Z M 16.25 -10.203125 "/></g></g></g><g fill="#ffffff" fill-opacity="1"><g transform="translate(122.996833, 43.55726)"><g><path d="M 4.78125 -19.78125 L 9.390625 -19.78125 L 5.421875 0 L 0.8125 0 Z M 4.78125 -19.78125 "/></g></g></g><g fill="#ffffff" fill-opacity="1"><g transform="translate(131.559179, 43.55726)"><g><path d="M 8.109375 -16.0625 L 1.78125 -16.0625 L 2.546875 -19.78125 L 19.78125 -19.78125 L 19.015625 -16.0625 L 12.71875 -16.0625 L 9.5 0 L 4.921875 0 Z M 8.109375 -16.0625 "/></g></g></g><g fill="#ffffff" fill-opacity="1"><g transform="translate(148.31654, 43.55726)"><g><path d="M 14.890625 -4.234375 L 5.6875 -4.234375 L 3.109375 0 L -1.78125 0 L 11.03125 -19.78125 L 15.546875 -19.78125 L 20.40625 0 L 15.828125 0 Z M 14.140625 -7.71875 L 12.46875 -15.34375 L 7.796875 -7.71875 Z M 14.140625 -7.71875 "/></g></g></g><g fill="#ffffff" fill-opacity="1"><g transform="translate(169.256191, 43.55726)"><g><path d="M 4.78125 -19.78125 L 9.390625 -19.78125 L 6.15625 -3.734375 L 16.078125 -3.734375 L 15.3125 0 L 0.8125 0 Z M 4.78125 -19.78125 "/></g></g></g></svg>