<svg xmlns="http://www.w3.org/2000/svg" width="400" zoomAndPan="magnify" viewBox="0 0 300 187.5" height="250" preserveAspectRatio="xMidYMid meet" xmlnsV="https://vecta.io/nano"><defs><clipPath id="A"><path d="M.398 4H299v178.723H.398zm0 0" clip-rule="nonzero"/></clipPath><clipPath id="B"><path d="M95 26h201v156.723H95zm0 0" clip-rule="nonzero"/></clipPath></defs><g clip-path="url(#A)"><path fill="#f1a1e7" d="M153.523 61.938c.293-.191.555-.387.699-.543.445-.477.09-1.398-.297-2.41s-.906-3.02-.602-4.812c0 0 .949 1.113 1.777 1.199 0 0 2.527 4.383 4.027 4.422s7.203-5.539 8.871-7.371 6.332-7.289 6.332-7.289 6.16 2.625 7.246 2.625c.754 0 2.457-1.328 2.773-1.578.02.023.059.039.094.016.027-.012.055-.027.082-.043l3.09.563c.957.211 2.633.797 2.758.422.094-.285-.043-.918-.578-1.523.027.004.059-.02.039-.051a2.32 2.32 0 0 0-.531-.539c-.031-.023-.066-.039-.098-.059.016-.062.004-.129-.008-.187-.012-.086-.027-.172-.07-.25a2.32 2.32 0 0 0-.305-.422c-.121-.141-.273-.246-.422-.348l-.105-.066-.211-.242c-.039-.266-.281-.484-.539-.578-.031-.012-.062-.016-.094-.023-1.023-.852-3.961-1.961-5.875-2.379l-2.332-1.043s2.078-.672 2.996-1.129 1.25-.91 1.25-.91-.117-.562-.941-.75c-.816-.187-2.805.543-4.098.625s-3.664.168-4.164.582-1.125 1.707-1.125 1.707l-11.609 7.836s-1.777-3.598-2.148-4.137c-.293-.422-.664-.18-.809-.059-.02-.023-.051-.039-.086-.027l-1.828-3.805c-.684-1.426-1.551-2.789-1.707-3.691s-.73-4.219-1.652-4.777c-.246-.148-.598-.215-.996-.238.406-.574.699-1.234.598-1.875-.277-1.707-2.777-3.094-2.777-3.094s2.375-.953 2.102-3.094c-.398-3.098-3.055-3.531-3.055-3.531s1.828-1.52 1.406-3.738c-.453-2.375-2.992-2.969-2.992-2.969s1.27-2.461-.32-4.207c-1.656-1.824-4.523-.754-4.523-.754s-.195-2.656-2.418-3.055-3.809 1.785-3.809 1.785-2.582-2.062-5-.953-2.062 4.246-2.062 4.246-2.445-.812-3.93.836c-1.43 1.586-.437 4.363-.437 4.363s-3.492.316-4.086 3.094c-.629 2.938 2.32 4.605 2.32 4.605s-3.48 1.262-2.668 4.879c.344 1.527 1.852 2.309 3.141 2.703-.957 1.027-1.937 4.293-2.238 7.215l-.469 5.059H78.527a1.66 1.66 0 0 0-1.617 1.289l-4.227 18.484H.441v70.773c0 1.105.898 2 2.004 2a2 2 0 0 0 2-2V68.199L49.82 92.531h.297v66.727a2 2 0 0 0 2 2c1.105 0 2.004-.898 2.004-2V92.531h73.32l.508 6.551 3.316 32.051 2.652 30.738s2.379.227 5.055.383l-.437 4.629c0 1.055.082 2.18.176 3.102-.07.012-.074.117-.004.141l.242 1.836s2.227.441 4.242.512 3.875.047 3.875.047 5.66 1.055 8.371 1.125 9.043-1.059 9.043-1.059.203-.512.242-1.191c.035.008.07-.008.082-.055l1.348-.02s5.66 1.055 8.371 1.121 9.043-1.059 9.043-1.059.473-1.184.105-2.352c.008-.012.02-.02.027-.031.059-.086-.016-.227-.121-.227a.27.27 0 0 0-.012-.031s-2.73-.859-6.465-1.648c-1.734-.797-3.215-2.324-5.703-4.148a35.06 35.06 0 0 1-2.969-2.414c.504-.187.762-.34.762-.34l-5.594-40.945c-.445-3.922-2.195-15.098-3.887-25.305v-1.41h45.543v65.742c0 1.105.895 2.004 2 2.004s2-.898 2-2.004V88.418l-49.375-26.477h-6.355zm-23.289 0h-2.664c.371-1.32.719-2.727.762-3.102a42.38 42.38 0 0 1 .086-.676l.469-3.687c.016 0 .031-.004.047-.012.254.625 1.727 4.297 1.809 5.059.063.559-.297 1.633-.508 2.418zm27.5 106.18c-.016 0-.035-.004-.051-.008-1.605-.828-3.051-2.262-5.367-3.961-2.18-1.598-3.379-2.797-3.379-2.797.625-.258.965-.457.965-.457l-2.496-36.172c-.523-5.445-1.504-18.984-1.734-22.414.039-.023.07-.055.074-.102.004-.027.004-.055.008-.082.645 3.305 3.461 18.898 4.121 23.043.609 3.789 4.254 36.141 4.254 36.141l3.891.012c-.203 1.473-.402 3.207-.402 4.359 0 .813.051 1.668.117 2.438zM298.371 51.105c.504-2.602.586-9.352.293-11.578-.27-2.051-2.184-4.863-2.477-5.285.051-.039.039-.141-.039-.133-.008 0-.016.004-.023.004l-1.027-3.348s-.652.094-1.664.289l-.926-3.238s4.895-4.516 5.973-6.324-.77-3.418-.77-3.418c1.426-2.34-1.672-4.449-4.168-5.711-3.059-1.551-7.406-2.977-8.625-2.344-1.371.715.277 2.602.277 2.855 0 0-2.125 1.469-2.684 2.266s-.195 1.984-.633 2.5-5.316 3.41-5.316 4.164 3.254 1.707 3.254 2.379c0 .184-.082.695-.187 1.352-.004.012-.004.027-.008.039l-.086.527-.09.598c-.004.016-.004.027-.008.043l-.09.613-.074.598c-.437-.32-1.215-.426-1.52-.316-.379.141-1.145 2.066-1.344 2.574-.016-.008-.031-.008-.047-.008-.012-.309-.059-1.074-.277-1.297-.277-.277-3.609.797-4.363 1.23s-.875 1.391-.875 1.391-1.109.438-1.637.871-.586 2.898-.465 5.039.465 4.008.465 4.008-1.418 4.801-2.109 7.699c-.445 1.867-1.066 3.719-1.305 5.289l-3.957-6.52c-1.664-2.895-5.434-8.887-6.109-10.316s-1.668-2.062-3.016-2.5c-.242-.078-.668-.262-1.207-.516.938-.805 1.777-2.141 1.777-4.352 0-2.668-1.59-5.973-3.625-8.008-1.051-1.051-1.914-2.051-2.504-2.773.023-.285.016-.574-.027-.867-.098-.609-.316-1.09-.617-1.445.02-.555-.027-1.336-.219-2.414-.512-2.84-2.48-7.184-6.359-7.504-2.598-.211-6.738.828-8.477 2.434-1.602 1.016-2.555 3.27-2.555 6.621 0 2.813 0 5.445.469 7.496a1.38 1.38 0 0 0 .031.121c-.895 1.219-2.305 3.336-2.562 4.879-.117.703.152 1.508.578 2.277-1.988.52-3.754 1.156-4.332 1.234-.656.09-1.668.207-2.293.863s-.965 1.734-1.547 2.68c-.973 1.574-5.418 7.023-6.727 8.777-.285.387-.758.992-1.336 1.742-.613-.324-1.211-.41-1.289-.066-.074.313.141.75.418 1.203l-.816 1.082-1.863-2.086c-1.453-1.66-3.039-2.125-3.375-1.754s.844 1.621 1.449 2.227c.48.48 1.25 1.582 1.555 2.031-.047-.02-.078.02-.074.051l-2.66-1.879c-.945-.676-2.93-.926-3.41-.336-.113.141.047.371.117.465-.02.016-.031.043-.035.066-.156.07-.539.266-.539.488 0 .445 1.355 1.48 2.051 1.992.789.582 1.609 1.391 2.035 1.828.086.16.184.313.305.453.012.012.027.016.043.016.129.383.465 1.363.68 1.711.02.031.055.07.094.109-.578.992-1.07 1.953-1.402 2.816-1.586 4.129-1.23 5.438-.992 6.707s1.824 4.602 3.254 5.039 6.547 1.707 7.539.914 3.891-4.566 4.84-5.676c.891-1.039 3.027-3.117 3.305-3.383.008.008.02.012.027.012 0 .398.012 3.48.465 3.926 0 0-3.359 17.617-3.359 24.285s7.738 42.02 7.738 42.02.695.332 1.813.777l.992 8.988c.621 4.676 2.816 14.246 2.594 15.824s-3.043 5.066-5.07 8.785c0 0-.375.215-.937.559-.449.277-1.023.641-1.625 1.043l-.91.633a22.68 22.68 0 0 0-.883.668 14.24 14.24 0 0 0-.785.668c-.113.105-.223.211-.32.313-.465.48-.91.945-1.273 1.371a6.36 6.36 0 0 0-.5.652c-.484.738-.461 1.262.648 1.355.738.063 2.172.063 3.781.008l1.645-.07.414-.023 1.625-.113.387-.035c1.273-.117 2.359-.266 2.957-.441s1.191-.609 1.723-1.125c1.172-1.129 2.051-2.645 2.051-2.645l1.465 3.039 3.039-.395c.008-.039.023-.098.047-.191.008-.031.016-.062.023-.102.016-.074.035-.16.059-.258s.047-.207.07-.328a12.47 12.47 0 0 0 .082-.383l.176-.898.086-.496.082-.516c.027-.172.051-.348.074-.52.055-.434.098-.867.121-1.27.008-.164.016-.32.016-.473s-.004-.293-.008-.43-.023-.266-.039-.387a16.56 16.56 0 0 0-.195-1.043c-.047-.23-.102-.477-.16-.723l-.121-.508-.129-.512-.062-.254-.52-1.93-.332-1.168 1.633-14.246c.301-2.941.441-7.574.5-10.312.504-.117 1.035-.277 1.59-.465.805 4.039 2.238 11.102 3.066 14.238l4.285 16.746-1.113 5.555s-1.27 3.41-1.586 4.918c-.18.848.898 2.477 2.016 3.738.25.277.5.539.738.773s.465.43.668.59c.078.059.152.109.219.156.207.141.375.219.484.219.398 0 2.004-.902 3.59-2.109a20.43 20.43 0 0 0 .59-.465c.488-.395.961-.816 1.375-1.238.754-.762 1.328-1.539 1.508-2.219.027-.098.047-.199.063-.305l.012-.105c.008-.074.016-.145.02-.219v-.133a1.9 1.9 0 0 0 0-.211c0-.051-.004-.098-.008-.145-.004-.074-.008-.145-.016-.219-.008-.051-.012-.102-.02-.152-.008-.074-.02-.152-.031-.23l-.023-.152-.051-.254c-.008-.047-.02-.09-.027-.137l-.074-.309c-.008-.031-.012-.066-.023-.098a18.62 18.62 0 0 0-.242-.871c0-.012-.004-.023-.008-.035l-.133-.418c-.004-.02-.008-.035-.016-.051-.043-.145-.09-.285-.137-.43l-.516-1.559-.277-.871c-.793-2.621-1.902-4.844-1.902-4.844l-.32-20.789c-.055-4.086-.559-10.684-.84-14.117l2.07-1.32s-.715-27.496-2.262-36.184-8.371-24.207-8.371-24.207c.633-.516.355-1.465.715-3.57a40.93 40.93 0 0 1 .957-4.121c.086.051.172.105.25.176.027.023.074 0 .074-.035l.473.434c-.039.113-.004.258.141.281h.023c.094.82.578 4.859 1.254 5.605.754.836 4.484 2.621 6.508 2.977 1.742.309 6.746 1.203 9.473.688.41 1.086.824 1.98 1.152 2.188.309.188 1 .387 1.773.566.043.07.09.141.148.203.105.117.305.043.34-.094a52.72 52.72 0 0 0 2.688.496 1.49 1.49 0 0 1-.242.051c-.156.023-.105.25.035.262h.027c-.633 1.102-2.699 4.793-2.387 5.434.184.383 1.066.648 2.059.82l.004 3.125c.043 1.09-.125 2.516.211 2.641.145.055.477.102.824.098l.012 2.691c.031 3.332 2.176 30.551 2.652 36.426.465 5.742 5.031 41.551 5.23 43.109-.055.008-.059.059-.035.09l-.551.438s.992 5.262 1.332 5.297a6.35 6.35 0 0 0 .383.008l-3.57 2.918c-.969.875-2.23 2.379-2.812 2.523s-5.383.535-5.82 1.066c-.234.289-.105 1.398.066 2.355-.082.027-.109.168-.004.184.016.004.027.004.039.008.137.734.285 1.336.285 1.336s3.641.777 6.84.582 6.113-.535 6.598-.922 2.086-1.699 2.766-1.648.875 1.648.875 1.648l8.441-.242s.289-1.164.434-2.812c.016-.152.012-.359 0-.605.191-.082.199-.41-.031-.414-.176-1.965-.855-5.648-1.227-7.578.691-.164 1.195-.293 1.352-.348.613-.203.105-4.77 0-5.074-.082-.254-.676-.367-.879-.398.012-.051-.012-.102-.074-.094-.055-.785-.434-6.961-.434-10.637 0-3.93-1.547-14.402-1.785-16.547s1.309-25.949 1.547-30.711.238-11.547-.473-15.355-2.016-9.32-2.016-9.32l.012-.258c.035-.02.074-.035.109-.055.129-.078.086-.25-.039-.301-.02-.004-.039-.008-.059-.016.023-.785.055-2.156.012-3.297 1.082-.172 1.254-1.137 1.098-2.531-.168-1.508-.461-5.199-.086-6.793s5.371-14.809 5.875-17.41zm-19.211-20.52c.012.004.023.004.027-.008.016-.031.027-.066.043-.098.027.09.063.16.109.211.191.219.719.305 1.352.316-.684.156-1.613 1.289-1.984 1.77.004-.012.008-.02.008-.031.016-.059-.027-.098-.074-.105l.52-2.055zm5.035 4.793s-.98-.039-1.73.48c-.148-.082-.25.063-.199.172-.848.859-2.66 4.07-4.656 7.324l-1.867 3.047.262-5.711s2.184-1.746 2.738-2.578 1.031-2.461 1.23-3.254 2.938-2.699 2.859-3.375c-.039-.301-.297-.469-.652-.543 1.043-.094 1.961-.25 1.961-.25l.66 2.645-.605.195s.043 1.594 0 1.848zm0 0"/></g><path fill="#dd996e" d="M188.09 43.563a.34.34 0 0 0-.004-.109l.211.238-.207-.129zm-2.867 1.594a9.99 9.99 0 0 1 .984-.727l1.027-.609c.195-.102.578-.219.289-.496-.145-.141-.477-.184-.668-.207-.961-.113-1.801.383-2.598.844-.766.441-1.52.918-2.34 1.25-.031.016-.059.039-.09.055-.215.125-.367.094-.594-.02-.781-.383-1.273-1.023-1.816-1.668-.559-.664-1.309-1.203-2.156-1.418-.871-.215-1.828-.027-2.648.301-.145.055-.227-.145-.141-.242 1.18-1.332 3.297-.926 4.547.09.699.566 1.051 1.395 1.691 2 .227.215.691.746 1.004.691a1.07 1.07 0 0 0 .203-.059c.699-.539 1.492-.988 2.273-1.406l-.984.023-.937.031c-.332.016-.645 0-.973-.023-.078-.008-.098-.117-.02-.137a4.93 4.93 0 0 1 .953-.172l.977-.047c.48-.016.973.008 1.457.07.285-.152.586-.281.895-.383l-.477-.133-1.215-.309-2.453-.449c-.078-.02-.055-.133.02-.137.848-.055 1.695.082 2.52.273l1.211.324.633.23.215.082c.477-.094.965-.086 1.441.066-1.023-.852-3.961-1.961-5.875-2.379l-2.332-1.039 2.992-1.133c.918-.457 1.254-.91 1.254-.91s-.117-.562-.941-.75c-.816-.184-2.805.543-4.098.625s-3.664.168-4.164.586-1.125 1.707-1.125 1.707l-11.609 7.832s-3.309 2.359-4.262 3.766-2.191 4.219-2.191 4.219 2.527 4.383 4.027 4.426 7.203-5.539 8.871-7.375 6.332-7.285 6.332-7.285 6.16 2.621 7.246 2.621c.754 0 2.457-1.324 2.773-1.578-.02-.027-.02-.066.004-.098.277-.328.539-.648.867-.926zm4.566.457l-.391-.172c-.102-.047-.199-.109-.305-.164a5.12 5.12 0 0 0-.637-.273L187 44.547l-1.199.844c-.41.293-.832.527-1.273.762l3.09.563c.957.211 2.633.797 2.758.422.098-.285-.043-.918-.578-1.523zm-2.043-1.176l.891.246c.125.039.242.086.355.145-.051-.055-.102-.105-.141-.164-.086-.129-.184-.242-.293-.348l-.355-.367-.176-.16c-.129.254-.437.418-.711.566a3.97 3.97 0 0 1 .43.082zm-70.324 18.789l-1.023 7.988-.41 4.855-.492 6.563-7.281.91-4.367.859s-2.625.18-2.809.52.809 1.117 1.586 1.402c.664.242 2.234.324 2.688.344.996-.676 2.238-.777 3.402-.965l1.945-.32c.605-.098 1.297-.312 1.906-.172.105.027.117.176.031.227-.523.316-1.215.332-1.805.426l-1.949.305c-1.176.188-2.402.309-3.523.719-.082.031-.125-.043-.117-.109-.637.344-1.332 1.195-1.211 1.641.055.191.254.309.688.27 1.555-.141 6.016-.215 7.715-.07 1.285.105 4.914.133 7.039-.199.684-.105 1.211-.25 1.453-.437.992-.781.566-3.258 1.063-6.23s2.336-8.07 3.043-11.68a86.91 86.91 0 0 0 .871-5.492l-4.047-.266c-.539-.027-3.504-.738-4.395-1.086zm28.344-44.676c.09 3.895-.652 7.184-1.348 7.688-.629.453-2.004.551-2.004.551l.125.629s-.129 2.098-.691 3.059l-.105-.059c-.023-.012-.039.004-.043.023-.047-.02-.102-.023-.148.016-.699-.156-2.602-.637-3.715-1.363-1.383-.902-2.715-2.203-2.715-2.203v-3.492l.133.383c.113.273.262.547.414.801.293.484.727.832 1.238 1.063 1.109.496 2.371.695 3.578.719.066.004.078-.094.016-.117l-3.16-1.16c-.227-.09-.449-.184-.645-.324-.203-.145-.348-.34-.504-.527l-.523-.656-.547-.637v-.137s-1.574.324-2.828-.32-2.18-2.434-2.035-4.254 2.215-2.504 3.395-1.684c0 0 1.219-.57 1.789-1.5s.32-2.469.32-2.469 1.395.754 2.719.074 1.609-2.109 1.609-2.109 1.059.941 2.309 1.227 2.16.273 2.16.273 1.113 2.617 1.207 6.508zm-7.535-3.621c.164-.141.387-.273.594-.375a2.91 2.91 0 0 1 1.395-.262c.258.016.289-.367.059-.437-.27-.082-.582-.145-.863-.113a3.22 3.22 0 0 0-.898.242c-.277.121-.52.293-.738.496-.109.102-.18.227-.242.359s-.078.277-.086.426c-.004.066.078.109.133.078.102-.062.215-.102.309-.172l.34-.242zm1.664 2.359c-.012-.148-.035-.297-.078-.441-.047-.152-.102-.352-.25-.437-.102-.059-.234-.066-.336 0-.09.063-.129.148-.148.25-.008.008-.02.016-.027.023-.098.113-.121.262-.129.406s.012.285.043.422c.07.281.277.734.641.625.18-.055.242-.23.266-.398.023-.148.031-.297.02-.449zm3.613 4.848l-4.777-.562c-.457-.035.027 2.32 2.141 2.504 1.512.129 2.934-1.77 2.637-1.941zm.52-3.273c-.207-.437-.547-.82-.812-1.219-.277-.418-.551-.867-.754-1.328-.047-.113-.254-.059-.238.066.051.43.148.82.332 1.211.191.414.418.805.672 1.18.113.172.234.336.281.539.027.109.023.156-.047.246s-.148.164-.227.242c-.152.16-.316.305-.488.441s-.395.234-.414.477c-.008.082.063.164.137.184.242.055.418-.148.59-.293l.582-.508c.176-.156.332-.312.426-.527.113-.246.074-.473-.039-.711zm.598-1.383a2.17 2.17 0 0 0-.137-.758c-.055-.141-.191-.203-.328-.133-.043.023-.082.051-.117.086-.148.035-.191.258-.199.387a2.21 2.21 0 0 0 .063.68c.023.109.051.234.121.324a.29.29 0 0 0 .391.078c.105-.066.156-.191.176-.309s.031-.234.031-.355zm.676-2.137a1.81 1.81 0 0 0-.102-.379c-.113-.301-.406-.516-.68-.668a1.81 1.81 0 0 0-.859-.25c-.227-.012-.633.023-.625.332.047.016.07.027.102.051.055.035.117.043.18.059l.332.105c.078.027.172.078.273.129a1.96 1.96 0 0 1 .305.172l.066.047c.008.008.012.008.02.016l.141.129a2.69 2.69 0 0 0 .305.254c.086.059.152.105.227.172.082.078.148.176.23.25.031.031.098.023.105-.027.027-.125 0-.266-.02-.391zm149.684 8.531c-.293 1.25-1.785 2.172-2.781 2.66-.633.223-1.371.258-1.996-.004-.094-.039-.23.023-.277.113a6.55 6.55 0 0 1-1.582 2.027c-.648.559-1.43.977-2.176 1.383-.059.031-.035.137.035.129 1.75-.187 3.242-1.605 4.055-3.117.348.113.715.16 1.078.117.086-.012.164-.027.242-.051l.926.684.926 3.238-3.242.715-5.391 1.566-.66-2.645s-.918.156-1.961.25c.355.074.617.242.652.543.078.676-2.66 2.582-2.859 3.375s-.672 2.418-1.23 3.254-2.734 2.578-2.734 2.578l-.266 5.711-5.137 8.395s-.051.023-.145.07c-.027-.008-.062-.004-.086.027-.012.012-.02.02-.027.031-.781.398-3.125 1.617-4.195 2.48a3.21 3.21 0 0 1-.305-.684c-.195-.648-.18-1.43-.051-2.293.238-1.566.859-3.418 1.305-5.285l2.109-7.699s-.348-1.867-.465-4.008-.059-4.602.465-5.039 1.637-.875 1.637-.875.121-.949.875-1.387 4.086-1.508 4.363-1.23c.219.219.266.988.273 1.297-.023.004-.051.016-.055.055-.133.707-.258 1.484-.234 2.238-.121.793-.203 1.59-.242 2.395a19.71 19.71 0 0 1-.109 1.359l-.043.344c-.043 0-.086-.004-.133-.016a1.22 1.22 0 0 1-.379-.199l-.016-.145a49.23 49.23 0 0 0-.348-2.258c-.266-1.508-.547-3.012-1.121-4.434-.027-.066-.148-.066-.137.02.156 1.23.438 2.438.656 3.664a52.08 52.08 0 0 1 .305 1.902l.125.961c.027.211.129.609-.016.797-.152.203-.586.051-.797-.02-.273-.094-.516-.238-.68-.484-.316-.477-.395-1.145-.562-1.684a28.29 28.29 0 0 0-1.277-3.387c-.098-.219-.414-.027-.324.191.586 1.387 1.035 2.809 1.41 4.266.055.207.117.414.203.605-.074.262-.012.551-.109.82-.117.328-.398.23-.629.074-.461-.301-.75-.801-1.012-1.27-.57-1.012-.922-2.133-1.617-3.074-.039-.051-.117-.008-.086.051.688 1.277.809 2.84 1.66 4.035.344.484.922 1.055 1.578.883.324-.082.457-.371.527-.672a2.29 2.29 0 0 0 .055-.293 1.63 1.63 0 0 0 .352.266c.383.207 1.008.426 1.434.25.227-.094.344-.27.395-.469.211.152.477.23.738.176.289-.066.367-.332.406-.594.043-.289.059-.59.07-.887.027-.598.016-1.199-.008-1.797l.012.039c.18.426.574.941 1.102.809.363-.09.613-.496.793-.793.219-.363.355-.746.465-1.152.367-.484 1.297-1.617 1.98-1.77-.633-.012-1.156-.098-1.352-.316-.043-.051-.078-.121-.109-.215.188-.426.355-.859.461-1.316.027-.133.063-.27.066-.402a1.6 1.6 0 0 0-.055-.359c-.035-.152-.102-.277-.215-.367a4.85 4.85 0 0 0 1.344-.078c1.828-.359 3.121-2.074 2.957-2.266s-1.293-.125-2.379-.098c-.668.016-1.359-.023-1.781-.055l.188-1.352c0-.676-3.254-1.625-3.254-2.379s4.879-3.652 5.316-4.168.082-1.707.637-2.5 2.68-2.262 2.68-2.262 2.668.188 4.578 1.016c1.66.723 3.625 2.035 3.242 2.289s-1.148.891-1.148.891l-.758 3.879c2.668-.953 4.32 1.016 3.875 2.926zm-21.07 16.73c-.422.238-.758.57-1.113.898-.324.297-.629.566-1.066.68-.402.102-.84.066-1.25.023-.418-.043-.867-.156-1.227-.367-.039-.02-.066.023-.043.055a2.36 2.36 0 0 0 1.094.77c.457.156.988.203 1.469.137.492-.062.867-.379 1.195-.727.387-.418.801-.828 1.082-1.328.055-.09-.051-.191-.141-.141zm10.461-21.918c-.055-.152-.156-.328-.328-.371-.117-.031-.238.016-.312.109-.059.078-.07.172-.078.262-.082.168-.152.336-.187.512a1.38 1.38 0 0 0 0 .457c.023.148.063.309.207.387.164.09.355.031.477-.102a.98.98 0 0 0 .203-.414c.078-.258.113-.578.02-.84zm2.621-1.309c-.078-.344-.207-.66-.441-.926s-.574-.461-.898-.605c-.762-.336-1.621-.32-2.426-.172-.105.02-.066.164.023.176.727.082 1.449.242 2.117.543.285.129.531.305.789.48s.512.344.727.566c.047.047.121-.004.109-.062zm-3.129 2.09l.023-.059c-.012-.004-.02 0-.031-.004 0 .004.004.035.008.063zm-4.52 7.898l-.078.586c-.434-.32-1.211-.426-1.516-.316-.379.137-1.145 2.066-1.344 2.574.027.016.055.035.059.07a11.8 11.8 0 0 1 .074 1.176l.008 1.023c.027.531.098 1.227.48 1.633.145.152.293.238.477.102.172-.129.297-.324.41-.504l.637-1.031c.02-.035.055-.043.086-.039l.523-2.051c-.016-.004-.023-.016-.02-.031.113-.422.211-.855.246-1.293.02-.238.02-.477.012-.715-.004-.172-.008-.359-.117-.5-.012-.012-.016-.027-.016-.043s0-.039.004-.055l.074-.586zm0 0"/><g clip-path="url(#B)"><path fill="#ebf0f7" d="M103.605 59.988a4.26 4.26 0 0 1-4.258 4.258 4.26 4.26 0 0 1-4.258-4.258 4.26 4.26 0 0 1 4.258-4.258 4.26 4.26 0 0 1 4.258 4.258zm41.777-4.02c-.051-2.117.383-4.215.512-6.32.137-2.187-.18-4.285-.723-6.398l-1.75-6.316-1.434-6.051c-.078-.098-.152-.199-.219-.305-.004.016 0 .027-.008.043l-1.02 1.664c-.309.625-.559 1.277-.797 1.934-.105.289-.172.973-.543 1.059-.219.047-.48-.125-.68-.199l-.801-.336c-1.078-.551-2.059-1.445-2.891-2.316-.902-.949-1.734-1.973-2.559-2.988-.062-.078.039-.187.109-.113 1.574 1.727 3.195 3.414 5.152 4.711l.742.496c.211.145.527.426.797.402.164.059.246-.008.246-.203l.074-.215.113-.363.293-.867c.34-.961.758-2.152 1.551-2.828-.703-.16-2.605-.637-3.719-1.363-1.383-.902-2.715-2.207-2.715-2.207l-1.695 1.504-.98.941s-2.445.02-3.828-.059-3.672-.301-4.633.461c-.055.043-.109.098-.168.16-.953 1.027-1.937 4.293-2.238 7.215l-.469 5.055-1.016 10.004-1.133 4.879s-1.441-.172-1.789.328c-.203.297-.121 5.477 0 5.715.016.031.109.078.254.133.887.352 3.855 1.059 4.395 1.086l4.043.27c.422.004.723-.008.805-.062.164-.102.547-1.297.906-2.578l.762-3.105.082-.672c-.012.047-.043.086-.098.098-.363.094-.668-.012-1.027-.09l-1.262-.207c-.793-.094-1.594-.125-2.395-.148-1.562-.047-3.246-.016-4.727-.582-.078-.031-.07-.156.023-.152l4.961.141 2.391.168c.641.086 1.641.113 2.098.625.035.035.043.086.039.129l.465-3.668c-.051-.004-.102-.035-.094-.105.211-2.141.863-4.273 1.656-6.266.578-1.449 1.262-2.988 1.469-4.566-.504-2.352-1.613-4.395-2.785-6.473l-1.836-3.258c-.574-.984-1.32-1.867-1.875-2.852-.031-.062.035-.133.098-.098.969.566 1.633 1.652 2.219 2.586l1.965 3.406c1.152 2.043 2.625 4.293 2.457 6.738-.004.027-.016.055-.035.07-.016.441-.059.883-.156 1.34-.203.953-.535 1.871-.859 2.785L129 54.398c-.012.031-.035.051-.066.063l1.809 5.059c.059.559-.297 1.633-.512 2.418-.102.383-.172.699-.145.855.078.41.805.781 1.191.891a1.02 1.02 0 0 0 .148.031l8.215-.598 6.16-.25c.012-.031.016-.062.031-.094.008-.023.027-.035.043-.047.516-1.156.23-2.383-.047-3.562-.246-1.055-.422-2.109-.445-3.195zm13.215-12.777c.027.027.039.07.016.105-.168.23-.355.441-.594.605l-.648.445-1.43 1.031c-.691.531-1.371 1.137-1.785 1.906-.004.887-.105 1.777-.191 2.648l-.562 4.148c-.008.07-.113.07-.109 0l.156-4.148c.078-1.258.266-2.555.133-3.812-.137-1.336-.617-2.66-.98-3.949l-.965-3.984c-.008-.035.027-.055.055-.043-.004-.059 0-.117.012-.176.031-.129.105-.258.152-.379l.281-.773a15.78 15.78 0 0 0 .461-1.574c.254-1.078.363-2.176.551-3.266.012-.074.109-.043.117.016.148 1.125-.012 2.262-.25 3.367a14.67 14.67 0 0 1-.445 1.637 10.68 10.68 0 0 1-.285.77c-.047.121-.09.27-.156.383s-.184.18-.277.27c-.008.012-.023.016-.035.02.492 1.25.863 2.527 1.238 3.824.355 1.246.848 2.508 1.027 3.793l.059.633c.332-.582.813-1.082 1.336-1.508l1.535-1.137c.477-.336.926-.687 1.484-.871l-1.812-3.812c-.684-1.426-1.551-2.789-1.707-3.691s-.734-4.219-1.652-4.777c-.246-.148-.602-.215-1-.238-1.094-.059-2.551.238-3.211.238l-3.133.031s-1.273-1.332-2.047-2.449-1.395-1.055-1.395-1.055-.129 2.098-.691 3.059l.059.035-.012-.043c-.008-.043.055-.059.07-.02a1.1 1.1 0 0 0 .039.121c.223.145.426.32.629.488l.844.738 1.641 1.516.371.391.23.238.039-.41a9.39 9.39 0 0 0 .016-.574l-.035-1.062c-.027-.344-.062-.734 0-1.074.008-.051.086-.055.109-.012.18.34.234.785.266 1.168l.039 1.266-.023.613c-.008.156.02.352-.078.484-.242.34-.613-.035-.812-.207a35.75 35.75 0 0 1-1.887-1.801l-.867-.891-.289-.316 2.137 6.738 1.762 6.477c.473 2.164.551 4.293.328 6.496-.215 2.156-.57 4.328-.41 6.504.137 1.801.941 3.738.184 5.488.004.008.012.016.016.027l5.777-.152h.063c.141.02.875-.363 1.477-.766.289-.191.551-.387.695-.543.445-.477.09-1.398-.297-2.41s-.906-3.02-.602-4.812c0 0 .953 1.113 1.777 1.199 0 0 1.242-2.812 2.195-4.219s4.258-3.766 4.258-3.766-1.777-3.598-2.148-4.137c-.297-.422-.664-.18-.809-.059zm136.871 135.047c-.711.289-1.5.344-2.258.387l-3.078.086c-.793.012-1.582-.02-2.375-.016-.727.008-1.504-.004-2.199.234-.758.262-1.473.668-2.187 1.027-.793.395-1.621.664-2.484.848-1.895.406-3.863.457-5.793.473-1.961.016-3.922-.059-5.859-.375l.285 1.336s3.637.777 6.84.582 6.113-.535 6.598-.922 2.086-1.695 2.766-1.648.871 1.648.871 1.648l8.441-.242s.293-1.164.438-2.812c.012-.152.012-.359-.004-.605zm-19.465 2.43c1.969-.059 3.988-.141 5.879-.742 1.426-.453 2.672-1.492 4.168-1.715 1.555-.234 3.172-.07 4.742-.105l4.621-.285c.008 0 .016.004.023.004-.176-1.965-.852-5.648-1.223-7.578l-6.586 1.391c-1.117.117-5.027.211-6.293.211l-3.57 2.922c-.969.871-2.23 2.375-2.812 2.52s-5.387.535-5.82 1.07c-.238.289-.105 1.395.066 2.355.008-.004.012-.012.023-.012 2.258-.133 4.52.035 6.781-.035zM265.848 56.723c.078.25.184.48.305.688-.203.164-.363.316-.453.445-.672.965-2.055 4.488-1.637 5.414.262.574.934 2.922 1.617 4.73-2.727.516-7.73-.375-9.473-.684-2.023-.359-5.754-2.145-6.508-2.977-.676-.75-1.16-4.789-1.254-5.605 3.07.418 4.414-3.785 4.402-6.164-.004-.625-.074-1.285-.555-1.734-.262-.246-.59-.414-.859-.652-.043-.035-.078-.07-.117-.109.852-.262 1.5-.895 2.449-.949 1.043-.062 2.113.223 3.125.43 1.023.211 2.004.492 2.945.961.883.438 1.703.996 2.664 1.246.109.031.172-.102.105-.18-1.379-1.629-3.77-2.418-5.809-2.75-1.004-.164-2.047-.371-3.062-.219-1.039.152-1.695.82-2.531 1.355l-.539-.516c-.363-.336-.922-.863-1.465-.668-.496.18-.902.734-1.199 1.164-.582-1.297-.68-5.344-.828-6.016-.152-.687-.992-1.473-1.387-2.156s-1.207-2.98-1.668-3.926-.75-3.633-1.535-3.469-.852 2.582-.363 4.09c.387 1.18.91 2.375 1.121 2.836l-.105-.062c-.02-.012-.043-.004-.059.008l-2.008-2.062c-.629-.656-2.285-3.074-2.742-2.848-.402.203-.246 1.297-.207 1.551-.023-.008-.047 0-.062.012-.109-.051-.32-.121-.484.043-.227.227-.195 1.176.133 2.094s1.176 1.832 2.094 2.91c.75.883 1.434 2.141 1.656 2.566l-.07-.012c-.039-.008-.07.02-.078.051-.605-.305-2.266-1.152-2.852-1.656-.719-.621-1.832-2.293-1.996-.883s1.18 3.043 2.16 3.957 2.324 1.637 2.781 2.551.555 3.238 1.016 4.285 2.027 1.309 2.027 1.309l1.074.113c-.105.141-.203.281-.289.438-.098.176-.211.367-.156.578.047.176.188.305.316.418a3.98 3.98 0 0 0 .434.332 12.63 12.63 0 0 0 .883.535c.219.125.457.215.676.34-.137.477-.648 2.313-.957 4.121-.355 2.105-.078 3.059-.711 3.574s-7.699 2.063-11.668 1.902-10.75-2.695-11.238-3.172c-.457-.445-.469-3.531-.465-3.926.02.004.039-.008.043-.031.129-.941.453-1.832.441-2.797-.012-.918-.301-1.723-.727-2.527-.496-.941-1.035-1.859-1.355-2.879-.266-.84-.324-1.695-.262-2.57.117-1.734.641-3.41.965-5.113.152-.805.254-1.613.246-2.434-.004-.375-.016-.758-.094-1.125-.012-.055-.031-.105-.047-.16l-.203-.934-.352-1.559-.754-3.035c-.023-.074-.137-.062-.137.02.004 1.055.137 2.074.32 3.113l.289 1.512c.102.465.191.938.367 1.379a9.35 9.35 0 0 1 .004 1.098c-.051.816-.195 1.629-.355 2.434-.316 1.617-.77 3.227-.852 4.883-.086 1.758.527 3.363 1.34 4.898.48.906 1.004 1.773 1.043 2.828.016.473-.02.945-.031 1.418-.016.512.039 1.027.063 1.539 0 .012.008.023.016.031l-3.301 3.383-4.844 5.672s-6.109-.477-7.539-.91-3.016-3.77-3.254-5.039-.594-2.582.992-6.707c.336-.863.824-1.824 1.402-2.816.207.215.66.539 1.203.883-.113.668-.113 1.328-.098 2.004.016.602.066 1.223.277 1.797.441 1.207 1.723 1.938 2.734 2.633.488.336 1.016.777 1.609.906.578.129 1.098-.129 1.598-.391a14.16 14.16 0 0 0 1.836-1.148c.484-.359.969-.75 1.223-1.312.293-.645.293-1.418.336-2.113.043-.754.184-1.656-.125-2.363-.012-.023-.023-.043-.039-.059.105-.262.176-.527.188-.777.066-1.555-1.992-3.141-2.43-3.949s-1.195-1.832-1.871-2.777c-.277-.383-.707-.715-1.129-.937l1.34-1.738c1.305-1.758 5.754-7.203 6.727-8.781.582-.941.922-2.023 1.547-2.68s1.637-.773 2.293-.863c.578-.078 2.344-.715 4.332-1.23.258-.07.52-.133.785-.195 1.586-.371 3.5-.613 4.527-.727l.086 1.301s.477 1.91 3.121 1.91c1.734 0 6.512-2.488 6.512-2.488l-.039-.52c2.207.793 6.766 3.164 9.098 4.25.539.254.965.438 1.207.52 1.348.434 2.34 1.07 3.016 2.496s4.445 7.422 6.109 10.32c.852 1.48 2.473 4.016 3.957 6.516-.129.863-.145 1.645.051 2.293zm-16.355-20.047c-.414.461-.809.879-1.121 1.426a11.07 11.07 0 0 0-.781 1.676c-.418 1.168-.738 2.418-.574 3.664.012.078.121.109.145.02.305-1.145.492-2.316.898-3.434a15.09 15.09 0 0 1 .699-1.633c.273-.547.512-1.129.82-1.652.031-.055-.043-.113-.086-.066zM208 58.934c.438.664 1.195 1.121 1.832 1.574.535.383 1.18.973 1.832 1.141.699.18 1.559-.496 2.113-.852.617-.391 1.359-.836 1.777-1.453.406-.605.371-1.441.398-2.141.023-.492-.035-1.043-.004-1.566-.715 1.023-1.824 1.902-2.379 2.078-.844.27-2.902-.91-4.117-1.52a27.31 27.31 0 0 1-2.305-1.316c.191.695.246 1.383.324 2.098.07.676.145 1.375.527 1.957zm44.262-5.859c.031-.527.086-1.203-.215-1.668-.277-.426-.828-.715-1.187-1.078-.32-.324-.734-.922-1.172-1.086-.41-.148-.625.039-.937.262-.25.176-.48.367-.699.578.531 1.129-1.91 4.664-2.23 5.121.016.027.027.055.02.082-.043.195-.102.371-.176.555-.031.078-.09.18-.09.266-.004.066.039.105.086.152.219.223.48.395.746.551.27.164.559.305.801.512.234.199.414.43.594.676.004.008.004.016.004.023l.477.43c.027-.082.094-.152.195-.145 2.551.113 3.664-3.176 3.785-5.23zm-40.707-3.32s-.168-.449-.57-1.191c-.184-.332-.449-.715-.672-1.086l-.816 1.086.473.52zm59.934 33.938c.141.055.477.102.82.098.465-.008.953-.102 1.023-.391.02-.082.035-.293.043-.582h-.043c-.129.004-.156-.195-.031-.223.027-.004.055-.008.078-.016.023-1.219-.016-3.418-.035-4.41-.609-.043-1.367-.117-2.07-.242-.012.641-.031 2.262.004 3.125.043 1.09-.125 2.516.211 2.641zm0 0"/></g><path fill="#dd996e" d="M257.711 167.902c-.773.965-2.789 3.262-4.613 3.293-2.309.043-3.754-1.629-3.754-1.629l1.109-5.555-4.285-16.742c-.824-3.137-2.262-10.203-3.062-14.242 3.805-1.301 8.586-4.086 11.266-5.746.285 3.43.785 10.027.844 14.113l.316 20.793a34.52 34.52 0 0 0 1.906 4.84c.086.293.18.582.273.875zm-28.617-36.52l.996 8.988c.617 4.672 2.813 14.246 2.59 15.824s-3.043 5.066-5.07 8.781c0 0 1.465.266 2.844.871s2.551 1.703 2.551 1.703l3.93-3.645s.324-2.109 1.094-3.93 1.352-1.926 1.352-1.926a16.03 16.03 0 0 0 .09.309l-.09-.309 1.633-14.246c.301-2.941.441-7.57.5-10.309-.398.094-.781.164-1.137.203-3.754.414-8.668-1.27-11.281-2.316zm22.789 48.578c-.086 0-.199-.043-.34-.121.141.078.254.121.34.121zm-31.508-9.078c.133-.199.305-.422.504-.652-.199.23-.371.453-.504.652zm19.129-12.398c.027.09.055.195.086.309l-.086-.309zm11.676 21.102a8.15 8.15 0 0 1-.672-.59 8.15 8.15 0 0 0 .672.59zM229.371 23.77c-.469-2.051-.469-4.687-.469-7.496 0-3.352.953-5.609 2.555-6.625 0 0 6.691 1.594 7.281 2.18s.699 1.977 1.355 3.578 2.027 2.617 2.027 2.617.523-1.012 1.898-1.504c.926-.328 1.879-.125 2.492.613.301.359.52.84.617 1.449.043.293.051.582.027.867-.121 1.539-1.164 2.922-2.352 3.418-1.406.59-2.355.031-2.355.031l-.395 1.441c-.027.453.254 4.531.355 5.988l.039.52s-4.777 2.488-6.512 2.488c-2.645 0-3.121-1.91-3.121-1.91l-.086-1.301-.109-1.676c.324.031.645.055.988.039a9.04 9.04 0 0 0 1.297-.156c.789-.148 1.559-.379 2.297-.695a12.66 12.66 0 0 0 1.902-1.008c.539-.352 1.043-.73 1.363-1.301.039-.066-.023-.164-.105-.137-.566.191-1.039.527-1.539.852-.574.367-1.18.695-1.805.965-.691.297-1.414.535-2.148.707-.414.098-.84.176-1.262.25l-1.18.203c-.176-.012-.473-.062-.832-.242-.574-.289-1.711-2.039-2.195-4.039-.012-.039-.023-.078-.031-.117zm7.016-6.289c-.023-.211-.074-.414-.16-.609-.043-.094-.094-.195-.191-.246-.09-.051-.195-.043-.281.004a.39.39 0 0 0-.18.148c-.09.152-.113.363-.125.535-.016.199 0 .402.047.598s.113.422.332.477c.227.055.426-.098.508-.301.074-.184.074-.41.051-.605zm-1.324-3.195c.492.078.961.262 1.391.512a3.09 3.09 0 0 1 .563.418c.102.09.199.188.309.266.102.07.23.113.344.172.105.055.219-.035.195-.152-.027-.125-.055-.277-.117-.391-.074-.121-.191-.234-.301-.324-.223-.18-.457-.34-.711-.473a3.55 3.55 0 0 0-1.625-.367c-.187.004-.246.313-.047.34zm-1.828 8.391c-.809.16-2.066.051-2.047.223.125 1.012 1.297 2.23 2.695 1.703 2.313-.871 2.473-2.715 2.313-2.777s-2.148.688-2.961.852zm-1.027-6.168l-1.137 1.379c-.176.215-.34.441-.512.66-.16.215-.34.422-.457.664-.223.465-.121.918.297 1.223.207.152.441.27.664.398.258.152.531.363.828.426.262.055.469-.258.266-.465-.164-.168-.395-.262-.605-.375l-.668-.363c-.137-.078-.328-.172-.348-.348-.02-.195.137-.406.242-.555l1.688-2.445c.098-.152-.137-.34-.258-.199zm-1.586 1.605c.207.059.375-.102.449-.277a1.22 1.22 0 0 0 .074-.555c-.016-.203-.066-.398-.16-.578-.051-.094-.109-.184-.211-.219-.02-.008-.039-.008-.059-.012-.02-.023-.047-.035-.082-.039-.074-.004-.133.055-.164.117-.004.012-.004.023-.008.035-.074.09-.098.203-.098.324-.016.078-.027.16-.039.238-.031.301-.09.855.297.965zm-1.207-3.148c.051-.008.098-.012.145-.023.063-.016.121-.051.176-.078.102-.047.18-.113.27-.176a3.5 3.5 0 0 1 .605-.332c.375-.164.832-.242 1.25-.242.262 0 .332-.406.066-.465a2.36 2.36 0 0 0-.793-.055c-.262.035-.52.09-.766.188s-.477.219-.691.383c-.125.094-.234.184-.316.324-.07.117-.094.227-.102.359-.004.086.082.133.156.117zm1.285 2.82zm.004 0zm0 0zm14.914 37.453c.016-.02.027-.039.043-.059.051-.062.125-.031.16.023.32-.457 2.766-3.992 2.23-5.121-.055.051-.141-.012-.098-.066.012-.023.027-.047.043-.066-.578-1.297-.676-5.344-.824-6.016-.152-.684-.992-1.469-1.387-2.156s-1.211-2.977-1.668-3.926-.754-3.633-1.539-3.469-.848 2.582-.359 4.09c.387 1.18.91 2.375 1.117 2.84a10.27 10.27 0 0 1 .887.59c.305.223.582.492.867.742.133.117.254.227.352.375l.27.387c.172.254.324.523.422.82.027.074-.09.121-.125.051a2.5 2.5 0 0 0-.586-.766c-.117-.105-.246-.18-.371-.266s-.238-.211-.352-.312c-.277-.254-.574-.492-.828-.77s-.492-.543-.711-.844c-.02-.027-.008-.051.016-.066l-2.012-2.062c-.625-.656-2.281-3.074-2.738-2.848-.406.203-.25 1.297-.207 1.551.727.324 1.223.859 1.691 1.473.555.723 1.148 1.422 1.762 2.098.598.664 1.227 1.297 1.879 1.902.582.535 1.145 1.039 1.375 1.82.039.137-.16.184-.211.059-.164-.41-.508-.715-.84-.992-.305-.25-.602-.512-.895-.777-.609-.559-1.195-1.141-1.754-1.75s-1.086-1.246-1.586-1.902c-.465-.609-.852-1.344-1.48-1.801-.047-.035-.039-.086-.004-.117-.109-.051-.32-.121-.484.043-.23.227-.195 1.176.133 2.094s1.176 1.832 2.09 2.91c.75.883 1.434 2.141 1.66 2.566.105.016.215.031.316.07l.352.152a5.02 5.02 0 0 1 .648.324c.113.07.176.164.254.266.07.09.156.164.227.254a3.36 3.36 0 0 1 .199.266c.059.086.129.172.16.273.012.047-.043.094-.09.066-.09-.055-.152-.148-.223-.227s-.148-.156-.227-.227-.156-.152-.258-.187c-.113-.039-.215-.07-.32-.129-.215-.117-.422-.234-.629-.367-.102-.062-.207-.121-.301-.195-.09-.066-.168-.16-.242-.242-.02-.02-.02-.039-.016-.059-.605-.301-2.266-1.152-2.852-1.656-.719-.621-1.832-2.289-1.996-.883s1.18 3.043 2.16 3.957 2.324 1.637 2.781 2.555.555 3.238 1.012 4.285 2.031 1.309 2.031 1.309zm-41.918-6.289l-.211-.73-.035-.117-.121-.035c-.098-.031-.195-.059-.289-.105a4.44 4.44 0 0 0-.543-.23 4.33 4.33 0 0 0-1.195-.258c-.078-.004-.109-.066-.105-.125-.156.07-.539.262-.539.488 0 .445 1.355 1.48 2.051 1.992.789.582 1.609 1.387 2.035 1.824-.18-.32-.309-.672-.449-1.008a16.15 16.15 0 0 1-.598-1.695zm8.609-1.672c-.277-.383-.707-.715-1.129-.937-.609-.32-1.207-.406-1.285-.066-.074.316.141.754.414 1.203.227.371.492.75.672 1.086.406.742.574 1.191.574 1.191l-1.586-.672-.473-.52-1.863-2.086c-1.453-1.66-3.039-2.125-3.375-1.754s.844 1.617 1.449 2.227c.48.477 1.25 1.582 1.555 2.031l1.219.504c.211.086.418.176.625.273l.313.145c.121.055.18.121.234.238.039.082.008.168-.078.195-.129.043-.223.043-.352-.016l-.312-.145a5.64 5.64 0 0 1-.605-.328c-.391-.238-.75-.504-1.105-.789-.008-.008-.012-.02-.012-.027l-2.66-1.879c-.945-.676-2.93-.93-3.41-.34-.113.145.047.375.117.465a.13.13 0 0 1 .07-.031c.43-.023.879.008 1.297.121a4.08 4.08 0 0 1 .629.238c.047.023.094.051.145.086 0-.008-.004-.02-.004-.031.012-.332.285-.473.578-.512.813-.109 1.434.668 1.828 1.27a6.09 6.09 0 0 1 .551 1.063 7.36 7.36 0 0 1 .512.285c.234.145.457.301.684.461.234.16.48.293.719.445.23.152.445.309.645.5.055.055.008.129-.055.137-.305.039-.582-.023-.863-.145-.258-.113-.5-.293-.727-.453a5.73 5.73 0 0 1-.687-.578c.074.246.148.496.238.738.156.414.418.754.758 1.031.168.137.34.254.508.383 1.266.434 2.668.43 3.977.609.734.102 1.363.32 1.879.871.508.543.777 1.133.938 1.852.02.098-.098.137-.156.063-.23-.305-.492-.586-.742-.879-.234-.27-.441-.566-.711-.805-.566-.496-1.426-.508-2.133-.574-.937-.086-1.879-.152-2.684-.547-.77-.098-1.512-.637-1.926-1.281-.207-.32-.312-.699-.422-1.059-.109-.379-.242-.75-.379-1.117-.258-.695-.633-1.684-1.387-1.977-.227-.09-.676-.105-.625.254.027.195.16.398.238.574.18.402.359.801.516 1.211a22.48 22.48 0 0 1 .465 1.336c.129.41.266.816.254 1.246 0 .035-.031.063-.066.063.129.383.465 1.359.684 1.711.02.031.051.07.09.109.207.215.66.539 1.199.887.004-.02.004-.035.008-.055s.043-.02.047 0c.012.035.016.07.027.105.758.48 1.668.996 2.305 1.316 1.215.605 3.277 1.789 4.121 1.516.555-.176 1.66-1.055 2.375-2.078.016-.262.051-.516.133-.746.047-.129.238-.207.34-.105.105-.266.176-.527.188-.781.066-1.555-1.992-3.141-2.43-3.949s-1.195-1.832-1.871-2.777zm0 0"/><path fill="#5f00f8" d="M118.957 57.047l1.133-4.879c.25-1.164.641-5.738 1.016-10H78.527a1.66 1.66 0 0 0-1.617 1.289l-4.227 18.48-1.227 5.359H54.465c-.359 0-.48.48-.164.648l15.074 8.082c.027.016.055.016.082.02l-.004.023h46.535l.41-4.855c.281-2.996.746-6.199 1.023-7.988-.141-.055-.234-.105-.254-.137-.121-.238-.203-5.418 0-5.711.348-.504 1.789-.332 1.789-.332zm-19.609 7.199a4.26 4.26 0 0 1-4.258-4.258 4.26 4.26 0 0 1 4.258-4.258 4.26 4.26 0 0 1 4.258 4.258 4.26 4.26 0 0 1-4.258 4.258zm56.988 10.598c.352 1.457 1.324 6.91 2.453 13.574l.691 4.113.234 1.41 3.883 25.305c.832 7.379 5.594 40.945 5.594 40.945s-.254.152-.762.34c-.59.219-1.527.484-2.809.613-1.34.133-4.82.172-7.598.176-2.156.004-3.895-.012-3.895-.012l-4.25-36.141c-.664-4.145-3.48-19.738-4.125-23.043.18-1.816.023-3.668-.039-5.488l-.109-3.297-.246-5.598c-.105-1.906-.266-3.801-.52-5.695.875-.105 1.828-.211 2.66-.516.75-.27.641-.937.602-1.613-.117-1.918-.324-3.824-.539-5.73l-.684-5.805-.219-1.969c2.141-.141 4.273-.332 6.391-.566.094-.012.152-.07.18-.141 1.055 2.746 2.523 6.738 3.105 9.137zm-9.922-10.809c-.035-.395-.016-.828-.203-1.18l5.777-.152h.063l1.078 2.738c-.023-.008-.047-.012-.078-.008-2.145.219-4.293.391-6.445.516l-.059-.539-.133-1.375zm-7.441 98.219c-2.676-.156-5.055-.383-5.055-.383l-2.652-30.738-3.316-32.051-.508-6.551-.207-4.113c-.172-4.633-.102-8.859.441-11.289.738-3.27 2.711-10.305 3.602-13.445a1.14 1.14 0 0 0 .148.031l8.215-.594c.891-.07 3.539-.168 6.16-.254-.113.316-.078.629-.051.973l.113 1.371.074.777-4.008.172c-3.715.102-7.43.016-11.145-.039-.098-.004-.094.137 0 .148 5.027.492 10.129.496 15.199.188l.129 1.328.625 5.305.59 5.266.141 1.367c.035.355.238 1.012-.117 1.273-.27.199-.926.262-1.25.336a19.73 19.73 0 0 1-1.34.254c-.168.023-.203.223-.137.352-.156 4.75.234 9.535.434 14.285.086 2 .066 4.047.438 6.02.02.098.109.105.176.066l1.738 22.414c.594 6.188 2.492 36.172 2.492 36.172s-.336.199-.965.457c-.746.309-1.906.699-3.418.934-1.336.203-4.07.117-6.547-.031zM123.344 22.313s-2.949-1.668-2.32-4.605c.594-2.777 4.086-3.094 4.086-3.094s-.992-2.777.438-4.363c1.48-1.652 3.926-.836 3.926-.836s-.355-3.133 2.063-4.246 5 .953 5 .953 1.59-2.184 3.809-1.785 2.422 3.055 2.422 3.055 2.863-1.07 4.523.754c1.586 1.746.316 4.207.316 4.207s2.539.594 2.992 2.969c.426 2.219-1.406 3.734-1.406 3.734s2.66.438 3.059 3.531c.273 2.145-2.105 3.098-2.105 3.098s2.5 1.387 2.777 3.094c.105.641-.187 1.301-.598 1.875-1.094-.059-2.551.238-3.211.238l-3.133.031s-1.273-1.332-2.047-2.449-1.395-1.055-1.395-1.055l-.125-.629s1.375-.098 2.004-.551c.695-.504 1.438-3.793 1.344-7.687s-1.203-6.508-1.203-6.508-.91.012-2.16-.273-2.309-1.23-2.309-1.23-.285 1.43-1.609 2.109-2.719-.07-2.719-.07.25 1.535-.32 2.465-1.789 1.504-1.789 1.504c-1.18-.824-3.254-.145-3.395 1.68s.785 3.613 2.035 4.254 2.828.324 2.828.324v.137c.168.227.367.414.547.633l.523.656c.156.191.301.383.504.527.195.145.418.238.645.324 1.047.41 2.09.82 3.16 1.164.063.02.051.117-.016.117-1.207-.023-2.469-.227-3.578-.723-.512-.227-.945-.578-1.238-1.062-.152-.254-.301-.523-.414-.797-.051-.125-.094-.254-.133-.383v3.488s-1.055.902-1.695 1.504l-.984.941s-2.445.02-3.828-.059-3.672-.301-4.629.461a1.07 1.07 0 0 0-.168.16c-1.289-.398-2.797-1.18-3.141-2.707-.812-3.613 2.668-4.875 2.668-4.875zm15.387-.738c.457.035 4.777.563 4.777.563.297.172-1.125 2.07-2.637 1.941-2.113-.184-2.598-2.539-2.141-2.504zM183.699 169c-.008.012-.02.02-.027.031-.348.449-.961.641-1.477.82a20.02 20.02 0 0 1-2.379.652c-1.488.324-2.996.391-4.516.402-1.789.008-3.582-.336-5.359-.531-1.719-.191-3.469-.316-5.172-.648.074.211.109.43.137.652.039.344-.027.613-.098.941-.016.066-.051.078-.086.074s-.059-.023-.07-.055c-.004-.008-.004-.012-.008-.02-.023-.059-.043-.113-.062-.168-.258.059-.516.109-.777.156-.617.109-1.242.195-1.863.281-.867.117-1.742.27-2.617.344-1.645.141-3.316.301-4.969.215-1.762-.086-3.512-.41-5.227-.824-.844-.207-1.68-.465-2.539-.602-.883-.137-1.773-.105-2.664-.074-1.711.059-3.559.031-5.199-.516-.008-.004-.016-.004-.02-.008-.07-.023-.066-.129.004-.141 1.039.059 2.051.211 3.078.234.977.023 1.945-.055 2.922-.125.82-.059 1.629-.059 2.438.098.859.168 1.699.414 2.551.605 1.738.391 3.488.715 5.27.816.852.051 1.699.023 2.551.012.824-.012 1.629-.012 2.449-.133l1.613-.258c.965-.156 1.938-.301 2.91-.375a3.32 3.32 0 0 1-.074-.426c-.035-.312-.102-.648-.305-.902-.434-.539-1.27-.633-1.91-.695-1.504-.152-3.004-.027-4.453-.516-.035-.016-.074-.023-.109-.035-.102-.039-.07-.168.027-.168a.28.28 0 0 1 .066.004c1.73.316 3.52-.008 5.246.316.656.125 1.363.414 1.688 1.039 1.719-.117 3.469.055 5.172.25 1.73.195 3.469.582 5.211.66 1.559.066 3.117.02 4.637-.359a22.64 22.64 0 0 0 2.199-.668c.543-.203 1.098-.523 1.68-.586.117 0 .195.141.133.227zm-56.41-110.832a13.48 13.48 0 0 0-1.262-.207c-.793-.09-1.594-.125-2.391-.148-1.566-.043-3.25-.016-4.727-.578-.082-.031-.074-.156.02-.156l4.965.141a25.7 25.7 0 0 1 2.387.172c.645.082 1.641.109 2.102.625.031.035.043.082.035.129-.012.063-.047.102-.102.117-.363.09-.668-.016-1.027-.094zm3.156-10.062c.578-1.449 1.262-2.988 1.469-4.566-.504-2.352-1.613-4.398-2.785-6.477l-1.836-3.258c-.574-.984-1.316-1.863-1.871-2.852-.035-.059.031-.129.094-.094.973.566 1.633 1.652 2.219 2.582.699 1.113 1.32 2.27 1.965 3.41 1.152 2.043 2.629 4.293 2.457 6.734 0 .031-.016.055-.031.074a7.64 7.64 0 0 1-.16 1.34c-.203.953-.531 1.867-.855 2.785-.773 2.184-1.34 4.434-2.105 6.613-.012.035-.039.055-.066.063-.02.008-.035.012-.051.012-.055 0-.105-.035-.098-.102.211-2.141.863-4.273 1.656-6.266zm22.152-12.863c.258-1.074.363-2.176.551-3.266.016-.074.109-.043.117.016.148 1.125-.008 2.266-.246 3.367a16.95 16.95 0 0 1-.445 1.641c-.086.258-.184.516-.285.77-.051.117-.09.266-.16.379s-.18.18-.273.27c-.012.012-.023.016-.039.02.496 1.254.867 2.527 1.238 3.824.355 1.246.848 2.508 1.027 3.793.031.211.047.422.059.633.332-.582.816-1.082 1.34-1.508.492-.402 1.012-.773 1.531-1.137.477-.336.93-.687 1.484-.871.047-.02.082-.004.102.02.027.027.039.07.016.105-.168.23-.355.441-.594.605l-.645.445c-.488.332-.969.672-1.434 1.031-.691.531-1.371 1.137-1.785 1.906-.004.887-.105 1.777-.187 2.648-.137 1.391-.434 2.758-.566 4.148-.008.07-.113.07-.109 0 .121-1.379.074-2.766.156-4.148.078-1.258.266-2.555.133-3.812-.137-1.336-.613-2.66-.98-3.949-.375-1.324-.738-2.625-.965-3.984-.008-.035.027-.055.055-.043-.004-.059 0-.117.012-.176.031-.129.105-.258.152-.379.102-.258.191-.516.281-.773a15.48 15.48 0 0 0 .461-1.574zm-6.723 27.484c.516-1.152.234-2.379-.043-3.562-.25-1.055-.426-2.109-.449-3.195-.051-2.117.383-4.215.512-6.32.137-2.187-.18-4.285-.723-6.398s-1.184-4.207-1.75-6.316c-.535-2.004-.992-4.023-1.434-6.051-.078-.098-.152-.199-.219-.305-.004.016 0 .027-.008.043-.324.566-.727 1.074-1.02 1.664-.309.625-.559 1.277-.797 1.934-.105.289-.172.973-.543 1.059-.219.047-.48-.125-.68-.199a6.81 6.81 0 0 1-.801-.336c-1.078-.551-2.059-1.445-2.891-2.316-.902-.949-1.734-1.973-2.559-2.988-.062-.078.039-.187.109-.113 1.574 1.727 3.195 3.414 5.152 4.711l.742.496c.211.145.527.426.797.402.164.059.246-.008.246-.203.027-.07.051-.145.074-.215l.113-.363.293-.867c.34-.961.758-2.152 1.551-2.828.047-.039.102-.035.145-.016.004-.023.023-.039.047-.027.035.02.066.043.102.063a.28.28 0 0 1 .059.031c0-.012-.004-.027-.008-.039-.008-.043.055-.062.066-.02s.027.078.043.117c.219.148.422.324.629.492.285.238.566.484.84.738.551.496 1.129.977 1.645 1.516l.371.391.227.238.043-.414.016-.57c0-.355-.012-.711-.039-1.066-.023-.34-.059-.73 0-1.07.012-.051.086-.059.109-.016.184.344.238.789.266 1.168a12.53 12.53 0 0 1 .039 1.27c-.004.203-.016.41-.023.613-.004.156.023.348-.074.484-.242.336-.613-.035-.816-.211-.656-.57-1.27-1.18-1.887-1.801-.289-.293-.586-.582-.863-.887l-.293-.316c.766 2.23 1.5 4.465 2.141 6.738.605 2.148 1.285 4.293 1.762 6.477.469 2.164.547 4.293.328 6.492-.215 2.16-.57 4.332-.41 6.508.137 1.801.941 3.738.184 5.488-.012-.02-.02-.039-.031-.055-.059-.094-.203-.121-.289-.047zm43.43-17.703c-.031-.023-.066-.039-.098-.059.016-.059.004-.129-.008-.187-.012-.086-.027-.172-.07-.25a2.32 2.32 0 0 0-.305-.422c-.121-.141-.273-.246-.422-.348-.035-.023-.074-.043-.105-.066l-.207-.129c0-.039.004-.074-.004-.109-.043-.266-.281-.484-.543-.582-.027-.012-.059-.016-.09-.023-.473-.152-.965-.16-1.441-.066-.07-.031-.145-.055-.215-.086-.211-.078-.418-.16-.633-.227-.398-.125-.805-.234-1.211-.324-.824-.191-1.672-.328-2.52-.273-.074.004-.098.117-.02.137.816.172 1.641.277 2.453.449.41.086.813.191 1.215.309l.48.133a5.22 5.22 0 0 0-.898.383c-.484-.062-.977-.086-1.457-.07-.324.008-.648.023-.977.047a4.93 4.93 0 0 0-.953.172c-.078.02-.059.129.02.133.328.023.641.039.973.023a25.03 25.03 0 0 1 .938-.027c.328-.004.656-.012.984-.027-.781.422-1.574.871-2.273 1.41-.07.023-.137.047-.203.059-.312.051-.777-.48-1-.691-.645-.605-.996-1.434-1.695-2-1.25-1.016-3.367-1.426-4.547-.09-.086.098-.004.297.141.238.82-.324 1.777-.516 2.648-.297.848.211 1.598.754 2.156 1.418.543.645 1.035 1.285 1.82 1.668.223.109.375.145.59.02.031-.016.059-.039.09-.059.82-.328 1.574-.805 2.34-1.246.801-.461 1.637-.957 2.598-.844.191.023.523.066.672.207.285.277-.098.395-.293.496a15.11 15.11 0 0 0-1.027.609 9.4 9.4 0 0 0-.984.727c-.328.273-.59.598-.863.926-.027.031-.023.07-.004.098s.055.039.094.016c.027-.012.051-.027.078-.043.441-.238.863-.469 1.273-.762l1.199-.844 1.457.457c.219.074.434.168.641.273.102.051.199.113.301.164.129.059.262.105.391.168.035.008.066-.02.047-.047a2.32 2.32 0 0 0-.531-.539zm-.668-.34c-.293-.094-.594-.176-.891-.246a3.97 3.97 0 0 0-.43-.082c.273-.148.582-.312.711-.566.059.055.121.105.176.16.125.121.234.25.355.367.109.105.207.219.293.348.039.059.09.109.137.164a2.01 2.01 0 0 0-.352-.145zm-76.039 40.754c-.523.32-1.215.332-1.805.426l-1.949.305c-1.176.188-2.402.309-3.523.719-.082.031-.125-.043-.117-.109.008-.027.016-.051.043-.07.02-.016.043-.027.066-.039.996-.676 2.238-.777 3.402-.965l1.945-.32c.605-.098 1.297-.312 1.906-.168.105.023.117.172.031.223zm29.863-69.121c.203.461.477.91.754 1.328.266.398.605.781.813 1.219.113.238.152.465.039.711-.094.215-.25.371-.426.527l-.582.508c-.172.145-.348.348-.59.293-.074-.02-.145-.102-.137-.184.02-.242.238-.336.414-.477a5.2 5.2 0 0 0 .488-.437 3.38 3.38 0 0 0 .227-.246c.07-.09.074-.137.047-.246-.047-.203-.168-.367-.281-.539-.254-.375-.48-.766-.672-1.18-.184-.391-.281-.781-.332-1.211-.016-.125.191-.18.238-.066zm-2.645.531c.043.145.066.293.078.441s.004.301-.02.449c-.023.168-.086.344-.266.398-.363.109-.57-.344-.641-.625-.031-.137-.051-.281-.043-.422s.031-.293.129-.406c.008-.008.02-.016.027-.023.02-.102.059-.187.148-.25.102-.066.234-.059.336 0 .148.086.203.281.25.438zm4.672-.125a2.17 2.17 0 0 1 .137.758c0 .121-.012.238-.031.355s-.07.242-.176.309c-.133.082-.297.047-.391-.074-.07-.09-.098-.219-.121-.328a2.21 2.21 0 0 1-.062-.68c.008-.129.051-.352.199-.383a.52.52 0 0 1 .117-.09c.137-.07.273-.008.328.133zm-4.27-2.43a2.91 2.91 0 0 0-1.395.262c-.207.102-.43.234-.594.375-.109.094-.223.164-.34.246-.094.066-.207.109-.309.168-.055.031-.137-.012-.133-.078.008-.148.023-.289.086-.426s.133-.258.242-.359c.219-.203.465-.375.738-.492.289-.129.586-.207.898-.246.285-.031.594.031.863.113.23.07.199.453-.059.438zm4.539 1.047c-.105-.074-.211-.164-.305-.258a2.14 2.14 0 0 0-.141-.125c-.012-.012-.016-.012-.02-.016-.023-.016-.043-.031-.066-.047a2.37 2.37 0 0 0-.305-.176c-.102-.047-.195-.098-.273-.125-.109-.043-.223-.074-.332-.105-.062-.02-.125-.023-.18-.059-.031-.023-.055-.035-.094-.043-.016-.316.391-.352.617-.34a1.85 1.85 0 0 1 .859.246c.273.156.566.371.68.672a1.81 1.81 0 0 1 .102.379c.02.121.047.266.02.387-.012.051-.074.063-.105.031-.086-.078-.148-.172-.23-.25-.074-.066-.141-.117-.227-.172zm145.543 149.512c-.094-2.711-.316-5.426-.5-8.133l-.559-8.016-1.164-15.797-.969-15.812-.609-16.5c-.312-6.137-.785-12.328-2.086-18.344a.24.24 0 0 0-.039-.09l2.773-.16 2.301-.152c.289-.023.586-.031.879-.055.395-.035.781-.105 1.133-.289l-.012.258s1.301 5.512 2.016 9.32.715 10.594.477 15.355l-1.547 30.711c.234 2.145 1.785 12.617 1.785 16.547 0 3.676.379 9.852.426 10.637l-4.305.52zm5.266-.027c.102.305.613 4.871 0 5.074-.156.055-.664.184-1.352.348-2.023.488-5.621 1.289-6.586 1.391-1.117.117-5.027.211-6.293.211-.203 0-.34 0-.383-.008-.344-.031-1.332-5.297-1.332-5.297l.547-.434c.012.012.023.023.043.023 2.684.074 5.371-.207 8.043-.469 2.16-.207 4.332-.422 6.379-1.168.031-.012.047-.039.055-.07.203.031.793.145.879.398zm-22.234-81.426c.02-.082.035-.293.043-.582 3.086-.105 6.168-.379 9.25-.555l1.422-.082c-.039.047-.066.109-.051.188.887 5.5 1.445 11.027 1.73 16.59.281 5.461.367 10.93.547 16.395.352 10.508 1.238 21 2.129 31.473l.75 8.984.73 9.098-1.809.207c-2.629.277-5.277.395-7.871.902l-5.227-43.109-2.652-36.426-.012-2.691c.461-.008.949-.102 1.02-.391zm17.137-2.391a4.38 4.38 0 0 0 0-.32c-.008-.312-.004-.625-.02-.934a13.57 13.57 0 0 0-.234-1.863l.984-.027c.102-.004.195-.016.285-.027.043 1.141.012 2.512-.012 3.297-.32-.113-.66-.137-1.004-.125zm-13.973-2.828c-.043.344-.082.688-.062 1.039l.066 1.043.102 1.043c.02.227.023.5.082.738-1.109.133-2.211.305-3.305.535.023-1.219-.016-3.418-.035-4.414l.617.035c.289.008 1.23 0 2.535-.02zm1.27-.023c-.07.684-.074 1.355-.02 2.039.027.344.074.684.121 1.023.027.207.043.461.098.688l-.773.078c.016-.25-.043-.527-.066-.762l-.098-1.043c-.039-.34-.094-.684-.137-1.023s-.148-.656-.254-.98l1.129-.02zm12.238-.262c-.082.617-.129 1.234-.121 1.859.008.313.027.621.039.934a5.67 5.67 0 0 0 .023.363l-.695.07c-.078.004-.152.012-.23.016.02-.141.016-.289.016-.437 0-.316-.004-.633-.035-.949-.066-.621-.184-1.219-.34-1.824l1.344-.031zm-1.484.035l-.008 1.816c.004.309.02.613.027.918.008.168.004.34.031.504l-1.52.113-4.621.293-3.895.277c-.008-.227-.066-.461-.094-.672l-.137-1.062c-.09-.66-.187-1.312-.316-1.965l10.531-.223zm-41.363-58.48a38.44 38.44 0 0 0 2.504 2.773c2.035 2.031 3.625 5.34 3.625 8.008 0 2.211-.84 3.547-1.777 4.352-2.332-1.09-6.891-3.461-9.098-4.254l-.355-5.988.395-1.441s.949.559 2.355-.031c1.188-.496 2.23-1.879 2.352-3.418zm-8.418-7.621c-.59-.586-7.281-2.18-7.281-2.18 1.738-1.605 5.879-2.645 8.477-2.43 3.879.316 5.848 4.664 6.355 7.5.195 1.078.242 1.859.223 2.414-.613-.738-1.566-.945-2.492-.613-1.375.492-1.898 1.504-1.898 1.504s-1.375-1.012-2.027-2.617-.766-2.988-1.355-3.578zm-11.32 19.219c-.43-.773-.699-1.574-.582-2.277.258-1.543 1.672-3.664 2.566-4.883.484 2 1.621 3.75 2.191 4.039.363.18.66.23.836.242.395-.059.793-.137 1.18-.203.422-.074.844-.152 1.262-.25.73-.172 1.457-.41 2.145-.707.629-.27 1.23-.598 1.805-.965.5-.324.973-.66 1.543-.852.082-.027.145.07.105.137-.32.57-.824.949-1.367 1.301-.602.391-1.238.727-1.898 1.008-.742.316-1.508.547-2.297.695a9.04 9.04 0 0 1-1.297.156c-.344.016-.664-.008-.992-.039l.113 1.676c-1.027.113-2.941.355-4.527.727l-.785.195zm71.063-9.555c-1.078 1.809-5.973 6.324-5.973 6.324l-.926-.684a1.21 1.21 0 0 1-.242.051c-.363.043-.73-.004-1.078-.117-.812 1.512-2.305 2.93-4.059 3.117-.066.008-.09-.098-.035-.129.75-.406 1.531-.824 2.176-1.383.66-.566 1.199-1.254 1.586-2.027.047-.09.184-.152.277-.113.625.262 1.363.227 1.996.004.996-.488 2.488-1.41 2.781-2.66.445-1.906-1.207-3.879-3.879-2.926l.762-3.875s.766-.637 1.148-.891-1.586-1.57-3.242-2.289c-1.914-.828-4.578-1.02-4.578-1.02 0-.254-1.652-2.141-.277-2.855 1.219-.633 5.566.793 8.625 2.344 2.496 1.262 5.598 3.371 4.168 5.711 0 0 1.852 1.609.77 3.418zm-90.059 31.383c-.766-.098-1.508-.637-1.922-1.281-.207-.324-.312-.699-.418-1.059a18.02 18.02 0 0 0-.383-1.121c-.258-.691-.633-1.68-1.387-1.973-.227-.09-.676-.105-.625.254.031.191.16.398.242.574.176.398.355.797.512 1.211.168.441.324.883.469 1.336.125.406.262.813.25 1.246 0 .035-.031.063-.066.063-.016 0-.031-.004-.043-.02a2.36 2.36 0 0 1-.305-.453c-.176-.32-.305-.672-.449-1.008a16.15 16.15 0 0 1-.598-1.695l-.207-.73-.035-.117c-.043-.012-.082-.023-.121-.035-.102-.031-.195-.059-.289-.105-.176-.09-.359-.164-.547-.23a4.3 4.3 0 0 0-1.195-.258c-.078-.004-.109-.066-.105-.125.004-.027.016-.051.035-.07s.039-.031.07-.031c.43-.027.879.008 1.297.121a4.08 4.08 0 0 1 .629.238c.047.02.098.051.145.086v-.031c.008-.332.281-.473.574-.512.813-.109 1.434.668 1.828 1.27.223.332.402.691.551 1.063.172.09.348.18.512.285.234.145.457.301.684.457.234.164.484.293.719.449s.445.309.645.5c.055.055.008.129-.055.137-.305.039-.582-.023-.859-.145-.262-.113-.504-.293-.73-.457-.246-.176-.473-.363-.687-.574.074.246.148.492.242.738a2.41 2.41 0 0 0 .754 1.031c.168.137.34.254.508.383 1.266.434 2.668.43 3.977.609.734.102 1.363.316 1.879.871.508.543.777 1.129.938 1.848.023.098-.098.141-.152.066-.234-.305-.496-.586-.746-.879-.234-.27-.441-.566-.711-.805-.566-.496-1.422-.512-2.133-.574-.937-.086-1.875-.156-2.684-.547zm-1.223-3.82c-.008-.004-.012-.016-.012-.023-.004-.035.027-.07.063-.059l1.23.512c.211.086.418.176.625.273.105.047.207.098.313.145.121.055.18.121.234.238.039.082.008.168-.078.195-.129.043-.223.043-.352-.016l-.312-.145a5.64 5.64 0 0 1-.605-.328c-.391-.238-.75-.504-1.105-.793zm9.262 5.785c.309.707.168 1.609.125 2.363-.043.695-.043 1.469-.336 2.113-.254.563-.738.953-1.223 1.313a14.16 14.16 0 0 1-1.836 1.148c-.5.262-1.02.52-1.598.391-.594-.129-1.121-.57-1.609-.906-1.012-.695-2.293-1.422-2.734-2.633-.211-.574-.262-1.195-.277-1.797-.016-.676-.016-1.332.098-2 0-.02.004-.035.004-.055s.043-.02.051 0l.023.105c.191.691.246 1.379.324 2.094.07.68.145 1.375.527 1.957.441.664 1.195 1.121 1.832 1.574.539.383 1.18.977 1.832 1.141.699.18 1.559-.496 2.113-.848.617-.395 1.359-.836 1.777-1.457.406-.605.371-1.441.398-2.141.023-.488-.035-1.043-.004-1.566.016-.262.051-.516.133-.746.047-.129.238-.207.34-.105.016.012.027.031.039.055zm4.859-.293c-.812-1.535-1.426-3.141-1.34-4.898.082-1.656.531-3.266.852-4.883.16-.805.305-1.617.355-2.434.023-.371.012-.73-.004-1.098-.176-.441-.266-.914-.371-1.379-.109-.5-.199-1.008-.289-1.512-.18-1.039-.316-2.059-.316-3.113 0-.082.113-.094.137-.02.309 1 .527 2.012.75 3.035l.355 1.559c.066.313.148.621.203.934.016.055.035.105.047.16.078.367.09.75.094 1.125.008.82-.098 1.629-.25 2.434-.32 1.699-.844 3.379-.961 5.113-.062.875-.008 1.73.258 2.57.324 1.02.859 1.938 1.359 2.879.426.805.715 1.609.727 2.527.012.965-.312 1.855-.441 2.797-.004.023-.023.035-.043.031-.012 0-.023-.004-.031-.016-.008-.004-.016-.016-.016-.027-.023-.512-.078-1.031-.066-1.543.016-.469.051-.945.031-1.414-.035-1.055-.559-1.922-1.039-2.828zm22.23-7.695c.059.086.129.172.16.273.012.051-.043.094-.086.066-.094-.055-.156-.148-.227-.223-.074-.082-.148-.156-.227-.23s-.156-.152-.258-.187c-.113-.039-.215-.07-.32-.129-.215-.117-.422-.234-.629-.363-.102-.066-.207-.125-.301-.195s-.164-.164-.242-.246c-.02-.02-.02-.039-.016-.059.008-.031.039-.055.078-.051l.07.012c.105.016.219.031.316.074.117.047.234.098.352.148a5.02 5.02 0 0 1 .648.324c.113.07.176.164.254.266.07.09.156.164.227.254s.137.176.199.266zm1.375-1.664c.039.137-.16.184-.211.059-.164-.41-.508-.715-.84-.992-.305-.25-.602-.512-.895-.777-.609-.559-1.195-1.141-1.754-1.75s-1.086-1.246-1.586-1.902c-.465-.609-.852-1.344-1.48-1.801-.047-.035-.035-.086-.004-.117.016-.012.039-.02.063-.012.727.324 1.223.859 1.691 1.473.555.723 1.148 1.422 1.762 2.098.598.664 1.227 1.297 1.879 1.902.582.535 1.145 1.039 1.375 1.82zm.492-1.676c-.113-.105-.242-.18-.367-.266s-.238-.211-.352-.312c-.277-.254-.574-.492-.828-.77s-.492-.543-.711-.844c-.02-.027-.008-.051.016-.066.016-.012.039-.02.059-.008.035.02.066.043.102.066a10.27 10.27 0 0 1 .887.59c.305.223.582.492.867.742.133.117.25.227.352.375l.27.387c.172.254.324.523.422.82.027.074-.09.121-.125.051-.145-.297-.344-.547-.59-.766zm4.16-6.77c-.309.523-.547 1.105-.82 1.652-.266.527-.492 1.074-.699 1.633-.406 1.117-.59 2.289-.898 3.434-.023.09-.133.059-.145-.02-.16-1.246.156-2.496.574-3.664a11.11 11.11 0 0 1 .781-1.68c.313-.543.707-.961 1.121-1.422.043-.047.117.012.086.066zm-1.848 21.309c-.078-.066-.16-.121-.25-.172-.219-.129-.457-.219-.676-.344a11.78 11.78 0 0 1-.883-.535c-.152-.102-.297-.211-.434-.328-.129-.117-.27-.246-.316-.418-.055-.215.059-.402.156-.582.086-.156.184-.297.289-.434.016-.02.027-.039.043-.059.051-.062.125-.031.16.023.016.027.027.055.02.082-.043.195-.102.371-.176.555-.031.078-.09.176-.09.266-.004.066.039.105.086.152.219.223.48.395.746.551.27.164.563.305.805.512.23.199.414.43.59.676.008.008.008.016.008.023 0 .031-.047.059-.078.031zm14.871-6.469c.07.082.008.211-.105.184-.961-.254-1.777-.812-2.66-1.25-.941-.469-1.922-.75-2.945-.961-1.012-.207-2.082-.492-3.125-.43-.949.055-1.598.688-2.453.949.039.039.078.078.117.113.273.234.602.402.863.648.48.449.551 1.109.555 1.734.012 2.379-1.332 6.582-4.402 6.164-.008-.004-.02-.004-.027-.004-.141-.02-.18-.164-.137-.281.027-.082.094-.148.195-.145 2.551.113 3.664-3.176 3.785-5.23.031-.527.082-1.203-.219-1.668-.273-.426-.824-.715-1.184-1.078-.32-.324-.734-.922-1.172-1.086-.41-.148-.629.039-.937.262-.25.176-.48.367-.699.578-.055.051-.141-.008-.102-.066.016-.02.031-.043.047-.066.297-.43.703-.984 1.203-1.164.539-.195 1.098.336 1.465.668.184.168.359.344.535.516.84-.535 1.496-1.199 2.531-1.355 1.016-.152 2.063.055 3.063.219 2.043.332 4.43 1.121 5.809 2.75zm-21.664 112.992c.008.137.012.281.008.434s-.004.309-.016.469a14.94 14.94 0 0 1-.121 1.27l-.074.523c-.023.172-.051.344-.082.512l-.086.496-.176.898-.078.387-.074.324c-.02.102-.039.188-.059.262l-.023.102c-.02.09-.035.152-.043.176l-3.043.406-1.465-3.039s-.875 1.516-2.047 2.648c-.531.516-1.125.949-1.723 1.125s-1.687.324-2.961.441c-.125.008-.254.02-.387.031l-1.621.113a15.01 15.01 0 0 1-.418.027l-1.645.07c-1.605.055-3.043.055-3.781-.008-1.109-.098-1.129-.617-.645-1.359a6.23 6.23 0 0 1 .5-.652c.359-.426.809-.887 1.27-1.367.102-.105.207-.207.324-.312.473-.441 1.059-.898 1.668-1.34a31.74 31.74 0 0 1 .91-.629 40.64 40.64 0 0 1 1.625-1.043l.938-.562s1.465.266 2.84.871 2.555 1.703 2.555 1.703l3.93-3.648s.324-2.105 1.094-3.926 1.348-1.926 1.348-1.926a105.16 105.16 0 0 0 .852 3.102c.023.082.043.168.066.254l.125.512.121.504.164.727c.082.387.148.742.191 1.039.02.121.031.25.039.387zm18.102 8.383v.211c0 .047 0 .09-.004.133-.004.074-.012.148-.02.219-.004.035-.004.074-.012.105-.012.105-.035.207-.059.309-.184.68-.758 1.453-1.508 2.215a17.05 17.05 0 0 1-1.379 1.242 21.98 21.98 0 0 1-.59.465c-1.586 1.203-3.191 2.105-3.586 2.105-.148 0-.398-.137-.703-.375-.203-.156-.43-.359-.672-.59s-.488-.492-.734-.773c-1.121-1.262-2.195-2.887-2.02-3.734.32-1.508 1.59-4.922 1.59-4.922s1.449 1.672 3.758 1.629c1.82-.031 3.836-2.328 4.609-3.297l.516 1.555.141.434c.004.02.012.035.016.051l.129.422.012.035c.09.297.172.586.242.867a3.69 3.69 0 0 0 .023.098c.027.105.051.207.07.309.012.047.02.094.031.137l.047.258c.012.051.016.102.027.148.012.078.02.156.031.234.008.051.012.098.016.148.008.074.016.148.02.219a1.79 1.79 0 0 0 .008.145zm36.43 5.281c-.711.289-1.5.344-2.258.387-1.027.055-2.055.063-3.078.086-.793.012-1.582-.02-2.375-.016-.727.008-1.504-.004-2.199.234-.758.262-1.473.668-2.187 1.027-.793.395-1.621.664-2.484.848-1.895.406-3.863.457-5.793.473-1.961.016-3.922-.059-5.859-.375-.012-.004-.027-.004-.039-.004-.105-.02-.082-.156.004-.187.008 0 .012-.008.023-.008 2.258-.133 4.52.035 6.781-.035 1.969-.059 3.988-.141 5.879-.742 1.426-.453 2.672-1.492 4.168-1.719 1.555-.234 3.172-.066 4.742-.102 1.555-.035 3.074-.145 4.621-.285.008 0 .016 0 .023.004.23.004.223.332.031.414zM269.09 70.762c.016.039.012.074.004.105-.039.133-.238.211-.344.094a2.45 2.45 0 0 1-.148-.203c-.289-.473-.328-1.094-.43-1.621-.145-.738-.266-1.484-.398-2.223-.27-1.5-.59-3.004-.734-4.52-.133-1.426.016-2.77.77-4.008.738-1.223 1.609-2.375 2.535-3.461.012-.008.02-.02.027-.031.027-.031.059-.035.09-.027.059.016.109.086.074.152-.645 1.211-1.422 2.336-2.09 3.535-.328.582-.621 1.184-.73 1.848-.117.691-.074 1.398-.004 2.094.148 1.426.43 2.84.672 4.25l.359 2.125c.102.621.117 1.301.348 1.891zm19.008-15.48l-.059.113c.941-.566 1.863-1.176 2.762-1.801 1.172-.812 2.238-1.82 3.52-2.449.09-.043.219.051.148.148-.82 1.164-2.09 1.957-3.27 2.727-1.105.727-2.254 1.344-3.441 1.918-.852 1.641-1.715 3.266-2.75 4.805-1.184 1.762-2.492 3.434-3.652 5.211-.574.879-1.074 1.793-1.578 2.711-.492.898-1.184 1.34-2.102 1.742-1.883.828-4.008 1.398-6.078 1.27-.008-.004-.016 0-.023-.004-.141-.008-.191-.238-.035-.262l.234-.035c1.117-.172 2.234-.344 3.328-.652 1.109-.312 2.359-.711 3.316-1.375.469-.328.676-.844.906-1.348.207-.453.43-.895.672-1.332.5-.895 1.055-1.762 1.625-2.613 1.168-1.73 2.449-3.387 3.547-5.168 1.031-1.676 1.953-3.422 2.977-5.105.938-1.543 1.988-3.129 3.395-4.293l-.023-.023c-.75-1.266-1.266-2.676-1.875-4.012-.566-1.238-1.137-2.477-1.82-3.652-1.352-2.32-3.398-4.098-5.512-5.711-.023-.016-.035-.035-.047-.059-.051-.109.051-.254.188-.18 2.391 1.32 4.43 2.988 5.879 5.32.766 1.234 1.367 2.578 1.969 3.895.621 1.363 1.305 2.754 1.645 4.219.008.035.008.07 0 .102.004.027-.004.063-.031.094-.754.945-1.52 1.879-2.176 2.902-.594.934-1.125 1.914-1.637 2.898zm8.09-21.039c-1.621 1.113-3.855 1.086-5.754 1.09-.941 0-1.875-.086-2.82-.051-1.137.039-2.367.344-3.496.195-.027-.004-.035-.039-.008-.051 1.008-.375 2.258-.434 3.328-.504.918-.062 1.859-.086 2.781-.094s1.832-.023 2.746-.125c1.078-.117 2.094-.469 3.16-.59.008 0 .016-.004.023-.004.078-.008.09.094.039.133zm-27.055-1.266c-.031-.059.047-.102.086-.051.695.941 1.047 2.063 1.613 3.074.266.469.555.969 1.012 1.27.234.156.516.254.633-.074.098-.27.035-.559.109-.82-.086-.191-.148-.398-.203-.605-.375-1.457-.824-2.879-1.41-4.266-.09-.219.227-.41.324-.191a28.29 28.29 0 0 1 1.277 3.387c.168.539.246 1.207.563 1.684.16.246.406.391.68.484.211.07.645.223.797.02.145-.187.039-.586.016-.797l-.125-.961a52.08 52.08 0 0 0-.305-1.902c-.223-1.227-.5-2.434-.656-3.664-.012-.086.109-.086.137-.02.574 1.422.855 2.926 1.121 4.434.133.75.25 1.504.344 2.258.008.047.012.094.02.145a1.22 1.22 0 0 0 .379.199c.043.012.086.016.133.02.004-.117.027-.234.039-.348.059-.449.09-.906.113-1.359.039-.805.121-1.602.242-2.395-.023-.754.102-1.527.23-2.238.008-.039.031-.051.059-.055.02-.004.035 0 .051.008.027.012.055.035.055.07a10.74 10.74 0 0 1 .078 1.176c0 .34-.012.684.008 1.023.027.531.098 1.223.48 1.633.145.152.293.238.477.102.172-.129.297-.324.41-.504l.637-1.035c.02-.035.055-.039.086-.035.047.008.09.047.078.105-.004.012-.008.02-.012.031-.109.406-.242.789-.465 1.156-.18.293-.426.699-.789.789-.527.137-.926-.383-1.102-.809-.004-.012-.008-.027-.012-.039.02.598.035 1.199.008 1.801-.012.293-.027.594-.07.887-.039.258-.117.523-.406.59-.262.059-.527-.023-.738-.176-.055.199-.168.375-.395.469-.426.176-1.051-.043-1.434-.25a1.51 1.51 0 0 1-.352-.266c-.012.102-.031.203-.055.293-.07.301-.203.59-.527.672-.656.172-1.234-.398-1.578-.879-.852-1.199-.973-2.762-1.66-4.039zm2.645 9.824c-.48.066-1.012.02-1.469-.137a2.36 2.36 0 0 1-1.094-.77c-.023-.031.004-.078.043-.055.359.211.809.324 1.227.367.41.043.848.078 1.25-.027.438-.109.742-.379 1.066-.676.355-.328.691-.66 1.113-.898.09-.051.195.051.141.141-.281.5-.695.91-1.082 1.328-.332.348-.707.664-1.195.727zm12.27-24.484c-.117-.031-.238.016-.312.109-.059.078-.07.172-.078.262-.082.168-.152.336-.187.512a1.38 1.38 0 0 0 0 .457c.023.148.063.309.207.387.164.09.355.031.477-.102a.98.98 0 0 0 .203-.414c.078-.258.113-.578.02-.84-.055-.152-.156-.328-.328-.371zm-.18 1.152c-.004-.027-.008-.059-.008-.062.012.004.02 0 .031.004l-.023.059zm-.637-3.793c.805-.148 1.664-.164 2.43.172.32.145.656.34.895.605s.367.582.441.926c.012.059-.062.109-.109.063-.211-.223-.473-.395-.727-.566s-.504-.352-.789-.48c-.668-.301-1.391-.461-2.117-.543-.09-.012-.129-.156-.023-.176zm-53.973-.828c.008-.133.031-.242.102-.359.082-.141.188-.23.316-.328a2.77 2.77 0 0 1 .691-.379 3.05 3.05 0 0 1 .766-.187c.266-.031.527-.004.789.055.27.059.199.465-.062.465-.418 0-.875.078-1.25.238-.211.094-.418.207-.605.336-.09.063-.168.125-.27.176-.059.027-.113.063-.176.078-.047.012-.098.016-.145.023-.074.016-.16-.031-.156-.117zm7.195-.051c-.43-.25-.898-.434-1.391-.512-.199-.027-.141-.336.047-.34a3.5 3.5 0 0 1 1.625.367c.254.129.488.293.711.473.109.086.227.203.301.324.066.113.09.266.117.391.023.117-.09.207-.195.152-.113-.059-.242-.102-.344-.172-.109-.078-.207-.176-.309-.27-.172-.156-.359-.297-.562-.414zm-5.383 3.039a1.22 1.22 0 0 0 .074-.555c-.016-.203-.066-.398-.16-.578-.051-.094-.109-.184-.211-.219-.02-.008-.039-.008-.059-.012-.02-.023-.047-.035-.082-.039-.074-.004-.133.055-.164.117-.004.012-.004.023-.008.035-.074.09-.098.203-.098.324-.016.078-.027.16-.039.238-.031.301-.09.855.297.965.207.059.379-.102.449-.277zm-.363-.055zm-.004.004zm-.004 0zm5.129.602c-.219-.055-.289-.281-.332-.477a1.89 1.89 0 0 1-.047-.594c.012-.176.035-.387.125-.539a.39.39 0 0 1 .18-.148.3.3 0 0 1 .281-.004c.098.051.148.152.191.246a2.1 2.1 0 0 1 .16.609c.023.195.023.422-.051.605-.082.203-.281.355-.508.301zm-5.727.824c.117-.242.297-.453.457-.664l.512-.66c.371-.465.754-.922 1.137-1.379.121-.141.355.047.258.199-.547.828-1.121 1.629-1.687 2.441-.105.152-.262.359-.242.559.02.176.211.27.348.348.223.125.445.242.672.363.207.109.438.203.605.375.199.207-.008.52-.27.465-.293-.062-.57-.277-.828-.426-.223-.129-.457-.246-.664-.398a.92.92 0 0 1-.297-1.223zm1.086 3.688c-.02-.172 1.238-.062 2.047-.223s2.801-.91 2.961-.852 0 1.902-2.312 2.773c-1.398.527-2.57-.687-2.695-1.699zm48.203 6.367c.02-.238.02-.477.012-.715-.004-.172-.008-.359-.117-.5-.012-.012-.02-.027-.016-.043-.004-.02 0-.039.004-.055l.074-.586.09-.625c.004-.016.004-.027.008-.043l.09-.59.086-.535c.004-.012.004-.027.008-.039.422.031 1.109.07 1.781.055 1.086-.023 2.215-.098 2.379.098s-1.129 1.906-2.957 2.266a4.85 4.85 0 0 1-1.344.078c.113.09.18.215.215.367.023.117.055.238.051.359a2.06 2.06 0 0 1-.066.402c-.102.457-.27.891-.457 1.32-.016.031-.027.066-.043.098-.004.012-.016.012-.027.008s-.02-.012-.016-.027c.109-.422.211-.855.246-1.293zm0 0"/></svg>