<svg xmlns="http://www.w3.org/2000/svg" shape-rendering="geometricPrecision" text-rendering="geometricPrecision" image-rendering="optimizeQuality" fill-rule="evenodd" clip-rule="evenodd" viewBox="0 0 456 512.36"><path fill="#E535AB" fill-rule="nonzero" d="M449.77 384.27c-12.56 21.85-40.56 29.31-62.41 16.75-4.35-2.5-8.13-5.62-11.29-9.17l-104.72 60.46c1.5 4.52 2.31 9.36 2.31 14.39 0 25.12-20.41 45.66-45.66 45.66-25.25 0-45.66-20.41-45.66-45.66 0-4.49.64-8.82 1.85-12.92L78.86 392.97c-2.94 3.08-6.35 5.8-10.22 8.05-21.98 12.56-49.85 5.1-62.41-16.75-12.56-21.85-5.1-49.72 16.75-62.41 3.86-2.22 7.91-3.81 12.03-4.81V195.34c-4.17-1-8.26-2.6-12.16-4.84C1 177.94-6.46 149.94 6.1 128.09c12.56-21.85 40.56-29.31 62.41-16.75 3.91 2.27 7.35 5.03 10.31 8.15l105.39-60.84a45.631 45.631 0 0 1-1.87-12.99C182.34 20.41 202.75 0 228 0c25.25 0 45.66 20.41 45.66 45.66 0 4.54-.66 8.92-1.89 13.05l105.36 60.84c2.97-3.15 6.43-5.92 10.36-8.21 21.85-12.56 49.72-5.1 62.41 16.75 12.56 21.85 5.1 49.72-16.75 62.41-3.9 2.24-7.99 3.84-12.16 4.84v121.71c4.12 1 8.17 2.59 12.03 4.81 21.98 12.69 29.44 40.56 16.75 62.41zM56.73 317.1c.61.15 1.2.31 1.8.49L196.46 78.7c-.45-.43-.88-.85-1.31-1.3L89.58 138.36c3.28 11.49 2.09 24.22-4.32 35.39-6.43 11.19-16.91 18.6-28.53 21.49V317.1zm20.63 11.31c3.07 2.93 5.79 6.34 8.03 10.2 2.22 3.86 3.81 7.91 4.81 12.04h275.6c1-4.13 2.59-8.18 4.81-12.04a45.52 45.52 0 0 1 8.04-10.25L240.76 89.52c-4.05 1.18-8.33 1.8-12.76 1.8-4.42 0-8.68-.62-12.72-1.78L77.36 328.41zm320.14-10.84c.59-.17 1.17-.33 1.77-.48V195.24c-11.62-2.89-22.1-10.3-28.53-21.49-6.4-11.14-7.6-23.85-4.33-35.32L260.8 77.46c-.4.41-.81.81-1.23 1.21l137.93 238.9zm-30.81 57.79c-.32-.99-.6-1.99-.84-2.99H90.14c-.14.59-.3 1.18-.47 1.76l105.43 60.88c8.31-8.62 19.97-13.97 32.9-13.97 13.39 0 25.42 5.74 33.77 14.9l104.92-60.58z"/></svg>