<svg xmlns="http://www.w3.org/2000/svg" xmlns:xlink="http://www.w3.org/1999/xlink" width="400" zoomAndPan="magnify" viewBox="0 0 300 299.999988" height="400" preserveAspectRatio="xMidYMid meet" version="1.0"><defs><clipPath id="363dfeaf63"><path d="M 48 6.953125 L 254 6.953125 L 254 292.703125 L 48 292.703125 Z M 48 6.953125 " clip-rule="nonzero"/></clipPath><clipPath id="31c184d783"><path d="M 48 283 L 59 283 L 59 292.703125 L 48 292.703125 Z M 48 283 " clip-rule="nonzero"/></clipPath><clipPath id="a8e6e1656d"><path d="M 48 244 L 98 244 L 98 292.703125 L 48 292.703125 Z M 48 244 " clip-rule="nonzero"/></clipPath><clipPath id="8a0fc3f127"><path d="M 48 205 L 137 205 L 137 292.703125 L 48 292.703125 Z M 48 205 " clip-rule="nonzero"/></clipPath><clipPath id="4317a91da4"><path d="M 48 167 L 175 167 L 175 292.703125 L 48 292.703125 Z M 48 167 " clip-rule="nonzero"/></clipPath><clipPath id="6d1454701a"><path d="M 48 128 L 214 128 L 214 292.703125 L 48 292.703125 Z M 48 128 " clip-rule="nonzero"/></clipPath><clipPath id="6129efe06d"><path d="M 2.367188 38 L 65 38 L 65 127 L 2.367188 127 Z M 2.367188 38 " clip-rule="nonzero"/></clipPath><clipPath id="98688a3f71"><path d="M 235 38 L 297.867188 38 L 297.867188 127 L 235 127 Z M 235 38 " clip-rule="nonzero"/></clipPath></defs><g clip-path="url(#363dfeaf63)"><path fill="#f1a1e7" d="M 48.910156 6.976562 L 253.761719 6.976562 L 253.761719 293.023438 L 48.910156 293.023438 Z M 48.910156 6.976562 " fill-opacity="1" fill-rule="nonzero"/></g><g clip-path="url(#31c184d783)"><path fill="#5f00f8" d="M 48.949219 292.773438 L 58.75 292.773438 L 48.949219 283.183594 Z M 48.949219 292.773438 " fill-opacity="1" fill-rule="nonzero"/></g><g clip-path="url(#a8e6e1656d)"><path fill="#5f00f8" d="M 48.949219 260.871094 L 81.0625 292.773438 L 97.453125 292.773438 L 48.949219 244.480469 Z M 48.949219 260.871094 " fill-opacity="1" fill-rule="nonzero"/></g><g clip-path="url(#8a0fc3f127)"><path fill="#5f00f8" d="M 48.949219 222.167969 L 119.765625 292.773438 L 136.152344 292.773438 L 48.949219 205.777344 Z M 48.949219 222.167969 " fill-opacity="1" fill-rule="nonzero"/></g><g clip-path="url(#4317a91da4)"><path fill="#5f00f8" d="M 48.949219 183.46875 L 158.464844 292.773438 L 174.855469 292.773438 L 48.949219 167.078125 Z M 48.949219 183.46875 " fill-opacity="1" fill-rule="nonzero"/></g><g clip-path="url(#6d1454701a)"><path fill="#5f00f8" d="M 48.949219 144.765625 L 197.167969 292.773438 L 213.558594 292.773438 L 48.949219 128.375 Z M 48.949219 144.765625 " fill-opacity="1" fill-rule="nonzero"/></g><g clip-path="url(#6129efe06d)"><path fill="#f1a1e7" d="M 48.785156 126.457031 C 49.910156 126.75 50.996094 126.917969 52.121094 126.917969 C 53.246094 126.917969 54.332031 126.75 55.457031 126.457031 C 56.457031 126.039062 57.457031 125.625 58.460938 125.207031 C 61.253906 123.578125 63.339844 120.867188 64.214844 117.742188 C 65.089844 114.53125 64.632812 110.984375 62.964844 108.109375 C 61.835938 106.230469 60.335938 104.730469 58.460938 103.605469 C 57.957031 103.394531 57.457031 103.1875 56.957031 102.976562 C 52.996094 101.226562 49.242188 99.058594 45.738281 96.515625 C 42.613281 93.96875 39.777344 91.09375 37.230469 88.007812 C 34.855469 84.710938 32.8125 81.25 31.101562 77.539062 C 29.601562 73.703125 28.515625 69.699219 27.847656 65.609375 C 27.429688 61.609375 27.429688 57.5625 27.808594 53.558594 C 28.308594 51.472656 28.265625 49.386719 27.722656 47.261719 C 27.304688 46.261719 26.890625 45.257812 26.472656 44.257812 C 24.761719 41.464844 22.050781 39.378906 18.921875 38.546875 C 15.710938 37.667969 12.167969 38.128906 9.289062 39.796875 C 7.414062 40.921875 5.910156 42.421875 4.785156 44.300781 C 4.367188 45.300781 3.953125 46.300781 3.535156 47.304688 C 3.160156 49.972656 2.742188 52.640625 2.574219 55.308594 C 2.367188 58.519531 2.410156 61.773438 2.699219 64.945312 C 3.117188 69.199219 3.703125 73.453125 4.785156 77.582031 C 5.871094 81.667969 7.414062 85.503906 9.082031 89.382812 C 10.375 92.34375 11.917969 95.222656 13.667969 97.933594 C 15.921875 101.351562 18.421875 104.644531 21.175781 107.691406 C 23.300781 110.066406 25.636719 112.320312 28.140625 114.320312 C 31.308594 116.867188 34.5625 119.367188 38.109375 121.453125 C 41.527344 123.414062 45.113281 124.957031 48.785156 126.457031 Z M 27.554688 54.683594 C 27.554688 54.601562 27.554688 54.558594 27.597656 54.476562 C 27.554688 54.558594 27.554688 54.644531 27.554688 54.683594 Z M 27.554688 54.683594 " fill-opacity="1" fill-rule="nonzero"/></g><g clip-path="url(#98688a3f71)"><path fill="#f1a1e7" d="M 251.214844 126.457031 C 254.886719 124.957031 258.472656 123.414062 261.890625 121.410156 C 265.4375 119.367188 268.691406 116.867188 271.859375 114.28125 C 274.363281 112.277344 276.65625 110.027344 278.824219 107.648438 C 281.578125 104.605469 284.078125 101.308594 286.332031 97.890625 C 288.082031 95.179688 289.625 92.300781 290.917969 89.339844 C 292.628906 85.503906 294.171875 81.625 295.214844 77.539062 C 296.296875 73.410156 296.882812 69.15625 297.300781 64.902344 C 297.632812 61.691406 297.632812 58.480469 297.425781 55.269531 C 297.257812 52.597656 296.839844 49.886719 296.464844 47.261719 C 296.046875 46.261719 295.632812 45.257812 295.214844 44.257812 C 294.085938 42.382812 292.585938 40.878906 290.710938 39.753906 C 287.832031 38.042969 284.289062 37.585938 281.078125 38.503906 C 277.949219 39.378906 275.238281 41.464844 273.609375 44.257812 C 273.195312 45.257812 272.777344 46.261719 272.359375 47.261719 C 271.816406 49.347656 271.777344 51.433594 272.277344 53.558594 C 272.652344 57.5625 272.652344 61.609375 272.234375 65.609375 C 271.566406 69.699219 270.484375 73.660156 268.980469 77.539062 C 267.3125 81.207031 265.269531 84.710938 262.851562 88.007812 C 260.308594 91.132812 257.429688 93.96875 254.34375 96.515625 C 250.839844 99.058594 247.085938 101.226562 243.125 102.976562 C 242.625 103.1875 242.125 103.394531 241.625 103.605469 C 239.746094 104.730469 238.246094 106.230469 237.121094 108.109375 C 235.410156 110.984375 234.953125 114.53125 235.867188 117.742188 C 236.746094 120.867188 238.828125 123.578125 241.625 125.207031 C 242.625 125.625 243.625 126.039062 244.625 126.457031 C 245.753906 126.75 246.835938 126.917969 247.964844 126.917969 C 249.089844 126.917969 250.089844 126.75 251.214844 126.457031 Z M 272.445312 54.683594 C 272.445312 54.601562 272.445312 54.558594 272.402344 54.476562 C 272.445312 54.558594 272.445312 54.644531 272.445312 54.683594 Z M 272.445312 54.683594 " fill-opacity="1" fill-rule="nonzero"/></g><path fill="#000000" d="M 128.5625 101.851562 C 129.0625 106.355469 133.234375 109.734375 137.78125 109.234375 C 142.328125 108.734375 145.664062 104.5625 145.164062 100.015625 C 144.660156 95.472656 140.492188 92.136719 135.945312 92.636719 C 131.441406 93.136719 128.0625 97.304688 128.5625 101.851562 Z M 128.5625 101.851562 " fill-opacity="1" fill-rule="nonzero"/><path fill="#000000" d="M 160.757812 101.683594 C 161.261719 106.1875 165.429688 109.566406 169.976562 109.066406 C 174.480469 108.566406 177.859375 104.394531 177.359375 99.851562 C 176.859375 95.347656 172.6875 91.96875 168.140625 92.46875 C 163.59375 92.96875 160.257812 97.140625 160.757812 101.683594 Z M 160.757812 101.683594 " fill-opacity="1" fill-rule="nonzero"/><path fill="#000000" d="M 114.21875 112.277344 C 113.050781 113.445312 112.382812 115.03125 112.382812 116.699219 C 112.382812 118.242188 113.007812 120.078125 114.21875 121.121094 C 116.84375 123.414062 119.679688 125.457031 122.726562 127.207031 C 125.769531 128.960938 129.0625 130.378906 132.359375 131.585938 C 138.863281 134.007812 145.828125 135.214844 152.710938 135.675781 C 159.675781 136.132812 166.765625 135.507812 173.605469 134.007812 C 176.691406 133.339844 179.777344 132.421875 182.738281 131.296875 C 185.824219 130.128906 188.828125 128.75 191.703125 127.125 C 192.164062 126.832031 192.664062 126.582031 193.121094 126.289062 C 194.5 125.414062 195.539062 124.164062 196 122.539062 C 196.457031 120.910156 196.207031 119.160156 195.375 117.699219 C 193.664062 114.820312 189.703125 113.65625 186.824219 115.449219 C 184.738281 116.699219 182.613281 117.824219 180.402344 118.824219 C 175.730469 120.703125 170.808594 121.996094 165.804688 122.746094 C 160.050781 123.453125 154.253906 123.453125 148.539062 122.746094 C 143.578125 121.996094 138.699219 120.703125 134.027344 118.824219 C 130.609375 117.324219 127.355469 115.488281 124.308594 113.238281 C 123.894531 112.902344 123.476562 112.570312 123.101562 112.238281 C 122.683594 111.902344 122.265625 111.570312 121.851562 111.277344 C 120.890625 110.691406 119.804688 110.441406 118.679688 110.402344 C 117.011719 110.441406 115.386719 111.109375 114.21875 112.277344 Z M 114.21875 112.277344 " fill-opacity="1" fill-rule="nonzero"/></svg>