<svg xmlns="http://www.w3.org/2000/svg" xmlns:xlink="http://www.w3.org/1999/xlink" width="400" zoomAndPan="magnify" viewBox="0 0 300 299.999988" height="400" preserveAspectRatio="xMidYMid meet" version="1.0"><defs><clipPath id="30478a1247"><path d="M 58 2.023438 L 243 2.023438 L 243 246 L 58 246 Z M 58 2.023438 " clip-rule="nonzero"/></clipPath><clipPath id="ff059dd2d0"><path d="M 184 101 L 280.785156 101 L 280.785156 199 L 184 199 Z M 184 101 " clip-rule="nonzero"/></clipPath><clipPath id="e2d5c41dfd"><path d="M 19.035156 101 L 116 101 L 116 199 L 19.035156 199 Z M 19.035156 101 " clip-rule="nonzero"/></clipPath></defs><g clip-path="url(#30478a1247)"><path fill="#f1a1e7" d="M 242.609375 123.996094 C 242.609375 125.992188 242.574219 127.984375 242.5 129.980469 C 242.425781 131.972656 242.316406 133.960938 242.167969 135.949219 C 242.019531 137.933594 241.835938 139.914062 241.613281 141.886719 C 241.390625 143.863281 241.132812 145.828125 240.839844 147.785156 C 240.542969 149.742188 240.214844 151.691406 239.847656 153.625 C 239.480469 155.5625 239.078125 157.484375 238.636719 159.394531 C 238.199219 161.304688 237.726562 163.199219 237.21875 165.078125 C 236.710938 166.957031 236.164062 168.816406 235.589844 170.660156 C 235.011719 172.503906 234.398438 174.328125 233.753906 176.132812 C 233.105469 177.9375 232.429688 179.71875 231.71875 181.480469 C 231.003906 183.242188 230.261719 184.976562 229.484375 186.6875 C 228.707031 188.398438 227.902344 190.085938 227.0625 191.746094 C 226.222656 193.402344 225.355469 195.035156 224.453125 196.636719 C 223.554688 198.242188 222.625 199.8125 221.667969 201.355469 C 220.710938 202.898438 219.722656 204.410156 218.710938 205.890625 C 217.695312 207.367188 216.65625 208.8125 215.589844 210.222656 C 214.519531 211.636719 213.425781 213.011719 212.308594 214.351562 C 211.1875 215.691406 210.046875 216.996094 208.878906 218.261719 C 207.710938 219.527344 206.523438 220.753906 205.308594 221.941406 C 204.097656 223.132812 202.863281 224.28125 201.605469 225.390625 C 200.351562 226.5 199.074219 227.566406 197.78125 228.59375 C 196.484375 229.617188 195.171875 230.601562 193.839844 231.542969 C 192.507812 232.484375 191.160156 233.378906 189.796875 234.234375 C 188.429688 235.085938 187.050781 235.894531 185.65625 236.660156 C 184.261719 237.421875 182.851562 238.140625 181.429688 238.8125 C 180.007812 239.484375 178.574219 240.109375 177.128906 240.691406 C 175.683594 241.269531 174.230469 241.800781 172.765625 242.285156 C 171.300781 242.773438 169.828125 243.207031 168.347656 243.597656 C 166.867188 243.988281 165.378906 244.328125 163.886719 244.621094 C 162.390625 244.914062 160.894531 245.160156 159.390625 245.355469 C 157.886719 245.550781 156.382812 245.695312 154.875 245.792969 C 153.367188 245.890625 151.859375 245.941406 150.347656 245.941406 C 148.835938 245.941406 147.328125 245.890625 145.820312 245.792969 C 144.3125 245.695312 142.808594 245.550781 141.304688 245.355469 C 139.800781 245.160156 138.304688 244.914062 136.808594 244.621094 C 135.316406 244.328125 133.828125 243.988281 132.347656 243.597656 C 130.867188 243.207031 129.394531 242.773438 127.929688 242.285156 C 126.464844 241.800781 125.011719 241.269531 123.566406 240.691406 C 122.121094 240.109375 120.6875 239.484375 119.265625 238.8125 C 117.84375 238.140625 116.433594 237.421875 115.039062 236.660156 C 113.644531 235.894531 112.265625 235.085938 110.898438 234.234375 C 109.535156 233.378906 108.1875 232.484375 106.855469 231.542969 C 105.523438 230.601562 104.210938 229.617188 102.914062 228.59375 C 101.621094 227.566406 100.34375 226.5 99.089844 225.390625 C 97.832031 224.28125 96.597656 223.132812 95.386719 221.941406 C 94.171875 220.753906 92.984375 219.527344 91.816406 218.261719 C 90.648438 216.996094 89.507812 215.691406 88.386719 214.351562 C 87.269531 213.011719 86.175781 211.636719 85.109375 210.222656 C 84.039062 208.8125 83 207.367188 81.984375 205.890625 C 80.972656 204.410156 79.984375 202.898438 79.027344 201.355469 C 78.070312 199.8125 77.140625 198.242188 76.242188 196.636719 C 75.339844 195.035156 74.472656 193.402344 73.632812 191.746094 C 72.792969 190.085938 71.988281 188.398438 71.210938 186.6875 C 70.433594 184.976562 69.691406 183.242188 68.980469 181.480469 C 68.265625 179.71875 67.589844 177.9375 66.941406 176.132812 C 66.296875 174.328125 65.683594 172.503906 65.109375 170.660156 C 64.53125 168.816406 63.988281 166.957031 63.476562 165.078125 C 62.96875 163.199219 62.496094 161.304688 62.058594 159.394531 C 61.617188 157.484375 61.214844 155.5625 60.847656 153.625 C 60.484375 151.691406 60.152344 149.742188 59.855469 147.785156 C 59.5625 145.828125 59.304688 143.863281 59.082031 141.886719 C 58.863281 139.914062 58.675781 137.933594 58.527344 135.949219 C 58.378906 133.960938 58.269531 131.972656 58.195312 129.980469 C 58.121094 127.984375 58.085938 125.992188 58.085938 123.996094 C 58.085938 122 58.121094 120.003906 58.195312 118.011719 C 58.269531 116.019531 58.378906 114.027344 58.527344 112.042969 C 58.675781 110.054688 58.863281 108.074219 59.082031 106.101562 C 59.304688 104.128906 59.5625 102.160156 59.855469 100.203125 C 60.152344 98.246094 60.484375 96.300781 60.847656 94.363281 C 61.214844 92.429688 61.617188 90.503906 62.058594 88.597656 C 62.496094 86.6875 62.96875 84.792969 63.476562 82.914062 C 63.988281 81.035156 64.53125 79.171875 65.109375 77.328125 C 65.683594 75.484375 66.296875 73.660156 66.941406 71.855469 C 67.589844 70.050781 68.265625 68.269531 68.980469 66.511719 C 69.691406 64.75 70.433594 63.015625 71.210938 61.300781 C 71.988281 59.589844 72.792969 57.90625 73.632812 56.246094 C 74.472656 54.585938 75.339844 52.953125 76.242188 51.351562 C 77.140625 49.75 78.070312 48.175781 79.027344 46.632812 C 79.984375 45.089844 80.972656 43.578125 81.984375 42.101562 C 83 40.621094 84.039062 39.175781 85.109375 37.765625 C 86.175781 36.355469 87.269531 34.980469 88.386719 33.640625 C 89.507812 32.296875 90.648438 30.996094 91.816406 29.730469 C 92.984375 28.464844 94.171875 27.234375 95.386719 26.046875 C 96.597656 24.859375 97.832031 23.710938 99.089844 22.601562 C 100.34375 21.492188 101.621094 20.425781 102.914062 19.398438 C 104.210938 18.371094 105.523438 17.390625 106.855469 16.449219 C 108.1875 15.507812 109.535156 14.609375 110.898438 13.757812 C 112.265625 12.902344 113.644531 12.09375 115.039062 11.332031 C 116.433594 10.566406 117.84375 9.851562 119.265625 9.175781 C 120.6875 8.503906 122.121094 7.878906 123.566406 7.300781 C 125.011719 6.71875 126.464844 6.1875 127.929688 5.703125 C 129.394531 5.21875 130.867188 4.78125 132.347656 4.390625 C 133.828125 4.003906 135.316406 3.660156 136.808594 3.367188 C 138.304688 3.074219 139.800781 2.832031 141.304688 2.636719 C 142.808594 2.441406 144.3125 2.292969 145.820312 2.195312 C 147.328125 2.097656 148.835938 2.050781 150.347656 2.050781 C 151.859375 2.050781 153.367188 2.097656 154.875 2.195312 C 156.382812 2.292969 157.886719 2.441406 159.390625 2.636719 C 160.894531 2.832031 162.390625 3.074219 163.886719 3.367188 C 165.378906 3.660156 166.867188 4.003906 168.347656 4.390625 C 169.828125 4.78125 171.300781 5.21875 172.765625 5.703125 C 174.230469 6.1875 175.683594 6.71875 177.128906 7.300781 C 178.574219 7.878906 180.007812 8.503906 181.429688 9.175781 C 182.851562 9.851562 184.261719 10.566406 185.65625 11.332031 C 187.050781 12.09375 188.429688 12.902344 189.796875 13.757812 C 191.160156 14.609375 192.507812 15.507812 193.839844 16.449219 C 195.171875 17.390625 196.484375 18.371094 197.78125 19.398438 C 199.074219 20.425781 200.351562 21.492188 201.605469 22.601562 C 202.863281 23.710938 204.097656 24.859375 205.308594 26.046875 C 206.523438 27.234375 207.710938 28.464844 208.878906 29.730469 C 210.046875 30.996094 211.1875 32.296875 212.308594 33.640625 C 213.425781 34.980469 214.519531 36.355469 215.589844 37.765625 C 216.65625 39.175781 217.695312 40.621094 218.710938 42.101562 C 219.722656 43.578125 220.710938 45.089844 221.667969 46.632812 C 222.625 48.175781 223.554688 49.75 224.453125 51.351562 C 225.355469 52.953125 226.222656 54.585938 227.0625 56.246094 C 227.902344 57.90625 228.707031 59.589844 229.484375 61.300781 C 230.261719 63.015625 231.003906 64.75 231.71875 66.511719 C 232.429688 68.269531 233.105469 70.050781 233.753906 71.855469 C 234.398438 73.660156 235.011719 75.484375 235.589844 77.328125 C 236.164062 79.171875 236.710938 81.035156 237.21875 82.914062 C 237.726562 84.792969 238.199219 86.6875 238.636719 88.597656 C 239.078125 90.503906 239.480469 92.429688 239.847656 94.363281 C 240.214844 96.300781 240.542969 98.246094 240.839844 100.203125 C 241.132812 102.160156 241.390625 104.128906 241.613281 106.101562 C 241.835938 108.074219 242.019531 110.054688 242.167969 112.042969 C 242.316406 114.027344 242.425781 116.019531 242.5 118.011719 C 242.574219 120.003906 242.609375 122 242.609375 123.996094 Z M 242.609375 123.996094 " fill-opacity="1" fill-rule="nonzero"/></g><path fill="#f1a1e7" d="M 126.910156 200.183594 C 119.265625 200.183594 112.929688 206.519531 112.929688 214.160156 C 112.929688 225.160156 112.929688 272.96875 112.929688 283.964844 C 112.929688 291.605469 119.265625 297.945312 126.910156 297.945312 C 134.550781 297.945312 140.886719 291.605469 140.886719 283.964844 C 140.886719 272.96875 140.886719 225.160156 140.886719 214.160156 C 140.886719 206.566406 134.550781 200.183594 126.910156 200.183594 Z M 126.910156 200.183594 " fill-opacity="1" fill-rule="nonzero"/><path fill="#f1a1e7" d="M 178.632812 200.183594 C 170.992188 200.183594 164.652344 206.519531 164.652344 214.160156 C 164.652344 225.160156 164.652344 272.96875 164.652344 283.964844 C 164.652344 291.605469 170.992188 297.945312 178.632812 297.945312 C 186.273438 297.945312 192.613281 291.605469 192.613281 283.964844 C 192.613281 272.96875 192.613281 225.160156 192.613281 214.160156 C 192.613281 206.566406 186.273438 200.183594 178.632812 200.183594 Z M 178.632812 200.183594 " fill-opacity="1" fill-rule="nonzero"/><g clip-path="url(#ff059dd2d0)"><path fill="#f1a1e7" d="M 231.472656 101.347656 C 227.839844 101.488281 224.296875 101.816406 220.757812 102.746094 C 217.214844 103.679688 213.675781 104.9375 210.414062 106.613281 C 208.734375 107.5 207.058594 108.476562 205.472656 109.550781 C 204.960938 109.875 204.449219 110.203125 203.933594 110.621094 C 203.234375 111.132812 202.539062 111.648438 201.886719 112.207031 C 199.089844 114.441406 196.664062 117.144531 194.382812 119.894531 C 193.265625 121.292969 192.238281 122.738281 191.308594 124.273438 C 191.167969 124.507812 191.027344 124.695312 190.886719 124.925781 C 189.164062 127.910156 187.625 131.078125 186.507812 134.386719 C 186.273438 135.132812 186.042969 135.878906 185.855469 136.667969 C 185.855469 136.714844 185.808594 136.808594 185.808594 136.855469 C 185.203125 139.277344 184.691406 141.703125 184.363281 144.171875 C 184.269531 144.730469 184.222656 145.242188 184.175781 145.804688 C 183.992188 147.714844 183.992188 149.625 184.085938 151.535156 C 184.132812 153.351562 184.316406 155.167969 184.597656 156.984375 C 184.597656 156.984375 184.597656 157.03125 184.597656 157.03125 C 185.109375 160.945312 186.414062 164.769531 187.8125 168.449219 C 188.136719 169.335938 188.558594 170.21875 188.976562 171.058594 C 189.582031 172.269531 190.234375 173.433594 190.933594 174.554688 C 191.632812 175.671875 192.332031 176.742188 193.078125 177.816406 C 193.589844 178.5625 194.101562 179.261719 194.617188 179.914062 C 194.941406 180.332031 195.269531 180.75 195.59375 181.125 C 195.78125 181.355469 196.011719 181.589844 196.199219 181.824219 C 197.039062 182.753906 197.925781 183.6875 198.855469 184.527344 C 201.464844 186.949219 204.074219 189.140625 207.152344 191.003906 C 210.320312 192.914062 213.765625 194.542969 217.261719 195.753906 C 220.617188 196.875 224.207031 197.574219 227.699219 197.945312 C 231.429688 198.363281 235.25 198.085938 238.929688 197.710938 C 242.519531 197.339844 245.917969 196.269531 249.273438 195.054688 C 252.070312 194.078125 254.679688 192.820312 257.195312 191.28125 C 260.132812 189.464844 262.929688 187.460938 265.492188 185.085938 C 268.101562 182.613281 270.523438 179.820312 272.527344 176.882812 C 274.484375 174.042969 276.023438 170.871094 277.417969 167.75 C 278.957031 164.207031 279.75 160.339844 280.402344 156.566406 C 280.914062 153.769531 280.960938 150.882812 280.820312 148.039062 C 280.589844 144.3125 280.261719 140.769531 279.285156 137.136719 C 277.28125 130.007812 273.878906 123.484375 269.078125 117.84375 C 266.796875 115.140625 264.046875 112.765625 261.203125 110.574219 C 258.222656 108.292969 254.773438 106.519531 251.324219 104.984375 C 248.015625 103.492188 244.523438 102.699219 240.933594 101.953125 C 238.324219 101.441406 235.714844 101.164062 233.105469 101.164062 C 232.6875 101.300781 232.082031 101.300781 231.472656 101.347656 Z M 237.71875 125.300781 C 239.863281 125.859375 241.914062 126.605469 243.960938 127.535156 C 245.875 128.609375 247.644531 129.867188 249.320312 131.21875 C 250.8125 132.707031 252.210938 134.292969 253.421875 136.015625 C 254.539062 137.882812 255.472656 139.792969 256.21875 141.796875 C 256.824219 143.9375 257.242188 146.082031 257.476562 148.273438 C 257.523438 150.507812 257.335938 152.699219 257.011719 154.890625 C 256.449219 157.03125 255.707031 159.082031 254.820312 161.085938 C 253.75 162.996094 252.488281 164.769531 251.136719 166.445312 C 249.648438 167.9375 248.0625 169.335938 246.339844 170.59375 C 244.523438 171.664062 242.609375 172.597656 240.609375 173.386719 C 238.464844 173.996094 236.320312 174.414062 234.082031 174.648438 C 231.847656 174.695312 229.65625 174.507812 227.46875 174.179688 C 225.324219 173.621094 223.226562 172.875 221.222656 171.945312 C 219.3125 170.871094 217.542969 169.613281 215.863281 168.261719 C 214.371094 166.773438 213.023438 165.1875 211.761719 163.511719 C 211.578125 163.183594 211.34375 162.8125 211.15625 162.484375 C 211.15625 162.484375 211.15625 162.4375 211.15625 162.4375 C 211.109375 162.390625 211.109375 162.296875 211.066406 162.25 C 211.019531 162.207031 211.019531 162.160156 210.972656 162.113281 C 210.972656 162.066406 210.925781 162.066406 210.925781 162.019531 C 210.179688 160.621094 209.527344 159.222656 208.96875 157.730469 C 208.734375 156.847656 208.5 155.960938 208.316406 155.074219 C 208.316406 155.027344 208.316406 155.027344 208.316406 154.984375 C 208.316406 154.9375 208.316406 154.890625 208.269531 154.84375 C 208.035156 153.632812 207.847656 152.417969 207.710938 151.207031 C 207.664062 149.019531 207.847656 146.78125 208.175781 144.636719 C 208.734375 142.496094 209.480469 140.398438 210.414062 138.394531 C 210.832031 137.648438 211.296875 136.902344 211.808594 136.15625 C 211.808594 136.15625 211.808594 136.15625 211.808594 136.109375 C 211.855469 136.015625 211.902344 135.96875 211.949219 135.925781 C 211.949219 135.925781 211.996094 135.878906 211.996094 135.878906 C 212.042969 135.832031 212.089844 135.785156 212.089844 135.691406 C 212.089844 135.644531 212.136719 135.644531 212.136719 135.597656 C 212.183594 135.550781 212.183594 135.503906 212.230469 135.457031 C 212.277344 135.410156 212.277344 135.363281 212.324219 135.316406 C 212.371094 135.273438 212.371094 135.226562 212.414062 135.226562 C 212.460938 135.179688 212.507812 135.132812 212.507812 135.085938 C 212.507812 135.039062 212.554688 135.039062 212.554688 134.992188 C 212.601562 134.945312 212.648438 134.851562 212.695312 134.804688 C 212.695312 134.804688 212.695312 134.757812 212.742188 134.757812 C 212.789062 134.710938 212.835938 134.621094 212.882812 134.574219 C 213.253906 134.058594 213.675781 133.546875 214.046875 133.082031 C 214.746094 132.382812 215.445312 131.730469 216.144531 131.078125 C 216.191406 131.03125 216.238281 130.984375 216.285156 130.9375 C 216.285156 130.9375 216.285156 130.9375 216.332031 130.9375 C 217.121094 130.238281 217.960938 129.585938 218.800781 128.933594 C 220.664062 127.816406 222.574219 126.882812 224.578125 126.09375 C 226.722656 125.484375 228.910156 125.066406 231.101562 124.832031 C 233.339844 124.789062 235.527344 124.925781 237.71875 125.300781 Z M 237.71875 125.300781 " fill-opacity="1" fill-rule="nonzero"/></g><g clip-path="url(#e2d5c41dfd)"><path fill="#f1a1e7" d="M 66.519531 101.347656 C 62.882812 101.488281 59.34375 101.816406 55.800781 102.746094 C 52.257812 103.679688 48.71875 104.9375 45.457031 106.613281 C 43.777344 107.5 42.101562 108.476562 40.515625 109.550781 C 40.003906 109.875 39.492188 110.203125 38.980469 110.621094 C 38.28125 111.132812 37.582031 111.648438 36.929688 112.207031 C 34.132812 114.441406 31.710938 117.144531 29.425781 119.894531 C 28.308594 121.292969 27.285156 122.738281 26.351562 124.273438 C 26.210938 124.507812 26.070312 124.695312 25.933594 124.925781 C 24.207031 127.910156 22.671875 131.078125 21.550781 134.386719 C 21.320312 135.132812 21.085938 135.878906 20.898438 136.667969 C 20.898438 136.714844 20.851562 136.808594 20.851562 136.855469 C 20.246094 139.277344 19.734375 141.703125 19.40625 144.171875 C 19.316406 144.730469 19.269531 145.242188 19.222656 145.804688 C 19.035156 147.714844 19.035156 149.625 19.128906 151.535156 C 19.175781 153.351562 19.363281 155.167969 19.640625 156.984375 C 19.640625 156.984375 19.640625 157.03125 19.640625 157.03125 C 20.152344 160.945312 21.457031 164.769531 22.855469 168.449219 C 23.183594 169.335938 23.601562 170.21875 24.019531 171.058594 C 24.628906 172.269531 25.28125 173.433594 25.976562 174.554688 C 26.675781 175.671875 27.375 176.742188 28.121094 177.816406 C 28.632812 178.5625 29.148438 179.261719 29.660156 179.914062 C 29.984375 180.332031 30.3125 180.75 30.636719 181.125 C 30.824219 181.355469 31.058594 181.589844 31.242188 181.824219 C 32.082031 182.753906 32.96875 183.6875 33.898438 184.527344 C 36.507812 186.949219 39.117188 189.140625 42.195312 191.003906 C 45.363281 192.914062 48.8125 194.542969 52.304688 195.753906 C 55.660156 196.875 59.25 197.574219 62.742188 197.945312 C 66.472656 198.363281 70.292969 198.085938 73.972656 197.710938 C 77.5625 197.339844 80.964844 196.269531 84.320312 195.054688 C 87.113281 194.078125 89.722656 192.820312 92.242188 191.28125 C 95.175781 189.464844 97.972656 187.460938 100.535156 185.085938 C 103.144531 182.613281 105.566406 179.820312 107.570312 176.882812 C 109.527344 174.042969 111.066406 170.871094 112.464844 167.75 C 114 164.207031 114.792969 160.339844 115.445312 156.566406 C 115.957031 153.769531 116.003906 150.882812 115.867188 148.039062 C 115.632812 144.3125 115.304688 140.769531 114.328125 137.136719 C 112.324219 130.007812 108.921875 123.484375 104.121094 117.84375 C 101.839844 115.140625 99.089844 112.765625 96.246094 110.574219 C 93.265625 108.292969 89.816406 106.519531 86.367188 104.984375 C 83.0625 103.492188 79.566406 102.699219 75.976562 101.953125 C 73.367188 101.441406 70.757812 101.164062 68.148438 101.164062 C 67.730469 101.300781 67.125 101.300781 66.519531 101.347656 Z M 72.761719 125.300781 C 74.90625 125.859375 76.957031 126.605469 79.007812 127.535156 C 80.917969 128.609375 82.6875 129.867188 84.367188 131.21875 C 85.855469 132.707031 87.253906 134.292969 88.464844 136.015625 C 89.585938 137.882812 90.515625 139.792969 91.261719 141.796875 C 91.867188 143.9375 92.285156 146.082031 92.519531 148.273438 C 92.566406 150.507812 92.378906 152.699219 92.054688 154.890625 C 91.496094 157.03125 90.75 159.082031 89.863281 161.085938 C 88.792969 162.996094 87.535156 164.769531 86.183594 166.445312 C 84.691406 167.9375 83.105469 169.335938 81.382812 170.59375 C 79.566406 171.664062 77.65625 172.597656 75.652344 173.386719 C 73.507812 173.996094 71.363281 174.414062 69.128906 174.648438 C 66.890625 174.695312 64.699219 174.507812 62.511719 174.179688 C 60.367188 173.621094 58.269531 172.875 56.265625 171.945312 C 54.355469 170.871094 52.585938 169.613281 50.910156 168.261719 C 49.417969 166.773438 48.066406 165.1875 46.808594 163.511719 C 46.621094 163.183594 46.386719 162.8125 46.203125 162.484375 C 46.203125 162.484375 46.203125 162.4375 46.203125 162.4375 C 46.15625 162.390625 46.15625 162.296875 46.109375 162.25 C 46.0625 162.207031 46.0625 162.160156 46.015625 162.113281 C 46.015625 162.066406 45.96875 162.066406 45.96875 162.019531 C 45.222656 160.621094 44.570312 159.222656 44.011719 157.730469 C 43.777344 156.847656 43.546875 155.960938 43.359375 155.074219 C 43.359375 155.027344 43.359375 155.027344 43.359375 154.984375 C 43.359375 154.9375 43.359375 154.890625 43.3125 154.84375 C 43.078125 153.632812 42.894531 152.417969 42.753906 151.207031 C 42.707031 149.019531 42.894531 146.78125 43.21875 144.636719 C 43.777344 142.496094 44.523438 140.398438 45.457031 138.394531 C 45.875 137.648438 46.339844 136.902344 46.855469 136.15625 C 46.855469 136.15625 46.855469 136.15625 46.855469 136.109375 C 46.902344 136.015625 46.949219 135.96875 46.992188 135.925781 C 46.992188 135.925781 47.039062 135.878906 47.039062 135.878906 C 47.085938 135.832031 47.132812 135.785156 47.132812 135.691406 C 47.132812 135.644531 47.179688 135.644531 47.179688 135.597656 C 47.226562 135.550781 47.226562 135.503906 47.273438 135.457031 C 47.320312 135.410156 47.320312 135.363281 47.367188 135.316406 C 47.414062 135.273438 47.414062 135.226562 47.460938 135.226562 C 47.507812 135.179688 47.554688 135.132812 47.554688 135.085938 C 47.554688 135.039062 47.601562 135.039062 47.601562 134.992188 C 47.644531 134.945312 47.691406 134.851562 47.738281 134.804688 C 47.738281 134.804688 47.738281 134.757812 47.785156 134.757812 C 47.832031 134.710938 47.878906 134.621094 47.925781 134.574219 C 48.296875 134.058594 48.71875 133.546875 49.089844 133.082031 C 49.789062 132.382812 50.488281 131.730469 51.1875 131.078125 C 51.234375 131.03125 51.28125 130.984375 51.328125 130.9375 C 51.328125 130.9375 51.328125 130.9375 51.375 130.9375 C 52.167969 130.238281 53.003906 129.585938 53.84375 128.933594 C 55.707031 127.816406 57.617188 126.882812 59.621094 126.09375 C 61.765625 125.484375 63.957031 125.066406 66.144531 124.832031 C 68.429688 124.789062 70.574219 124.925781 72.761719 125.300781 Z M 72.761719 125.300781 " fill-opacity="1" fill-rule="nonzero"/></g><path fill="#000000" d="M 108.128906 90.351562 C 107.523438 86.578125 103.890625 83.96875 100.117188 84.574219 C 96.339844 85.179688 93.730469 88.859375 94.335938 92.589844 C 94.941406 96.363281 98.578125 98.972656 102.351562 98.367188 C 106.125 97.761719 108.734375 94.125 108.128906 90.351562 Z M 108.128906 90.351562 " fill-opacity="1" fill-rule="nonzero"/><path fill="#000000" d="M 193.496094 90.351562 C 192.890625 86.578125 189.257812 83.96875 185.484375 84.574219 C 181.707031 85.179688 179.097656 88.859375 179.703125 92.589844 C 180.308594 96.363281 183.945312 98.972656 187.71875 98.367188 C 191.492188 97.761719 194.101562 94.125 193.496094 90.351562 Z M 193.496094 90.351562 " fill-opacity="1" fill-rule="nonzero"/><path fill="#000000" d="M 117.21875 91.375 C 115.867188 92.726562 115.214844 94.453125 115.167969 96.316406 C 115.121094 98.414062 115.351562 100.464844 115.679688 102.511719 C 115.910156 104.097656 116.378906 105.683594 116.9375 107.171875 C 117.683594 109.082031 118.523438 110.949219 119.640625 112.71875 C 120.710938 114.441406 122.0625 116.074219 123.460938 117.566406 C 124.90625 119.054688 126.582031 120.359375 128.261719 121.570312 C 130.03125 122.832031 131.941406 123.667969 133.898438 124.460938 C 135.4375 125.113281 136.972656 125.578125 138.558594 125.859375 C 140.703125 126.277344 142.84375 126.511719 145.035156 126.464844 C 147.039062 126.417969 149.042969 126.136719 151 125.71875 C 152.957031 125.347656 154.773438 124.554688 156.59375 123.808594 C 160.039062 122.363281 163.164062 120.082031 165.726562 117.378906 C 167.121094 115.933594 168.335938 114.304688 169.40625 112.625 C 170.476562 110.949219 171.222656 109.128906 172.015625 107.3125 C 172.574219 106.007812 172.949219 104.65625 173.226562 103.257812 C 173.601562 101.535156 173.785156 99.765625 173.878906 97.992188 C 173.878906 97.945312 173.878906 97.855469 173.878906 97.808594 C 173.878906 97.761719 173.878906 97.761719 173.878906 97.714844 C 173.878906 97.714844 173.878906 97.714844 173.878906 97.667969 C 173.878906 97.621094 173.878906 97.621094 173.878906 97.574219 C 173.878906 97.433594 173.878906 97.246094 173.878906 97.109375 C 173.878906 97.109375 173.878906 97.109375 173.878906 97.0625 C 173.878906 93.242188 170.710938 90.070312 166.890625 90.070312 C 163.070312 90.070312 159.945312 93.242188 159.898438 97.0625 C 159.898438 97.292969 159.898438 97.527344 159.898438 97.714844 C 159.898438 98.179688 159.855469 98.644531 159.808594 99.113281 C 159.574219 100.464844 159.203125 101.769531 158.734375 103.027344 C 158.175781 104.238281 157.476562 105.355469 156.730469 106.472656 C 155.894531 107.5 154.960938 108.429688 153.9375 109.269531 C 152.816406 110.0625 151.699219 110.714844 150.488281 111.273438 C 149.230469 111.738281 147.925781 112.113281 146.574219 112.34375 C 145.175781 112.484375 143.824219 112.484375 142.425781 112.34375 C 141.074219 112.113281 139.769531 111.738281 138.464844 111.273438 C 137.253906 110.714844 136.136719 110.015625 135.015625 109.269531 C 133.992188 108.429688 133.105469 107.5 132.222656 106.472656 C 131.429688 105.355469 130.777344 104.238281 130.21875 103.027344 C 129.75 101.769531 129.378906 100.464844 129.144531 99.113281 C 129.050781 98.179688 129.050781 97.203125 129.050781 96.222656 C 129.144531 92.402344 125.789062 89.234375 122.0625 89.234375 C 120.339844 89.328125 118.523438 90.070312 117.21875 91.375 Z M 117.21875 91.375 " fill-opacity="1" fill-rule="nonzero"/></svg>