<svg xmlns="http://www.w3.org/2000/svg" xmlns:xlink="http://www.w3.org/1999/xlink" width="400" zoomAndPan="magnify" viewBox="0 0 300 299.999988" height="400" preserveAspectRatio="xMidYMid meet" version="1.0"><defs><clipPath id="c26f81fbac"><path d="M 1.46875 3.84375 L 267 3.84375 L 267 256 L 1.46875 256 Z M 1.46875 3.84375 " clip-rule="nonzero"/></clipPath><clipPath id="8f147019f6"><path d="M 220 148 L 298.46875 148 L 298.46875 180 L 220 180 Z M 220 148 " clip-rule="nonzero"/></clipPath><clipPath id="da0c992ee1"><path d="M 266 110 L 298.46875 110 L 298.46875 180 L 266 180 Z M 266 110 " clip-rule="nonzero"/></clipPath><clipPath id="573f3eed2c"><path d="M 86 227 L 118 227 L 118 296.34375 L 86 296.34375 Z M 86 227 " clip-rule="nonzero"/></clipPath><clipPath id="6fe0afa49f"><path d="M 148 227 L 180 227 L 180 296.34375 L 148 296.34375 Z M 148 227 " clip-rule="nonzero"/></clipPath></defs><g clip-path="url(#c26f81fbac)"><path fill="#f1a1e7" d="M 215.5 255.484375 C 232.339844 203.652344 249.175781 151.820312 266.015625 99.988281 C 221.941406 67.949219 177.816406 35.910156 133.742188 3.871094 C 89.667969 35.910156 45.542969 67.949219 1.46875 99.988281 C 18.304688 151.820312 35.144531 203.652344 51.980469 255.484375 C 106.503906 255.484375 160.976562 255.484375 215.5 255.484375 Z M 215.5 255.484375 " fill-opacity="1" fill-rule="nonzero"/></g><g clip-path="url(#8f147019f6)"><path fill="#f1a1e7" d="M 236.246094 148.179688 C 227.589844 148.179688 220.410156 155.355469 220.410156 164.011719 C 220.410156 172.667969 227.589844 179.847656 236.246094 179.847656 C 251.710938 179.847656 267.175781 179.847656 282.691406 179.847656 C 291.347656 179.847656 298.527344 172.667969 298.527344 164.011719 C 298.527344 155.355469 291.347656 148.179688 282.691406 148.179688 C 267.175781 148.179688 251.710938 148.179688 236.246094 148.179688 Z M 236.246094 148.179688 " fill-opacity="1" fill-rule="nonzero"/></g><g clip-path="url(#da0c992ee1)"><path fill="#f1a1e7" d="M 266.859375 126.589844 C 266.859375 139.046875 266.859375 151.503906 266.859375 164.011719 C 266.859375 172.667969 274.035156 179.847656 282.691406 179.847656 C 291.347656 179.847656 298.527344 172.667969 298.527344 164.011719 C 298.527344 151.558594 298.527344 139.101562 298.527344 126.589844 C 298.527344 117.933594 291.347656 110.757812 282.691406 110.757812 C 274.035156 110.757812 266.859375 117.988281 266.859375 126.589844 Z M 266.859375 126.589844 " fill-opacity="1" fill-rule="nonzero"/></g><path fill="#000000" d="M 112.3125 122.632812 C 112.3125 126.960938 115.902344 130.550781 120.230469 130.550781 C 124.558594 130.550781 128.144531 126.960938 128.144531 122.632812 C 128.144531 118.304688 124.558594 114.714844 120.230469 114.714844 C 115.902344 114.714844 112.3125 118.355469 112.3125 122.632812 Z M 112.3125 122.632812 " fill-opacity="1" fill-rule="nonzero"/><path fill="#000000" d="M 144.507812 122.632812 C 144.507812 126.960938 148.097656 130.550781 152.425781 130.550781 C 156.753906 130.550781 160.34375 126.960938 160.34375 122.632812 C 160.34375 118.304688 156.753906 114.714844 152.425781 114.714844 C 148.097656 114.714844 144.507812 118.355469 144.507812 122.632812 Z M 144.507812 122.632812 " fill-opacity="1" fill-rule="nonzero"/><g clip-path="url(#573f3eed2c)"><path fill="#f1a1e7" d="M 86.289062 242.871094 C 86.289062 255.328125 86.289062 267.785156 86.289062 280.292969 C 86.289062 288.949219 93.46875 296.128906 102.125 296.128906 C 110.78125 296.128906 117.960938 288.949219 117.960938 280.292969 C 117.960938 267.835938 117.960938 255.378906 117.960938 242.871094 C 117.960938 234.214844 110.78125 227.035156 102.125 227.035156 C 93.46875 227.035156 86.289062 234.214844 86.289062 242.871094 Z M 86.289062 242.871094 " fill-opacity="1" fill-rule="nonzero"/></g><g clip-path="url(#6fe0afa49f)"><path fill="#f1a1e7" d="M 179.980469 242.871094 C 179.980469 255.328125 179.980469 267.785156 179.980469 280.292969 C 179.980469 288.949219 172.800781 296.128906 164.144531 296.128906 C 155.488281 296.128906 148.308594 288.949219 148.308594 280.292969 C 148.308594 267.835938 148.308594 255.378906 148.308594 242.871094 C 148.308594 234.214844 155.488281 227.035156 164.144531 227.035156 C 172.800781 227.035156 179.980469 234.214844 179.980469 242.871094 Z M 179.980469 242.871094 " fill-opacity="1" fill-rule="nonzero"/></g><path fill="#000000" d="M 91.832031 114.660156 C 91.199219 114.925781 90.566406 115.191406 89.933594 115.453125 C 88.71875 116.140625 87.820312 117.089844 87.082031 118.304688 C 86.078125 120.574219 85.128906 122.84375 84.601562 125.269531 C 84.019531 127.804688 83.757812 130.445312 83.757812 133.03125 C 83.757812 135.457031 84.179688 137.9375 84.707031 140.261719 C 85.289062 142.6875 86.289062 145.066406 87.347656 147.335938 C 88.136719 148.96875 89.085938 150.5 90.144531 151.980469 C 91.621094 153.984375 93.203125 155.9375 94.945312 157.679688 C 96.636719 159.367188 98.535156 160.792969 100.382812 162.21875 C 102.019531 163.484375 103.761719 164.542969 105.554688 165.542969 C 109.410156 167.707031 113.632812 169.398438 117.855469 170.664062 C 122.234375 171.984375 126.722656 172.667969 131.261719 173.144531 C 135.273438 173.566406 139.335938 173.515625 143.347656 173.199219 C 147.941406 172.773438 152.480469 172.035156 156.859375 170.769531 C 159.65625 169.976562 162.296875 168.871094 164.988281 167.761719 C 167.207031 166.8125 169.316406 165.703125 171.375 164.433594 C 173.804688 162.957031 176.074219 161.214844 178.238281 159.367188 C 179.980469 157.890625 181.507812 156.253906 182.933594 154.511719 C 184.675781 152.347656 186.3125 150.078125 187.578125 147.597656 C 188.898438 145.011719 189.953125 142.265625 190.535156 139.417969 C 191.644531 134.191406 191.484375 128.703125 190.007812 123.527344 C 188.792969 119.414062 184.464844 116.824219 180.296875 117.988281 C 176.179688 119.09375 173.539062 123.582031 174.753906 127.699219 C 175.015625 128.542969 175.226562 129.441406 175.386719 130.285156 C 175.492188 131.761719 175.492188 133.1875 175.386719 134.667969 C 175.121094 136.144531 174.699219 137.621094 174.171875 139.046875 C 173.378906 140.683594 172.484375 142.214844 171.429688 143.691406 C 169.898438 145.539062 168.207031 147.226562 166.308594 148.707031 C 163.5625 150.710938 160.660156 152.347656 157.597656 153.71875 C 153.480469 155.355469 149.257812 156.464844 144.878906 157.152344 C 139.96875 157.730469 135.007812 157.730469 130.046875 157.152344 C 125.71875 156.464844 121.441406 155.355469 117.324219 153.71875 C 114.265625 152.347656 111.414062 150.710938 108.667969 148.757812 C 106.824219 147.226562 105.082031 145.539062 103.550781 143.691406 C 102.496094 142.214844 101.542969 140.683594 100.804688 138.996094 C 100.277344 137.570312 99.855469 136.144531 99.589844 134.613281 C 99.484375 133.1875 99.484375 131.761719 99.589844 130.285156 C 99.90625 128.648438 100.332031 127.066406 100.964844 125.480469 C 101.121094 125.058594 101.332031 124.636719 101.492188 124.269531 C 101.859375 122.84375 101.859375 121.472656 101.492188 120.046875 C 100.964844 118.09375 99.644531 116.351562 97.847656 115.296875 C 96.636719 114.609375 95.261719 114.238281 93.839844 114.238281 C 93.203125 114.34375 92.519531 114.449219 91.832031 114.660156 Z M 100.59375 126.695312 C 100.542969 126.855469 100.488281 127.011719 100.382812 127.117188 C 100.4375 127.011719 100.542969 126.855469 100.59375 126.695312 Z M 100.59375 126.695312 " fill-opacity="1" fill-rule="nonzero"/></svg>