<svg xmlns="http://www.w3.org/2000/svg" xmlns:xlink="http://www.w3.org/1999/xlink" width="400" zoomAndPan="magnify" viewBox="0 0 300 299.999988" height="400" preserveAspectRatio="xMidYMid meet" version="1.0"><defs><clipPath id="e27da59651"><path d="M 33 37.183594 L 263 37.183594 L 263 233 L 33 233 Z M 33 37.183594 " clip-rule="nonzero"/></clipPath><clipPath id="720c45e39b"><path d="M 122 174 L 149 174 L 149 262.933594 L 122 262.933594 Z M 122 174 " clip-rule="nonzero"/></clipPath><clipPath id="5e674bae93"><path d="M 169 174 L 196 174 L 196 262.933594 L 169 262.933594 Z M 169 174 " clip-rule="nonzero"/></clipPath></defs><path fill="#ffffff" d="M 112.867188 146.34375 C 113.203125 146.21875 113.585938 146.050781 113.878906 145.878906 C 116.035156 145.035156 118.230469 144.273438 120.46875 143.640625 C 120.640625 143.597656 120.808594 143.558594 120.976562 143.515625 C 120.976562 143.515625 121.019531 143.515625 121.019531 143.515625 C 121.0625 143.515625 121.0625 143.515625 121.105469 143.472656 C 121.144531 143.472656 121.144531 143.472656 121.1875 143.472656 C 123.933594 142.710938 126.722656 142.164062 129.511719 141.742188 C 135.46875 141.023438 141.507812 141.023438 147.464844 141.742188 C 151.519531 142.332031 155.535156 143.304688 159.421875 144.613281 C 160.984375 145.121094 162.886719 144.78125 164.320312 143.980469 C 165.757812 143.132812 166.8125 141.78125 167.234375 140.175781 C 167.699219 138.53125 167.449219 136.753906 166.601562 135.277344 C 165.757812 133.796875 164.40625 132.910156 162.800781 132.363281 C 159.292969 131.179688 155.703125 130.292969 152.070312 129.699219 C 147.71875 128.980469 143.324219 128.558594 138.933594 128.519531 C 134.917969 128.476562 130.988281 128.855469 127.019531 129.40625 C 124.0625 129.828125 121.105469 130.375 118.1875 131.179688 C 118.148438 131.179688 118.105469 131.222656 118.019531 131.222656 C 117.851562 131.261719 117.640625 131.304688 117.472656 131.390625 C 117.429688 131.390625 117.386719 131.433594 117.300781 131.433594 C 117.300781 131.433594 117.300781 131.433594 117.261719 131.433594 C 117.21875 131.433594 117.175781 131.433594 117.175781 131.476562 C 117.089844 131.476562 117.046875 131.515625 116.964844 131.515625 C 116.921875 131.515625 116.878906 131.515625 116.878906 131.558594 C 116.835938 131.558594 116.753906 131.601562 116.710938 131.601562 C 114.21875 132.320312 111.808594 133.25 109.402344 134.222656 C 108.851562 134.347656 108.347656 134.601562 107.839844 134.855469 C 107.753906 134.898438 107.671875 134.9375 107.585938 134.980469 C 107.289062 135.109375 106.996094 135.234375 106.699219 135.363281 C 106.277344 135.699219 105.855469 136.039062 105.429688 136.332031 C 104.628906 137.136719 104.121094 138.066406 103.785156 139.121094 C 103.320312 140.769531 103.574219 142.542969 104.417969 144.023438 C 105.261719 145.457031 106.613281 146.515625 108.21875 146.9375 C 108.769531 147.019531 109.359375 147.105469 109.910156 147.148438 C 110.921875 147.105469 111.9375 146.851562 112.867188 146.34375 Z M 114.21875 145.753906 C 114.261719 145.753906 114.300781 145.710938 114.300781 145.710938 C 114.300781 145.710938 114.261719 145.710938 114.21875 145.753906 Z M 114.21875 145.753906 " fill-opacity="1" fill-rule="nonzero"/><path fill="#ffffff" d="M 171.796875 151.160156 C 171.796875 149.9375 171.882812 148.710938 172.011719 147.484375 C 172.472656 144.699219 173.191406 141.992188 174.25 139.417969 C 174.839844 138.105469 175.515625 136.796875 176.234375 135.53125 C 177.964844 132.53125 176.953125 128.601562 173.953125 126.871094 C 170.996094 125.136719 167.023438 126.152344 165.292969 129.152344 C 163.476562 132.277344 162.039062 135.613281 160.984375 139.035156 C 160.476562 140.726562 160.097656 142.457031 159.800781 144.191406 C 159.421875 146.515625 159.167969 148.835938 159.125 151.160156 C 159.082031 154.625 162.039062 157.5 165.460938 157.5 C 168.925781 157.5 171.714844 154.625 171.796875 151.160156 Z M 171.796875 151.160156 " fill-opacity="1" fill-rule="nonzero"/><g clip-path="url(#e27da59651)"><path fill="#f1a1e7" d="M 262.835938 134.769531 C 262.835938 136.367188 262.792969 137.964844 262.699219 139.558594 C 262.605469 141.152344 262.46875 142.746094 262.285156 144.335938 C 262.101562 145.925781 261.871094 147.507812 261.597656 149.089844 C 261.320312 150.667969 261 152.242188 260.632812 153.808594 C 260.265625 155.375 259.855469 156.933594 259.398438 158.480469 C 258.945312 160.03125 258.445312 161.570312 257.898438 163.097656 C 257.355469 164.625 256.765625 166.140625 256.132812 167.644531 C 255.5 169.148438 254.824219 170.640625 254.105469 172.113281 C 253.386719 173.589844 252.628906 175.050781 251.824219 176.492188 C 251.023438 177.9375 250.179688 179.363281 249.292969 180.773438 C 248.410156 182.179688 247.484375 183.570312 246.519531 184.941406 C 245.554688 186.308594 244.550781 187.660156 243.507812 188.988281 C 242.464844 190.3125 241.382812 191.621094 240.265625 192.902344 C 239.148438 194.183594 237.992188 195.445312 236.800781 196.679688 C 235.613281 197.914062 234.386719 199.121094 233.125 200.304688 C 231.863281 201.488281 230.570312 202.644531 229.242188 203.773438 C 227.917969 204.902344 226.558594 206.003906 225.167969 207.078125 C 223.777344 208.148438 222.355469 209.191406 220.902344 210.207031 C 219.453125 211.21875 217.972656 212.203125 216.464844 213.152344 C 214.957031 214.105469 213.421875 215.023438 211.863281 215.910156 C 210.300781 216.796875 208.71875 217.652344 207.105469 218.472656 C 205.496094 219.292969 203.863281 220.082031 202.207031 220.835938 C 200.554688 221.585938 198.878906 222.304688 197.179688 222.988281 C 195.484375 223.671875 193.769531 224.316406 192.035156 224.929688 C 190.300781 225.539062 188.546875 226.113281 186.78125 226.652344 C 185.015625 227.191406 183.230469 227.691406 181.4375 228.15625 C 179.640625 228.617188 177.832031 229.042969 176.011719 229.433594 C 174.1875 229.820312 172.359375 230.171875 170.515625 230.480469 C 168.675781 230.792969 166.828125 231.066406 164.96875 231.300781 C 163.113281 231.535156 161.25 231.730469 159.382812 231.886719 C 157.515625 232.042969 155.644531 232.160156 153.769531 232.238281 C 151.894531 232.316406 150.019531 232.355469 148.140625 232.355469 C 146.265625 232.355469 144.386719 232.316406 142.511719 232.238281 C 140.636719 232.160156 138.765625 232.042969 136.898438 231.886719 C 135.03125 231.730469 133.167969 231.535156 131.3125 231.300781 C 129.453125 231.066406 127.605469 230.792969 125.765625 230.480469 C 123.925781 230.171875 122.09375 229.820312 120.273438 229.433594 C 118.453125 229.042969 116.644531 228.617188 114.847656 228.15625 C 113.050781 227.691406 111.269531 227.191406 109.5 226.652344 C 107.734375 226.113281 105.984375 225.539062 104.25 224.929688 C 102.515625 224.316406 100.800781 223.671875 99.101562 222.988281 C 97.40625 222.304688 95.730469 221.585938 94.074219 220.835938 C 92.417969 220.082031 90.785156 219.292969 89.175781 218.472656 C 87.566406 217.652344 85.980469 216.796875 84.417969 215.910156 C 82.859375 215.023438 81.324219 214.105469 79.816406 213.152344 C 78.308594 212.203125 76.828125 211.21875 75.378906 210.207031 C 73.925781 209.191406 72.507812 208.148438 71.117188 207.078125 C 69.726562 206.003906 68.367188 204.902344 67.039062 203.773438 C 65.710938 202.644531 64.417969 201.488281 63.15625 200.304688 C 61.894531 199.121094 60.671875 197.914062 59.480469 196.679688 C 58.289062 195.445312 57.132812 194.183594 56.015625 192.902344 C 54.898438 191.621094 53.816406 190.3125 52.773438 188.988281 C 51.730469 187.660156 50.726562 186.308594 49.761719 184.941406 C 48.796875 183.570312 47.871094 182.179688 46.988281 180.773438 C 46.101562 179.363281 45.257812 177.9375 44.457031 176.492188 C 43.65625 175.050781 42.894531 173.589844 42.175781 172.113281 C 41.457031 170.640625 40.78125 169.148438 40.148438 167.644531 C 39.515625 166.140625 38.929688 164.625 38.382812 163.097656 C 37.839844 161.570312 37.339844 160.03125 36.882812 158.480469 C 36.425781 156.933594 36.015625 155.375 35.648438 153.808594 C 35.28125 152.242188 34.960938 150.667969 34.6875 149.089844 C 34.410156 147.507812 34.179688 145.925781 33.996094 144.335938 C 33.8125 142.746094 33.675781 141.152344 33.582031 139.558594 C 33.492188 137.964844 33.445312 136.367188 33.445312 134.769531 C 33.445312 133.171875 33.492188 131.578125 33.582031 129.980469 C 33.675781 128.386719 33.8125 126.792969 33.996094 125.203125 C 34.179688 123.617188 34.410156 122.03125 34.6875 120.449219 C 34.960938 118.871094 35.28125 117.296875 35.648438 115.730469 C 36.015625 114.164062 36.425781 112.609375 36.882812 111.058594 C 37.339844 109.507812 37.839844 107.96875 38.382812 106.441406 C 38.929688 104.914062 39.515625 103.398438 40.148438 101.894531 C 40.78125 100.390625 41.457031 98.902344 42.175781 97.425781 C 42.894531 95.949219 43.65625 94.488281 44.457031 93.046875 C 45.257812 91.601562 46.101562 90.175781 46.988281 88.769531 C 47.871094 87.359375 48.796875 85.96875 49.761719 84.601562 C 50.726562 83.230469 51.730469 81.882812 52.773438 80.554688 C 53.816406 79.226562 54.898438 77.921875 56.015625 76.636719 C 57.132812 75.355469 58.289062 74.097656 59.480469 72.863281 C 60.671875 71.628906 61.894531 70.417969 63.15625 69.234375 C 64.417969 68.050781 65.710938 66.894531 67.039062 65.765625 C 68.367188 64.636719 69.726562 63.535156 71.117188 62.460938 C 72.507812 61.390625 73.925781 60.347656 75.378906 59.335938 C 76.828125 58.320312 78.308594 57.339844 79.816406 56.386719 C 81.324219 55.4375 82.859375 54.515625 84.417969 53.628906 C 85.980469 52.742188 87.566406 51.886719 89.175781 51.066406 C 90.785156 50.246094 92.417969 49.457031 94.074219 48.707031 C 95.730469 47.953125 97.40625 47.234375 99.101562 46.550781 C 100.800781 45.871094 102.515625 45.222656 104.25 44.613281 C 105.984375 44 107.734375 43.425781 109.5 42.886719 C 111.269531 42.347656 113.050781 41.847656 114.847656 41.386719 C 116.644531 40.921875 118.453125 40.496094 120.273438 40.109375 C 122.09375 39.71875 123.925781 39.371094 125.765625 39.058594 C 127.605469 38.746094 129.453125 38.472656 131.3125 38.238281 C 133.167969 38.003906 135.03125 37.808594 136.898438 37.652344 C 138.765625 37.496094 140.636719 37.378906 142.511719 37.300781 C 144.386719 37.222656 146.265625 37.183594 148.140625 37.183594 C 150.019531 37.183594 151.894531 37.222656 153.769531 37.300781 C 155.644531 37.378906 157.515625 37.496094 159.382812 37.652344 C 161.25 37.808594 163.113281 38.003906 164.96875 38.238281 C 166.828125 38.472656 168.675781 38.746094 170.515625 39.058594 C 172.359375 39.371094 174.1875 39.71875 176.011719 40.109375 C 177.832031 40.496094 179.640625 40.921875 181.4375 41.386719 C 183.230469 41.847656 185.015625 42.347656 186.78125 42.886719 C 188.546875 43.425781 190.300781 44 192.035156 44.613281 C 193.769531 45.222656 195.484375 45.871094 197.179688 46.550781 C 198.878906 47.234375 200.554688 47.953125 202.207031 48.707031 C 203.863281 49.457031 205.496094 50.246094 207.105469 51.066406 C 208.71875 51.886719 210.300781 52.742188 211.863281 53.628906 C 213.421875 54.515625 214.957031 55.4375 216.464844 56.386719 C 217.972656 57.339844 219.453125 58.320312 220.902344 59.335938 C 222.355469 60.347656 223.777344 61.390625 225.167969 62.460938 C 226.558594 63.535156 227.917969 64.636719 229.242188 65.765625 C 230.570312 66.894531 231.863281 68.050781 233.125 69.234375 C 234.386719 70.417969 235.613281 71.628906 236.800781 72.863281 C 237.992188 74.097656 239.148438 75.355469 240.265625 76.636719 C 241.382812 77.921875 242.464844 79.226562 243.507812 80.554688 C 244.550781 81.882812 245.554688 83.230469 246.519531 84.601562 C 247.484375 85.96875 248.410156 87.359375 249.292969 88.769531 C 250.179688 90.175781 251.023438 91.601562 251.824219 93.046875 C 252.628906 94.488281 253.386719 95.949219 254.105469 97.425781 C 254.824219 98.902344 255.5 100.390625 256.132812 101.894531 C 256.765625 103.398438 257.355469 104.914062 257.898438 106.441406 C 258.445312 107.96875 258.945312 109.507812 259.398438 111.058594 C 259.855469 112.609375 260.265625 114.164062 260.632812 115.730469 C 261 117.296875 261.320312 118.871094 261.597656 120.449219 C 261.871094 122.03125 262.101562 123.617188 262.285156 125.203125 C 262.46875 126.792969 262.605469 128.386719 262.699219 129.980469 C 262.792969 131.578125 262.835938 133.171875 262.835938 134.769531 Z M 262.835938 134.769531 " fill-opacity="1" fill-rule="nonzero"/></g><path fill="#000000" d="M 145.226562 110.859375 C 144 112.085938 143.410156 113.648438 143.367188 115.335938 C 143.324219 117.238281 143.535156 119.097656 143.832031 120.957031 C 144.042969 122.390625 144.464844 123.828125 144.972656 125.179688 C 145.648438 126.914062 146.410156 128.601562 147.421875 130.207031 C 148.394531 131.769531 149.621094 133.25 150.886719 134.601562 C 152.195312 135.953125 153.71875 137.136719 155.238281 138.234375 C 156.84375 139.375 158.574219 140.136719 160.351562 140.851562 C 161.746094 141.445312 163.136719 141.867188 164.574219 142.121094 C 166.519531 142.5 168.460938 142.710938 170.445312 142.667969 C 172.261719 142.628906 174.078125 142.375 175.855469 141.992188 C 177.628906 141.65625 179.277344 140.9375 180.921875 140.261719 C 184.050781 138.953125 186.878906 136.882812 189.203125 134.433594 C 190.472656 133.121094 191.570312 131.644531 192.542969 130.121094 C 193.511719 128.601562 194.1875 126.953125 194.90625 125.308594 C 195.414062 124.125 195.75 122.898438 196.003906 121.632812 C 196.34375 120.070312 196.511719 118.464844 196.597656 116.859375 C 196.597656 116.816406 196.597656 116.730469 196.597656 116.6875 C 196.597656 116.648438 196.597656 116.648438 196.597656 116.605469 C 196.597656 116.605469 196.597656 116.605469 196.597656 116.5625 C 196.597656 116.519531 196.597656 116.519531 196.597656 116.476562 C 196.597656 116.351562 196.597656 116.183594 196.597656 116.054688 C 196.597656 116.054688 196.597656 116.054688 196.597656 116.011719 C 196.597656 112.550781 193.722656 109.675781 190.261719 109.675781 C 186.796875 109.675781 183.964844 112.550781 183.921875 116.011719 C 183.921875 116.222656 183.921875 116.433594 183.921875 116.605469 C 183.921875 117.027344 183.878906 117.449219 183.839844 117.871094 C 183.628906 119.097656 183.289062 120.28125 182.867188 121.421875 C 182.359375 122.519531 181.726562 123.53125 181.050781 124.546875 C 180.289062 125.476562 179.445312 126.320312 178.515625 127.082031 C 177.5 127.800781 176.488281 128.390625 175.390625 128.898438 C 174.25 129.320312 173.066406 129.660156 171.839844 129.871094 C 170.574219 129.996094 169.347656 129.996094 168.082031 129.871094 C 166.855469 129.660156 165.671875 129.320312 164.488281 128.898438 C 163.390625 128.390625 162.378906 127.757812 161.363281 127.082031 C 160.433594 126.320312 159.632812 125.476562 158.828125 124.546875 C 158.109375 123.53125 157.519531 122.519531 157.011719 121.421875 C 156.589844 120.28125 156.253906 119.097656 156.042969 117.871094 C 155.957031 117.027344 155.957031 116.140625 155.957031 115.253906 C 156.042969 111.789062 153 108.914062 149.621094 108.914062 C 148.058594 109 146.410156 109.675781 145.226562 110.859375 Z M 145.226562 110.859375 " fill-opacity="1" fill-rule="nonzero"/><g clip-path="url(#720c45e39b)"><path fill="#f1a1e7" d="M 135.59375 174.183594 C 128.667969 174.183594 122.921875 179.929688 122.921875 186.859375 C 122.921875 196.828125 122.921875 240.171875 122.921875 250.140625 C 122.921875 257.070312 128.667969 262.816406 135.59375 262.816406 C 142.523438 262.816406 148.269531 257.070312 148.269531 250.140625 C 148.269531 240.171875 148.269531 196.828125 148.269531 186.859375 C 148.269531 179.929688 142.523438 174.183594 135.59375 174.183594 Z M 135.59375 174.183594 " fill-opacity="1" fill-rule="nonzero"/></g><g clip-path="url(#5e674bae93)"><path fill="#f1a1e7" d="M 182.488281 174.183594 C 175.558594 174.183594 169.8125 179.929688 169.8125 186.859375 C 169.8125 196.828125 169.8125 240.171875 169.8125 250.140625 C 169.8125 257.070312 175.558594 262.816406 182.488281 262.816406 C 189.414062 262.816406 195.160156 257.070312 195.160156 250.140625 C 195.160156 240.171875 195.160156 196.828125 195.160156 186.859375 C 195.160156 179.929688 189.414062 174.183594 182.488281 174.183594 Z M 182.488281 174.183594 " fill-opacity="1" fill-rule="nonzero"/></g><path fill="#f1a1e7" d="M 252.867188 135.023438 C 256.585938 133.503906 260.21875 131.941406 263.683594 129.910156 C 267.273438 127.839844 270.570312 125.308594 273.777344 122.6875 C 276.3125 120.660156 278.636719 118.378906 280.835938 115.972656 C 283.621094 112.886719 286.15625 109.550781 288.4375 106.085938 C 290.210938 103.339844 291.777344 100.425781 293.085938 97.425781 C 294.816406 93.539062 296.378906 89.609375 297.4375 85.46875 C 298.535156 81.289062 299.125 76.976562 299.546875 72.667969 C 299.886719 69.417969 299.886719 66.164062 299.675781 62.910156 C 299.507812 60.207031 299.085938 57.460938 298.703125 54.800781 C 298.28125 53.785156 297.859375 52.773438 297.4375 51.757812 C 296.296875 49.855469 294.773438 48.335938 292.875 47.195312 C 289.960938 45.464844 286.367188 45 283.117188 45.929688 C 279.945312 46.816406 277.199219 48.925781 275.554688 51.757812 C 275.132812 52.773438 274.707031 53.785156 274.285156 54.800781 C 273.738281 56.910156 273.695312 59.023438 274.203125 61.179688 C 274.582031 65.234375 274.582031 69.332031 274.160156 73.386719 C 273.484375 77.527344 272.386719 81.539062 270.863281 85.46875 C 269.175781 89.1875 267.105469 92.734375 264.652344 96.074219 C 262.078125 99.242188 259.164062 102.113281 256.035156 104.691406 C 252.488281 107.269531 248.683594 109.464844 244.671875 111.238281 C 244.164062 111.449219 243.65625 111.660156 243.152344 111.871094 C 241.25 113.011719 239.730469 114.535156 238.589844 116.433594 C 236.855469 119.351562 236.390625 122.941406 237.320312 126.195312 C 238.207031 129.363281 240.320312 132.109375 243.152344 133.757812 C 244.164062 134.179688 245.179688 134.601562 246.191406 135.023438 C 247.332031 135.320312 248.433594 135.488281 249.574219 135.488281 C 250.714844 135.488281 251.769531 135.363281 252.867188 135.023438 Z M 274.371094 62.363281 C 274.371094 62.277344 274.371094 62.234375 274.328125 62.148438 C 274.371094 62.234375 274.371094 62.277344 274.371094 62.363281 Z M 274.371094 62.363281 " fill-opacity="1" fill-rule="nonzero"/><path fill="#f1a1e7" d="M 47.046875 135.023438 C 48.1875 135.320312 49.285156 135.488281 50.425781 135.488281 C 51.566406 135.488281 52.667969 135.320312 53.808594 135.023438 C 54.820312 134.601562 55.835938 134.179688 56.847656 133.757812 C 59.679688 132.109375 61.792969 129.363281 62.679688 126.195312 C 63.566406 122.941406 63.101562 119.351562 61.410156 116.433594 C 60.269531 114.535156 58.75 113.011719 56.847656 111.871094 C 56.34375 111.660156 55.835938 111.449219 55.328125 111.238281 C 51.316406 109.464844 47.511719 107.269531 43.964844 104.691406 C 40.796875 102.113281 37.921875 99.199219 35.347656 96.074219 C 32.9375 92.734375 30.867188 89.230469 29.136719 85.46875 C 27.613281 81.582031 26.515625 77.527344 25.839844 73.386719 C 25.417969 69.332031 25.417969 65.234375 25.796875 61.179688 C 26.304688 59.066406 26.261719 56.953125 25.714844 54.800781 C 25.292969 53.785156 24.867188 52.773438 24.445312 51.757812 C 22.800781 48.925781 20.054688 46.816406 16.882812 45.929688 C 13.632812 45.039062 10.039062 45.503906 7.125 47.195312 C 5.226562 48.335938 3.703125 49.855469 2.5625 51.757812 C 2.140625 52.773438 1.71875 53.785156 1.296875 54.800781 C 0.914062 57.503906 0.492188 60.207031 0.324219 62.910156 C 0.113281 66.164062 0.15625 69.457031 0.453125 72.667969 C 0.875 76.976562 1.464844 81.289062 2.5625 85.46875 C 3.660156 89.609375 5.226562 93.496094 6.914062 97.425781 C 8.222656 100.425781 9.789062 103.339844 11.5625 106.085938 C 13.84375 109.550781 16.378906 112.886719 19.164062 115.972656 C 21.320312 118.378906 23.6875 120.660156 26.222656 122.6875 C 29.429688 125.265625 32.726562 127.800781 36.316406 129.910156 C 39.695312 131.941406 43.332031 133.542969 47.046875 135.023438 Z M 25.546875 62.363281 C 25.546875 62.277344 25.546875 62.234375 25.585938 62.148438 C 25.546875 62.234375 25.546875 62.277344 25.546875 62.363281 Z M 25.546875 62.363281 " fill-opacity="1" fill-rule="nonzero"/><path fill="#000000" d="M 133.398438 116.308594 C 132.847656 112.886719 129.554688 110.480469 126.132812 111.027344 C 122.710938 111.578125 120.34375 114.914062 120.851562 118.292969 C 121.398438 121.714844 124.695312 124.125 128.117188 123.574219 C 131.539062 123.027344 133.945312 119.730469 133.398438 116.308594 Z M 133.398438 116.308594 " fill-opacity="1" fill-rule="nonzero"/><path fill="#000000" d="M 220.339844 116.351562 C 219.789062 112.929688 216.496094 110.519531 213.074219 111.070312 C 209.652344 111.621094 207.285156 114.957031 207.792969 118.335938 C 208.339844 121.757812 211.636719 124.167969 215.058594 123.617188 C 218.523438 123.066406 220.886719 119.773438 220.339844 116.351562 Z M 220.339844 116.351562 " fill-opacity="1" fill-rule="nonzero"/></svg>