<svg xmlns="http://www.w3.org/2000/svg" xmlns:xlink="http://www.w3.org/1999/xlink" width="400" zoomAndPan="magnify" viewBox="0 0 300 299.999988" height="400" preserveAspectRatio="xMidYMid meet" version="1.0"><defs><clipPath id="0da0ba50ab"><path d="M 70.109375 3.445312 L 229.859375 3.445312 L 229.859375 256 L 70.109375 256 Z M 70.109375 3.445312 " clip-rule="nonzero"/></clipPath><clipPath id="85ae556bf2"><path d="M 91 274 L 146 274 L 146 296.695312 L 91 296.695312 Z M 91 274 " clip-rule="nonzero"/></clipPath><clipPath id="680da5f023"><path d="M 123 248 L 145 248 L 145 296.695312 L 123 296.695312 Z M 123 248 " clip-rule="nonzero"/></clipPath><clipPath id="ec366fc408"><path d="M 153 274 L 208 274 L 208 296.695312 L 153 296.695312 Z M 153 274 " clip-rule="nonzero"/></clipPath><clipPath id="cf85deb49c"><path d="M 153 248 L 176 248 L 176 296.695312 L 153 296.695312 Z M 153 248 " clip-rule="nonzero"/></clipPath></defs><g clip-path="url(#0da0ba50ab)"><path fill="#5f00f8" d="M 70.289062 3.445312 L 229.703125 3.445312 L 229.703125 255.507812 L 70.289062 255.507812 Z M 70.289062 3.445312 " fill-opacity="1" fill-rule="nonzero"/></g><g clip-path="url(#85ae556bf2)"><path fill="#5f00f8" d="M 102.019531 274.679688 C 96.066406 274.679688 91.085938 279.660156 91.085938 285.609375 C 91.085938 291.558594 96.066406 296.542969 102.019531 296.542969 C 112.695312 296.542969 123.375 296.542969 134.105469 296.542969 C 140.054688 296.542969 145.035156 291.558594 145.035156 285.609375 C 145.035156 279.660156 140.054688 274.679688 134.105469 274.679688 C 123.375 274.679688 112.695312 274.679688 102.019531 274.679688 Z M 102.019531 274.679688 " fill-opacity="1" fill-rule="nonzero"/></g><g clip-path="url(#680da5f023)"><path fill="#5f00f8" d="M 123.121094 259.777344 C 123.121094 268.371094 123.121094 277.015625 123.121094 285.609375 C 123.121094 291.558594 128.105469 296.542969 134.054688 296.542969 C 140.003906 296.542969 144.984375 291.558594 144.984375 285.609375 C 144.984375 277.015625 144.984375 268.371094 144.984375 259.777344 C 144.984375 253.828125 140.003906 248.847656 134.054688 248.847656 C 128.105469 248.847656 123.121094 253.828125 123.121094 259.777344 Z M 123.121094 259.777344 " fill-opacity="1" fill-rule="nonzero"/></g><path fill="#5f00f8" d="M 144.984375 285.609375 C 144.984375 277.015625 144.984375 194.4375 144.984375 185.84375 C 144.984375 179.894531 140.003906 174.910156 134.054688 174.910156 C 128.105469 174.910156 123.121094 179.894531 123.121094 185.84375 C 123.121094 194.4375 123.121094 277.015625 123.121094 285.609375 " fill-opacity="1" fill-rule="nonzero"/><g clip-path="url(#ec366fc408)"><path fill="#5f00f8" d="M 196.800781 274.679688 C 202.75 274.679688 207.734375 279.660156 207.734375 285.609375 C 207.734375 291.558594 202.75 296.542969 196.800781 296.542969 C 186.121094 296.542969 175.445312 296.542969 164.714844 296.542969 C 158.765625 296.542969 153.78125 291.558594 153.78125 285.609375 C 153.78125 279.660156 158.765625 274.679688 164.714844 274.679688 C 175.394531 274.679688 186.070312 274.679688 196.800781 274.679688 Z M 196.800781 274.679688 " fill-opacity="1" fill-rule="nonzero"/></g><g clip-path="url(#cf85deb49c)"><path fill="#5f00f8" d="M 175.648438 259.777344 C 175.648438 268.371094 175.648438 277.015625 175.648438 285.609375 C 175.648438 291.558594 170.664062 296.542969 164.714844 296.542969 C 158.765625 296.542969 153.78125 291.558594 153.78125 285.609375 C 153.78125 277.015625 153.78125 268.371094 153.78125 259.777344 C 153.78125 253.828125 158.765625 248.847656 164.714844 248.847656 C 170.664062 248.847656 175.648438 253.828125 175.648438 259.777344 Z M 175.648438 259.777344 " fill-opacity="1" fill-rule="nonzero"/></g><path fill="#5f00f8" d="M 153.78125 285.609375 C 153.78125 277.015625 153.78125 194.4375 153.78125 185.84375 C 153.78125 179.894531 158.765625 174.910156 164.714844 174.910156 C 170.664062 174.910156 175.648438 179.894531 175.648438 185.84375 C 175.648438 194.4375 175.648438 277.015625 175.648438 285.609375 " fill-opacity="1" fill-rule="nonzero"/><path fill="#000000" d="M 122.664062 59.277344 C 121.339844 59.632812 120.171875 60.550781 119.511719 61.71875 C 118.796875 62.941406 118.59375 64.414062 118.949219 65.789062 C 119.304688 67.058594 120.222656 68.328125 121.390625 68.941406 C 125.207031 70.921875 129.222656 72.550781 133.390625 73.667969 C 137.714844 74.890625 142.238281 75.5 146.765625 75.804688 C 151.289062 76.058594 155.765625 75.753906 160.242188 75.09375 C 163.902344 74.585938 167.511719 73.667969 170.96875 72.449219 C 170.96875 72.449219 171.019531 72.449219 171.019531 72.449219 C 171.019531 72.449219 171.070312 72.449219 171.070312 72.449219 C 171.121094 72.449219 171.171875 72.398438 171.171875 72.398438 C 171.222656 72.398438 171.222656 72.398438 171.273438 72.347656 C 171.734375 72.195312 172.191406 71.992188 172.648438 71.839844 C 173.054688 71.636719 173.511719 71.484375 173.917969 71.28125 C 174.734375 70.820312 175.34375 70.160156 175.800781 69.398438 C 176.511719 68.175781 176.714844 66.703125 176.359375 65.328125 C 176.003906 64.007812 175.089844 62.839844 173.917969 62.175781 C 173.511719 61.972656 173.054688 61.820312 172.648438 61.617188 C 171.683594 61.363281 170.765625 61.363281 169.851562 61.617188 C 169.394531 61.820312 168.9375 61.972656 168.476562 62.125 C 168.476562 62.125 168.476562 62.125 168.425781 62.125 C 164.867188 63.398438 161.15625 64.3125 157.394531 64.871094 C 152.613281 65.429688 147.730469 65.429688 142.953125 64.871094 C 138.527344 64.210938 134.207031 63.042969 130.035156 61.363281 C 128.917969 60.855469 127.796875 60.347656 126.730469 59.789062 C 125.867188 59.328125 124.949219 59.074219 123.984375 59.074219 C 123.578125 59.125 123.121094 59.175781 122.664062 59.277344 Z M 122.664062 59.277344 " fill-opacity="1" fill-rule="nonzero"/><path fill="#000000" d="M 169.242188 52.160156 C 168.734375 53.480469 168.375 54.855469 168.121094 56.226562 C 167.816406 57.753906 167.816406 59.277344 167.867188 60.855469 C 167.917969 63.347656 168.527344 65.789062 169.445312 68.074219 C 169.953125 69.347656 170.664062 70.515625 171.375 71.6875 C 171.988281 72.652344 172.699219 73.566406 173.460938 74.382812 C 174.425781 75.398438 175.445312 76.3125 176.511719 77.179688 C 177.582031 77.992188 178.800781 78.652344 180.019531 79.261719 C 181.242188 79.871094 182.917969 79.71875 184.140625 79.210938 C 185.410156 78.652344 186.429688 77.636719 186.9375 76.363281 C 187.496094 75.042969 187.445312 73.566406 186.886719 72.246094 C 186.632812 71.839844 186.429688 71.484375 186.175781 71.074219 C 185.613281 70.363281 184.851562 69.804688 184.039062 69.449219 C 183.988281 69.449219 183.988281 69.398438 183.9375 69.398438 C 183.121094 68.890625 182.359375 68.328125 181.648438 67.71875 C 180.988281 67.007812 180.429688 66.296875 179.917969 65.484375 C 179.460938 64.617188 179.054688 63.703125 178.75 62.789062 C 178.546875 61.871094 178.394531 60.90625 178.34375 59.941406 C 178.394531 58.972656 178.496094 58.007812 178.699219 57.042969 C 178.800781 56.734375 178.902344 56.429688 179.003906 56.125 C 179.511719 54.753906 179.5625 53.328125 178.953125 52.007812 C 178.394531 50.734375 177.375 49.71875 176.105469 49.210938 C 175.496094 48.957031 174.835938 48.855469 174.171875 48.855469 C 172.140625 48.855469 170.003906 50.074219 169.242188 52.160156 Z M 169.242188 52.160156 " fill-opacity="1" fill-rule="nonzero"/><path fill="#000000" d="M 119.355469 47.125 C 118.136719 47.734375 117.171875 48.804688 116.714844 50.125 C 116.613281 50.582031 116.511719 51.042969 116.40625 51.5 C 116.355469 52.3125 116.457031 53.074219 116.765625 53.835938 C 116.765625 53.890625 116.765625 53.890625 116.816406 53.941406 C 116.867188 54.09375 116.917969 54.246094 116.96875 54.398438 C 117.171875 55.109375 117.324219 55.871094 117.425781 56.632812 C 117.425781 56.839844 117.476562 57.042969 117.476562 57.246094 C 117.476562 58.210938 117.425781 59.175781 117.273438 60.144531 C 117.070312 61.007812 116.765625 61.871094 116.40625 62.6875 C 116.40625 62.6875 116.40625 62.6875 116.40625 62.738281 C 116.40625 62.738281 116.40625 62.789062 116.40625 62.789062 C 116.355469 62.839844 116.355469 62.941406 116.304688 62.992188 C 116.304688 63.042969 116.253906 63.042969 116.253906 63.09375 C 116.253906 63.09375 116.253906 63.09375 116.253906 63.144531 C 115.796875 63.957031 115.238281 64.71875 114.679688 65.429688 C 114.679688 65.429688 114.628906 65.484375 114.628906 65.484375 C 114.628906 65.484375 114.578125 65.535156 114.578125 65.535156 C 114.578125 65.535156 114.527344 65.585938 114.527344 65.585938 C 113.765625 66.347656 112.898438 67.007812 111.984375 67.617188 C 111.679688 67.972656 111.375 68.277344 111.070312 68.636719 C 110.507812 69.449219 110.203125 70.3125 110.152344 71.226562 C 110.152344 71.382812 110.152344 71.484375 110.152344 71.636719 C 110.152344 72.90625 110.609375 74.125 111.425781 75.09375 C 112.339844 76.160156 113.664062 76.820312 115.035156 76.921875 C 115.492188 76.871094 116 76.871094 116.457031 76.820312 C 117.375 76.617188 118.1875 76.261719 118.898438 75.652344 C 118.949219 75.601562 119 75.601562 119.050781 75.550781 C 119.050781 75.550781 119.101562 75.550781 119.101562 75.5 C 119.101562 75.5 119.152344 75.5 119.152344 75.449219 C 119.917969 74.890625 120.679688 74.28125 121.339844 73.617188 C 122.203125 72.804688 122.96875 71.941406 123.730469 70.972656 C 123.730469 70.972656 123.730469 70.972656 123.730469 70.921875 C 123.984375 70.617188 124.1875 70.3125 124.390625 70.007812 C 124.59375 69.753906 124.746094 69.449219 124.898438 69.195312 C 125.511719 68.175781 126.070312 67.109375 126.527344 65.992188 C 126.628906 65.738281 126.730469 65.484375 126.832031 65.175781 C 126.832031 65.125 126.832031 65.125 126.882812 65.074219 C 127.441406 63.550781 127.746094 61.972656 128 60.347656 C 128 60.296875 128 60.246094 128 60.195312 C 128.050781 59.789062 128.105469 59.429688 128.105469 59.023438 C 128.15625 58.261719 128.15625 57.550781 128.105469 56.789062 C 128.050781 56.277344 128.050781 55.71875 128 55.210938 C 128 55.210938 128 55.160156 128 55.160156 C 127.898438 54.398438 127.796875 53.582031 127.644531 52.820312 C 127.492188 52.210938 127.339844 51.652344 127.136719 51.09375 C 127.085938 50.835938 126.984375 50.582031 126.882812 50.277344 C 126.832031 50.074219 126.730469 49.820312 126.628906 49.617188 C 126.628906 49.566406 126.628906 49.566406 126.578125 49.515625 C 126.578125 49.464844 126.578125 49.464844 126.527344 49.414062 C 126.070312 48.195312 124.746094 47.175781 123.527344 46.769531 C 122.96875 46.566406 122.359375 46.464844 121.746094 46.464844 C 120.882812 46.617188 120.121094 46.769531 119.355469 47.125 Z M 117.171875 54.855469 C 117.171875 54.90625 117.171875 54.90625 117.222656 54.957031 C 117.171875 54.90625 117.171875 54.855469 117.171875 54.855469 Z M 117.171875 54.855469 " fill-opacity="1" fill-rule="nonzero"/><path fill="#000000" d="M 128.359375 33.804688 C 126.476562 33.804688 124.949219 35.328125 124.949219 37.210938 C 124.949219 39.089844 126.476562 40.617188 128.359375 40.617188 C 133.136719 40.617188 137.96875 40.617188 142.75 40.617188 C 144.628906 40.617188 146.15625 39.089844 146.15625 37.210938 C 146.15625 35.328125 144.628906 33.804688 142.75 33.804688 C 137.96875 33.804688 133.1875 33.804688 128.359375 33.804688 Z M 128.359375 33.804688 " fill-opacity="1" fill-rule="nonzero"/><path fill="#000000" d="M 157.34375 33.804688 C 155.460938 33.804688 153.933594 35.328125 153.933594 37.210938 C 153.933594 39.089844 155.460938 40.617188 157.34375 40.617188 C 162.121094 40.617188 166.953125 40.617188 171.734375 40.617188 C 173.613281 40.617188 175.140625 39.089844 175.140625 37.210938 C 175.140625 35.328125 173.613281 33.804688 171.734375 33.804688 C 166.953125 33.804688 162.171875 33.804688 157.34375 33.804688 Z M 157.34375 33.804688 " fill-opacity="1" fill-rule="nonzero"/></svg>